<svg width="114" height="48" viewBox="0 0 114 48" fill="none" xmlns="http://www.w3.org/2000/svg">
<g clip-path="url(#clip0_2094_936)">
<path d="M15.6605 36.2331C15.2898 36.5146 14.5821 36.0926 14.3173 35.6849C13.8751 34.9805 14.0697 34.1179 14.0352 33.3608C13.9346 33.1743 13.7334 33.064 13.5214 33.0792C11.7724 33.9596 10.306 35.7383 8.11462 34.9627C6.0402 34.3505 4.1953 33.1378 2.81437 31.4787C0.217901 28.5915 -0.612971 23.5925 0.641591 19.5096C1.17775 18.0181 2.07558 16.6817 3.25526 15.6193C5.44593 13.6837 8.34503 12.1168 8.66142 8.79034C8.75015 7.82221 8.76804 6.37927 9.72134 5.78044C10.059 5.60379 10.4622 5.60379 10.7998 5.78044C11.1526 6.08557 11.3029 6.56251 11.1884 7.01372C11.1348 7.22544 10.1285 8.24701 10.1285 8.49298C9.40471 9.66113 9.30565 11.1097 9.86371 12.3648C10.4372 13.8292 11.3729 15.1255 12.584 16.1332C14.5787 17.77 17.5664 18.8964 19.4573 20.5696C21.648 22.5566 23.7162 25.3561 27.0026 25.7261C27.9572 25.004 29.0343 24.1598 30.3418 24.4928C30.5563 24.5072 30.7428 24.6448 30.8191 24.845C30.8203 24.8983 30.8143 24.9515 30.8012 25.0033L29.458 25.3732C29.3349 25.4966 29.458 25.5671 29.5818 25.6199C30.024 25.5137 30.5357 25.4253 30.9953 25.3026C31.7023 25.2848 32.5861 25.1794 33.0635 25.7247C33.1508 25.9351 33.3104 26.2523 33.1322 26.3057C32.4609 26.5524 31.344 26.1824 30.5873 26.7463C30.5516 26.7463 30.5337 26.7984 30.5337 26.8334C31.6823 26.6963 33.2368 26.7278 34.0849 27.6254C34.2624 27.8891 34.5622 28.5579 34.2087 28.5764C33.113 28.6448 31.7883 27.837 30.5873 28.4531C30.5534 28.4852 30.5341 28.5298 30.5341 28.5764C30.5341 28.6229 30.5534 28.6676 30.5873 28.6996C31.4884 28.945 32.3179 29.3164 32.582 30.2482C32.6171 30.442 32.6693 30.5654 32.582 30.7051C32.547 30.7586 32.3874 30.7586 32.2993 30.8285C31.5923 30.5647 31.1506 29.7726 30.3047 29.7206C29.9746 29.6916 29.6487 29.6265 29.3327 29.5266C24.1054 28.0823 18.1834 27.3259 14.7024 23.7713C13.3777 22.6805 11.6995 21.5713 9.79149 21.5713C9.69632 21.575 9.60956 21.6267 9.56108 21.7084C9.47372 21.8665 9.57896 22.4654 9.87953 22.4654C11.7287 22.4902 13.4891 23.2596 14.7596 24.5983C15.6426 25.513 15.9081 26.8676 16.6675 27.872C17.5335 28.4887 18.6821 27.9405 19.6883 28.0823C20.4172 28.0513 21.118 28.3647 21.5791 28.9278C22.0214 29.4759 21.9678 30.4064 22.6039 30.7579C25.131 30.6524 28.0108 30.1591 30.1485 31.674C30.8614 32.2338 31.1077 33.201 30.7491 34.0316C30.6084 34.2306 30.4019 34.3739 30.1658 34.4366C29.6011 34.0494 29.1774 33.4157 28.3816 33.3451C28.5191 33.7671 29.1051 34.0494 28.8589 34.6119C28.8074 34.762 28.6645 34.8617 28.5054 34.8586C27.8176 33.9076 26.5259 33.7671 25.4102 33.6795C25.4102 33.6795 17.1943 35.1224 15.6578 36.2317" fill="#B3B3B3"/>
<path d="M29.2199 16.4865C28.9072 16.5801 28.6108 16.7209 28.3409 16.9037C27.4419 17.4334 26.307 18.0343 25.796 18.9812C25.7451 19.1031 25.7272 19.5292 25.8647 19.5292C26.5898 19.6211 27.0499 18.7071 27.6331 18.7071C27.9488 18.7071 26.9067 19.5012 26.8869 19.5012C26.3291 19.9909 25.5935 20.2302 24.853 20.163C24.5778 20.1534 24.6287 20.6214 24.7003 20.7331C25.1907 21.5066 26.7437 20.9776 27.367 20.7845C27.1524 21.1202 25.4355 21.5382 25.4562 21.5382C25.4252 21.5587 25.2416 21.6807 25.2416 21.7321C25.2262 21.8744 25.3048 22.0103 25.4362 22.0684C26.5698 22.6892 27.9295 21.8951 29.0224 21.6101C29.0847 21.609 29.1442 21.6359 29.1843 21.6834C29.2242 21.7309 29.2407 21.7938 29.2288 21.8547C29.1982 21.9618 29.1231 22.0508 29.0224 22.0993C28.7627 22.2197 28.483 22.2917 28.1972 22.3117C27.9547 22.3107 27.7379 22.462 27.6558 22.6892V22.8111C27.687 22.9235 27.7843 23.0051 27.9006 23.0167H28.7803C29.2581 22.9736 29.7228 22.8389 30.1491 22.6201C31.7428 21.9074 33.6129 20.8592 33.8268 18.7831C33.8017 17.9538 33.3805 17.1862 32.6933 16.7173C31.7021 16.0651 30.169 16.2796 29.2192 16.4927" fill="#B3B3B3"/>
<path d="M29.8332 17.7786C29.8332 17.7589 30.4865 17.5135 30.4865 17.4937C30.4616 17.0515 30.5609 16.6111 30.7734 16.222C31.2837 16.3131 32.0802 15.1421 32.3471 14.8681C32.6119 15.0401 33.5115 13.7376 33.9291 13.0463C34.839 11.5903 35.4719 9.8089 36.4121 8.52424C36.4637 8.22825 36.1459 8.45573 36.075 8.56466C34.2558 10.1631 32.2323 13.0867 32.1312 14.3885C32.1002 14.7311 31.5995 15.182 31.2824 15.6218L30.7507 15.9069C30.7933 15.1302 31.0715 14.3848 31.5486 13.7691C31.845 13.6375 32.0802 12.914 32.2948 12.3844C33.1202 9.47386 34.0618 6.34885 34.1437 3.58081C34.123 3.64933 34.0412 3.58081 34.0212 3.67263C33.2137 6.74625 30.8023 11.0819 31.2108 13.5964C30.8385 14.183 30.5983 14.8428 30.5065 15.5307C30.4876 15.6757 30.4772 15.8216 30.4756 15.9677L30.2204 17.4546C30.1835 17.4666 30.1438 17.4666 30.1069 17.4546C29.4226 16.2939 29.1769 15.6526 27.7773 15.3265C27.4616 13.8301 22.4536 16.0897 19.45 15.1635C18.8166 15.5307 17.9169 15.7445 17.498 16.161C17.498 16.161 18.0599 16.4351 18.1108 16.4351C21.0842 16.8723 24.068 17.086 26.9602 16.161C27.3385 16.0294 27.6556 15.9781 27.7566 15.6424C28.1342 15.7109 28.82 16.0186 28.9418 16.335C28.327 16.3383 27.7403 16.5917 27.3178 17.0366C26.4388 16.5571 23.2715 21.19 21.7177 21.7903C21.7177 21.8211 21.5952 21.9327 21.7177 21.9437H21.891C23.2501 21.6176 27.7973 18.4618 27.542 17.3731C27.4808 17.0675 28.7484 16.5995 29.2073 16.7421C29.6984 16.8742 29.6984 17.4272 29.8304 17.78" fill="#B3B3B3"/>
<path d="M17.6804 14.5935C17.2093 14.6155 16.756 14.4118 16.4609 14.0454C15.6837 12.9539 16.0895 11.4582 16.4609 10.2263C16.5413 9.82015 16.8299 9.48589 17.2209 9.34585C17.7333 9.25748 18.4218 9.34586 18.6165 9.82136C19.2367 11.094 19.301 12.5656 18.794 13.8871C18.5835 14.3106 18.1545 14.5826 17.6804 14.5935Z" fill="#B3B3B3"/>
<path d="M22.8812 11.464C22.8124 10.4958 21.6617 9.86207 21.9616 8.84118C22.0304 8.57739 22.0854 8.48901 22.5277 8.36636C22.97 8.26084 23.4638 8.24304 23.9411 8.17246C24.0503 8.12809 24.1343 8.03814 24.1709 7.92649C24.2067 7.7255 24.1156 7.52312 23.9411 7.41604C23.0937 7.23995 22.2092 7.04606 21.8743 6.27183C21.7434 5.64053 21.9518 4.9869 22.4245 4.5466C22.9018 4.03615 23.8379 3.84226 24.2437 3.52571C24.3268 3.42884 24.3873 3.3149 24.4212 3.19204C24.4563 3.12352 24.2623 2.91044 24.1214 2.89194C22.4417 2.62816 21.0819 4.33489 19.4738 3.9834C19.209 3.93133 19.1739 3.47296 19.3149 3.31469C20.4106 1.97794 22.2126 1.23865 24.0684 0.833723C25.0402 0.639823 26.1352 0.32328 27.0362 0.81591C27.1526 0.942367 27.1672 1.13171 27.0713 1.27428C26.6476 1.87174 25.7108 1.87174 25.5706 2.6446C25.3931 2.90839 25.7817 3.04884 25.9584 3.06666C27.5831 3.08379 29.5096 2.69667 30.8172 3.77101C30.9306 4.03408 30.8745 4.33931 30.6747 4.54523C29.35 5.47773 27.2296 4.7035 26.1352 5.72438C26.0664 5.79291 26.1532 5.98817 26.204 6.02312C27.1229 6.51643 28.8011 6.07656 29.491 7.09745C29.6101 7.3632 29.5293 7.67557 29.2964 7.85112C28.3953 8.36156 27.1229 8.11559 26.151 8.29099C25.9213 8.32594 25.8684 8.62535 25.9034 8.74868C26.098 9.20705 26.8925 9.22349 27.3348 9.59417C27.5266 9.86085 27.5121 10.2232 27.2996 10.4739C26.1304 11.5832 24.1901 10.5088 22.9355 11.5133L22.8812 11.464Z" fill="#B3B3B3"/>
<path d="M20.8804 10.8626C20.2971 10.9161 19.8906 10.1583 19.5556 10.0349C19.3967 9.89793 19.9965 9.06682 20.4567 8.97912C20.9704 8.88114 21.4959 9.07832 21.8172 9.48956C21.9231 9.64783 22.1356 9.91162 22.1356 10.0706C21.8041 10.4511 21.3673 10.7265 20.8804 10.8626Z" fill="#B3B3B3"/>
<path d="M13.4066 10.5905C12.9829 10.644 12.5944 10.15 12.2759 9.78136C12.3704 9.32925 12.6617 8.94237 13.0709 8.72554C13.3845 8.58582 13.7493 8.6262 14.0243 8.83106C14.3255 9.11265 15.0842 9.57034 14.8379 9.71079C14.5553 9.86906 14.2189 10.4158 13.9541 10.4679C13.7781 10.5028 13.6542 10.5563 13.4039 10.5912" fill="#B3B3B3"/>
<path d="M2.57333 10.3357C2.71438 9.68832 3.07659 9.10978 3.59816 8.69883C3.70206 8.63397 3.80218 8.56329 3.89805 8.48713C4.21117 8.18778 4.38974 7.7752 4.39327 7.3429C4.40118 7.23463 4.35483 7.12946 4.26947 7.06199C3.92683 6.90041 3.52827 6.90674 3.19098 7.07912C2.82026 7.3429 2.14895 7.48404 1.8305 7.18532C1.63584 6.99142 1.74177 6.44604 1.91854 6.2165C2.64279 5.30182 4.02117 5.1086 5.17049 5.19561C5.68436 5.18451 6.17409 5.41248 6.4952 5.81226C6.53627 5.86902 6.56014 5.9363 6.56399 6.00616C6.45807 6.83383 5.15055 6.74545 5.09689 7.58956C5.09689 7.65808 5.23928 7.83622 5.34451 7.83622C5.751 7.85335 6.24553 7.48404 6.65134 7.74783C6.7889 7.83622 6.95123 8.48713 6.68642 8.59332C5.36974 9.16627 4.15312 9.94455 3.0823 10.8989C2.79962 11.1448 2.53206 10.459 2.56989 10.3357" fill="#B3B3B3"/>
<path d="M6.71235 4.44101C5.12283 4.54652 3.14332 4.24711 2.06483 3.1392C1.91695 2.92965 1.87195 2.66477 1.9424 2.41842C1.96478 2.3527 2.00087 2.29246 2.04832 2.24165C2.93146 1.52086 4.34491 2.66371 5.33467 2.13613C5.40115 2.02965 5.40791 1.89657 5.35255 1.78396C4.98114 1.30846 3.93911 1.39685 3.67292 0.763072C3.58558 0.534228 3.47965 0.214945 3.70938 0.164243C6.18548 -0.433215 9.3102 0.71237 11.5187 1.78396C12.3448 2.35445 13.3438 2.62202 14.3457 2.54106C15.4935 2.39923 16.9422 2.22383 17.7908 3.03369C17.7933 3.0759 17.7728 3.11616 17.7372 3.1392C16.4125 2.73496 15.228 3.64965 13.9543 3.9148C11.375 4.53145 9.67887 2.2067 7.54115 2.13339C7.29354 2.13339 7.34651 2.29166 7.34651 2.36223C7.38158 2.83774 7.99992 3.33036 7.68147 3.91206C7.43566 4.20344 7.08863 4.39182 6.70959 4.43964" fill="#B3B3B3"/>
<path d="M42.6474 2.01685H47.7372V3.55365H44.3188V5.08841H47.4827V6.62659H44.3188V9.57277H42.6467L42.6474 2.01685Z" fill="#B3B3B3"/>
<path d="M49.8589 6.98014C49.8431 7.3284 49.9643 7.66907 50.1966 7.92977C50.7351 8.41491 51.555 8.41491 52.0936 7.92977C52.5443 7.37629 52.5443 6.58399 52.0936 6.03051C51.5544 5.54697 50.7357 5.54697 50.1966 6.03051C49.9643 6.29121 49.8431 6.63188 49.8589 6.98014ZM48.2508 6.98014C48.2452 6.59574 48.322 6.21457 48.4757 5.86196C48.62 5.53595 48.8309 5.24336 49.0947 5.00277C49.3627 4.76126 49.6759 4.57498 50.0164 4.45465C50.7479 4.19806 51.5456 4.19806 52.2772 4.45465C52.6181 4.57493 52.9319 4.76122 53.2002 5.00277C53.4637 5.24368 53.6745 5.53618 53.8192 5.86196C54.1182 6.57957 54.1182 7.3862 53.8192 8.1038C53.6748 8.42975 53.464 8.72231 53.2002 8.963C52.9322 9.20495 52.6184 9.39129 52.2772 9.51112C51.5456 9.7677 50.7479 9.7677 50.0164 9.51112C49.6756 9.39124 49.3623 9.20489 49.0947 8.963C48.8306 8.72261 48.6198 8.42997 48.4757 8.1038C48.3213 7.75043 48.2443 7.36826 48.2501 6.98288" fill="#B3B3B3"/>
<path d="M59.6972 9.57377H58.1544V8.86874H58.133C58.0702 8.97588 57.9967 9.07642 57.9136 9.16884C57.8183 9.27277 57.7081 9.36232 57.5869 9.43469C57.4491 9.51708 57.3015 9.58177 57.1474 9.62721C56.9735 9.67861 56.793 9.70401 56.6116 9.70259C56.271 9.71546 55.932 9.65152 55.6197 9.51554C55.3787 9.40099 55.1745 9.22158 55.0303 8.99755C54.8859 8.7592 54.7922 8.49379 54.7552 8.21784C54.7071 7.89647 54.6841 7.57188 54.6864 7.24698V4.38574H56.2945V6.92631C56.2945 7.07569 56.3001 7.23053 56.3103 7.39017C56.3191 7.54196 56.3513 7.69149 56.406 7.83347C56.456 7.96434 56.5415 8.07886 56.6529 8.1644C56.7934 8.2578 56.9609 8.30258 57.1296 8.29184C57.3044 8.29923 57.4784 8.26071 57.6336 8.18015C57.7576 8.10957 57.8595 8.00617 57.928 7.88143C57.9976 7.75012 58.0429 7.60737 58.0615 7.46006C58.0834 7.29722 58.0942 7.13309 58.0939 6.9688V4.38574H59.702L59.6972 9.57377Z" fill="#B3B3B3"/>
<path d="M60.5465 4.38749H62.0893V5.09184H62.112C62.1686 4.98265 62.2406 4.88208 62.3258 4.79311C62.4239 4.68982 62.5356 4.60039 62.6581 4.52726C62.7958 4.44502 62.9436 4.38033 63.0975 4.33473C63.2715 4.28334 63.452 4.25795 63.6333 4.25936C63.9717 4.24575 64.3087 4.30974 64.6183 4.44641C64.8581 4.56134 65.0608 4.74076 65.2036 4.9644C65.3492 5.20302 65.4457 5.46804 65.4876 5.74411C65.5385 6.06522 65.5634 6.3899 65.5619 6.71497V9.57551H63.9539V7.03425C63.9539 6.88489 63.9484 6.73005 63.9381 6.57041C63.9293 6.41833 63.8968 6.26854 63.8418 6.12642C63.7374 5.82423 63.4372 5.63405 63.1182 5.66806C62.9434 5.66053 62.7697 5.69905 62.6147 5.77973C62.4907 5.85021 62.3887 5.95363 62.3203 6.07847C62.2504 6.20986 62.2051 6.3529 62.1869 6.50052C62.165 6.6629 62.1541 6.82657 62.1546 6.99041V9.57345H60.5465V4.38749Z" fill="#B3B3B3"/>
<path d="M70.3863 6.98179C70.4015 6.63333 70.2807 6.29254 70.0493 6.03079C69.5099 5.54756 68.6916 5.54756 68.1523 6.03079C67.7022 6.58498 67.7022 7.37723 68.1523 7.93143C68.6916 8.41466 69.5099 8.41466 70.0493 7.93143C70.2808 7.67027 70.4016 7.32986 70.3863 6.98179ZM71.865 9.5758H70.3863V8.89064H70.3649C70.2918 8.99394 70.2073 9.08884 70.1132 9.17362C70.003 9.27511 69.8807 9.36299 69.7493 9.43535C69.6031 9.51638 69.4484 9.58095 69.2878 9.62788C69.1192 9.678 68.9439 9.70339 68.7679 9.70325C68.408 9.7081 68.0509 9.64076 67.7176 9.50523C67.4119 9.37928 67.1364 9.19012 66.9095 8.95026C66.6798 8.70555 66.5029 8.41666 66.3894 8.10135C66.2647 7.75553 66.203 7.39033 66.2072 7.02291C66.2057 6.66906 66.2619 6.31734 66.3736 5.98146C66.4774 5.66267 66.6369 5.36462 66.8448 5.10103C67.0464 4.84516 67.3002 4.63495 67.5897 4.48438C67.8977 4.32767 68.2397 4.24885 68.5856 4.25486C68.9053 4.25216 69.2229 4.30478 69.5245 4.41039C69.8101 4.51067 70.0584 4.69515 70.2364 4.93933H70.2576V1.50464H71.8657L71.865 9.5758Z" fill="#B3B3B3"/>
<path d="M75.7307 7.30307C75.6089 7.30307 75.4556 7.30855 75.2754 7.31883C75.0972 7.32877 74.9209 7.35935 74.7499 7.40996C74.5932 7.45371 74.4474 7.52981 74.3221 7.63331C74.2017 7.73783 74.1362 7.89171 74.1447 8.05059C74.1367 8.22857 74.2329 8.39505 74.3916 8.47743C74.548 8.56717 74.7255 8.61442 74.906 8.61447C75.0599 8.61479 75.213 8.59333 75.3607 8.55075C75.5001 8.51093 75.6323 8.44967 75.7528 8.36918C75.8664 8.29211 75.9606 8.18986 76.0279 8.07045C76.098 7.93897 76.133 7.79176 76.1297 7.64291V7.30307H75.7307ZM76.1269 8.92621H76.1056C75.9368 9.19515 75.6872 9.40422 75.3923 9.52367C75.0949 9.64504 74.7763 9.70674 74.4548 9.70526C74.2172 9.70613 73.9807 9.67172 73.7533 9.60315C73.5371 9.54053 73.3349 9.43726 73.1576 9.29894C72.9866 9.16374 72.8478 8.99245 72.7512 8.79741C72.6469 8.5813 72.5952 8.34374 72.6005 8.10402C72.5923 7.8416 72.6494 7.58124 72.7669 7.34624C72.8749 7.14291 73.0292 6.96761 73.2175 6.83442C73.4147 6.69461 73.6336 6.58791 73.8654 6.51857C74.1126 6.44267 74.3656 6.38743 74.6219 6.35345C74.881 6.31721 75.1419 6.29594 75.4034 6.28972C75.6653 6.28218 75.9054 6.27875 76.1269 6.27875C76.1377 6.01742 76.0246 5.76621 75.8215 5.60046C75.618 5.43366 75.3614 5.34473 75.0979 5.34968C74.8471 5.34644 74.5992 5.4033 74.375 5.5155C74.1536 5.62862 73.9555 5.78227 73.7912 5.96838L72.9335 5.09344C73.2354 4.81423 73.593 4.60155 73.983 4.46926C74.383 4.33179 74.8034 4.26231 75.2266 4.2637C75.6216 4.25174 76.0155 4.31164 76.3889 4.44048C76.6742 4.54455 76.9259 4.72353 77.1174 4.95846C77.3082 5.20437 77.4387 5.49132 77.4984 5.79641C77.5742 6.17417 77.6099 6.55884 77.605 6.94405V9.58054H76.1262L76.1269 8.92621Z" fill="#B3B3B3"/>
<path d="M81.9333 5.66719H80.5185V7.39652C80.5179 7.52656 80.525 7.65651 80.5398 7.7857C80.5499 7.89266 80.5826 7.99629 80.6355 8.0899C80.6887 8.17898 80.7695 8.24847 80.8658 8.28792C80.9971 8.33909 81.1376 8.36242 81.2785 8.35643C81.3916 8.35393 81.5043 8.34455 81.6162 8.32834C81.7315 8.32051 81.8415 8.27798 81.932 8.20638V9.54107C81.7518 9.60497 81.5648 9.64774 81.3748 9.66852C81.1862 9.68934 80.9965 9.69987 80.8067 9.70003C80.554 9.702 80.302 9.67348 80.0563 9.61507C79.8405 9.56314 79.6368 9.47008 79.4566 9.341C79.2838 9.21531 79.1456 9.04824 79.0548 8.85523C78.9519 8.6277 78.9022 8.3798 78.9097 8.13033V5.66376H77.8815V4.38251H78.9097V2.84912H80.5178V4.38594H81.9333V5.66719Z" fill="#B3B3B3"/>
<path d="M82.6247 4.38614H84.2341V9.57417H82.6247V4.38614ZM82.4953 2.75272C82.494 2.30913 82.8075 1.92637 83.244 1.83856C83.6805 1.75075 84.1185 1.98234 84.2901 2.39168C84.4617 2.80103 84.319 3.27411 83.9494 3.52157C83.5799 3.76904 83.0863 3.72194 82.7705 3.40911C82.5912 3.23786 82.4916 3.00009 82.4953 2.75272Z" fill="#B3B3B3"/>
<path d="M86.5414 6.98291C86.5256 7.33107 86.6465 7.67167 86.8785 7.93255C87.4171 8.41737 88.2367 8.41737 88.7754 7.93255C89.2262 7.37908 89.2262 6.58676 88.7754 6.03329C88.2361 5.55006 87.4178 5.55006 86.8785 6.03329C86.6465 6.29417 86.5256 6.63477 86.5414 6.98291ZM84.9333 6.98291C84.9276 6.59754 85.0045 6.21541 85.1589 5.862C85.3033 5.53598 85.5141 5.24341 85.7779 5.00281C86.0457 4.76133 86.3586 4.57505 86.699 4.45468C87.4307 4.19805 88.2286 4.19805 88.9604 4.45468C89.301 4.575 89.6142 4.76129 89.8821 5.00281C90.1458 5.24357 90.3565 5.53611 90.5012 5.862C90.8001 6.57962 90.8001 7.38622 90.5012 8.10384C90.3569 8.42989 90.146 8.72248 89.8821 8.96303C89.6145 9.20494 89.3011 9.39127 88.9604 9.51116C88.2286 9.76779 87.4307 9.76779 86.699 9.51116C86.3584 9.39123 86.0453 9.20488 85.7779 8.96303C85.5139 8.72267 85.303 8.43003 85.1589 8.10384C85.0044 7.75048 84.9275 7.36831 84.9333 6.98291Z" fill="#B3B3B3"/>
<path d="M90.511 4.38749H92.0537V5.09184H92.0764C92.1331 4.98264 92.2051 4.88205 92.2903 4.79311C92.3883 4.68982 92.5001 4.60037 92.6226 4.52726C92.7603 4.44502 92.908 4.38033 93.062 4.33473C93.2359 4.28334 93.4165 4.25795 93.5978 4.25936C93.9362 4.24575 94.2732 4.30974 94.5828 4.44641C94.8225 4.56134 95.0253 4.74076 95.1681 4.9644C95.3137 5.20301 95.4102 5.46804 95.4521 5.74411C95.5031 6.06522 95.5279 6.3899 95.5264 6.71497V9.57551H93.9183V7.03425C93.9183 6.88489 93.9129 6.73005 93.9025 6.57041C93.8937 6.41833 93.8613 6.26854 93.8063 6.12642C93.7019 5.82423 93.4016 5.63405 93.0827 5.66806C92.9079 5.66053 92.7342 5.69905 92.5792 5.77973C92.4552 5.85021 92.3532 5.95363 92.2848 6.07847C92.215 6.20993 92.1697 6.35294 92.1514 6.50052C92.1298 6.66293 92.1192 6.82659 92.1198 6.99041V9.57345H90.511V4.38749Z" fill="#B3B3B3"/>
<path d="M100.394 5.66932H99.3322V4.38808H100.394V3.46996C100.392 3.19958 100.417 2.92971 100.469 2.66421C100.513 2.42321 100.612 2.19537 100.757 1.99756C100.918 1.79204 101.132 1.6348 101.376 1.54329C101.714 1.42175 102.072 1.36569 102.431 1.37817C102.596 1.37817 102.757 1.38434 102.912 1.39941C103.067 1.41295 103.221 1.43769 103.372 1.47341L103.298 2.82934C103.215 2.79586 103.129 2.76905 103.041 2.74917C102.953 2.72993 102.863 2.72074 102.773 2.72176C102.566 2.70654 102.361 2.76535 102.194 2.88757C102.039 3.0775 101.97 3.32256 102.002 3.56519V4.38739H103.191V5.66863H102.002V9.57404H100.394V5.66932Z" fill="#B3B3B3"/>
<path d="M105.217 6.98291C105.201 7.33118 105.322 7.67184 105.555 7.93255C106.093 8.41768 106.913 8.41768 107.452 7.93255C107.902 7.37908 107.902 6.58676 107.452 6.03329C106.912 5.54974 106.094 5.54974 105.555 6.03329C105.322 6.294 105.201 6.63466 105.217 6.98291ZM103.609 6.98291C103.603 6.59754 103.68 6.21541 103.834 5.862C103.979 5.536 104.19 5.24342 104.453 5.00281C104.721 4.76129 105.035 4.575 105.375 4.45468C106.107 4.19805 106.905 4.19805 107.637 4.45468C107.977 4.57505 108.29 4.76133 108.558 5.00281C108.821 5.24345 109.032 5.53602 109.177 5.862C109.476 6.57961 109.476 7.38623 109.177 8.10384C109.033 8.42999 108.822 8.72261 108.558 8.96303C108.29 9.2049 107.977 9.39124 107.637 9.51116C106.905 9.76779 106.107 9.76779 105.375 9.51116C105.034 9.39127 104.721 9.20494 104.453 8.96303C104.189 8.72266 103.979 8.43002 103.834 8.10384C103.68 7.75048 103.603 7.36831 103.609 6.98291Z" fill="#B3B3B3"/>
<path d="M110.339 4.38745H111.947V5.21992H111.969C112.111 4.93391 112.32 4.68656 112.579 4.49914C112.844 4.33083 113.155 4.24694 113.469 4.25865C113.562 4.25865 113.654 4.26276 113.744 4.26893C113.831 4.27557 113.917 4.29026 114.001 4.31277V5.7749C113.891 5.74001 113.778 5.71343 113.663 5.69543C113.548 5.67715 113.432 5.66822 113.315 5.6687C113.066 5.65768 112.817 5.70119 112.586 5.79614C112.417 5.87351 112.274 5.99765 112.174 6.15379C112.073 6.321 112.009 6.50797 111.987 6.70192C111.957 6.93573 111.943 7.17126 111.945 7.40695V9.57342H110.336L110.339 4.38745Z" fill="#B3B3B3"/>
<path d="M42.5462 13.907H44.8158L48.0424 19.1595H48.0638V13.907H49.7392V21.4657H47.554L44.2368 16.0851H44.2154V21.4657H42.5433L42.5462 13.907Z" fill="#B3B3B3"/>
<path d="M53.6045 19.1155C53.4827 19.1155 53.3294 19.121 53.1485 19.1313C52.9703 19.1414 52.7939 19.1722 52.6229 19.2231C52.4663 19.2666 52.3205 19.3425 52.1951 19.4458C52.0748 19.5503 52.0093 19.7041 52.0177 19.863C52.0097 20.0411 52.106 20.2076 52.2646 20.2899C52.4211 20.3797 52.5985 20.427 52.7791 20.427C52.933 20.4274 53.086 20.406 53.2337 20.3633C53.373 20.3235 53.5049 20.2622 53.6251 20.1817C53.7386 20.1044 53.8327 20.0022 53.9002 19.8829C53.9701 19.7514 54.0053 19.6042 54.002 19.4554V19.1128L53.6045 19.1155ZM54.0007 20.7387H53.9793C53.8107 21.0078 53.5611 21.217 53.266 21.3361C52.9689 21.4577 52.6505 21.5194 52.3292 21.5177C52.0916 21.5184 51.8552 21.484 51.6277 21.4156C51.4116 21.3528 51.2094 21.2496 51.0321 21.1114C50.861 20.9763 50.7221 20.805 50.6256 20.6099C50.5213 20.3938 50.4697 20.1562 50.4749 19.9165C50.4667 19.654 50.5239 19.3937 50.6414 19.1587C50.7493 18.9554 50.9036 18.7801 51.0919 18.6469C51.2891 18.5071 51.508 18.4004 51.7398 18.331C51.987 18.2551 52.24 18.1999 52.4965 18.1659C52.7554 18.1299 53.0163 18.1087 53.2778 18.1022C53.5399 18.0946 53.7798 18.0919 54.002 18.0919C54.013 17.8304 53.9 17.5788 53.6966 17.4129C53.4932 17.2461 53.2365 17.1571 52.973 17.1621C52.7222 17.1591 52.4744 17.216 52.2501 17.328C52.0287 17.4411 51.8307 17.5947 51.6663 17.7809L50.8093 16.9059C51.1113 16.6269 51.4689 16.4142 51.8588 16.2818C52.2588 16.1442 52.6792 16.0748 53.1024 16.0762C53.4977 16.0643 53.8917 16.1243 54.2655 16.253C54.5505 16.3573 54.8018 16.5362 54.9932 16.771C55.1843 17.0167 55.3147 17.3037 55.3742 17.6089C55.45 17.9867 55.4857 18.3713 55.4808 18.7566V21.393H54.0027L54.0007 20.7387Z" fill="#B3B3B3"/>
<path d="M59.7985 17.5227H58.3837V19.2519C58.3834 19.382 58.3904 19.5118 58.405 19.6411C58.4156 19.7481 58.4484 19.8517 58.5014 19.9454C58.5546 20.0345 58.6355 20.1039 58.7317 20.1433C58.863 20.1945 59.0036 20.2179 59.1445 20.2118C59.2573 20.2096 59.3698 20.2005 59.4814 20.1844C59.597 20.1767 59.7073 20.1342 59.7979 20.0624V21.3972C59.6176 21.4613 59.4304 21.5042 59.24 21.5246C59.0516 21.5459 58.8622 21.5565 58.6726 21.5568C58.4197 21.559 58.1675 21.5304 57.9215 21.4719C57.7059 21.4197 57.5022 21.3266 57.3218 21.1978C57.1491 21.072 57.011 20.9049 56.9201 20.712C56.8172 20.4841 56.7676 20.2361 56.7749 19.9865V17.5227H55.7467V16.2441H56.7749V14.7073H58.383V16.2441H59.7979L59.7985 17.5227Z" fill="#B3B3B3"/>
<path d="M60.4692 16.2863H62.0773V21.4743H60.4692V16.2863ZM60.3399 14.6522C60.3385 14.2086 60.652 13.8259 61.0885 13.738C61.5251 13.6502 61.963 13.8818 62.1346 14.2911C62.3062 14.7005 62.1636 15.1735 61.794 15.421C61.4244 15.6685 60.9307 15.6214 60.6151 15.3086C60.4358 15.1373 60.3362 14.8996 60.3399 14.6522Z" fill="#B3B3B3"/>
<path d="M64.4204 18.7957C64.4045 19.144 64.5257 19.4847 64.7581 19.7454C65.2968 20.2302 66.1163 20.2302 66.655 19.7454C67.1045 19.1914 67.1045 18.4 66.655 17.8461C66.1157 17.3629 65.2974 17.3629 64.7581 17.8461C64.5257 18.1069 64.4045 18.4475 64.4204 18.7957ZM62.8123 18.7957C62.8068 18.4104 62.8836 18.0283 63.0378 17.6749C63.1825 17.3489 63.3932 17.0565 63.6568 16.8157C63.9247 16.574 64.2379 16.3876 64.5786 16.2675C65.3103 16.0104 66.1083 16.0104 66.84 16.2675C67.1809 16.3875 67.4944 16.5739 67.7624 16.8157C68.0257 17.0567 68.2365 17.3492 68.3814 17.6749C68.6799 18.3925 68.6799 19.1989 68.3814 19.9167C68.2367 20.2425 68.0259 20.535 67.7624 20.7759C67.4946 21.0179 67.1811 21.2043 66.84 21.324C66.1082 21.5807 65.3103 21.5807 64.5786 21.324C64.2378 21.2042 63.9244 21.0178 63.6568 20.7759C63.3931 20.5352 63.1824 20.2426 63.0378 19.9167C62.8835 19.5633 62.8067 19.1811 62.8123 18.7957Z" fill="#B3B3B3"/>
<path d="M69.2506 16.2046H70.7934V16.909H70.8153C70.8718 16.7998 70.9436 16.6991 71.0287 16.6102C71.1268 16.5071 71.2386 16.4176 71.3608 16.3444C71.4986 16.2622 71.6464 16.1974 71.8003 16.1519C71.9743 16.1005 72.1548 16.0751 72.3361 16.0765C72.6747 16.0629 73.0119 16.1268 73.3218 16.2636C73.5615 16.3787 73.7641 16.558 73.9071 16.7815C74.0528 17.0201 74.1494 17.2852 74.1912 17.5612C74.2425 17.8823 74.2675 18.207 74.2661 18.5321V21.3934H72.658V18.8514C72.658 18.702 72.6525 18.5472 72.6416 18.3875C72.633 18.2357 72.6008 18.0862 72.5459 17.9443C72.4953 17.8139 72.4102 17.6996 72.2997 17.6133C72.159 17.5197 71.9912 17.4748 71.8223 17.4858C71.6473 17.4783 71.4735 17.5168 71.3182 17.5975C71.1943 17.6681 71.0924 17.7716 71.0238 17.8963C70.954 18.0278 70.9089 18.1708 70.8903 18.3183C70.8686 18.4807 70.8578 18.6444 70.858 18.8083V21.392H69.2506V16.2046Z" fill="#B3B3B3"/>
<path d="M77.9996 19.1155C77.8781 19.1155 77.726 19.1208 77.5436 19.1313C77.3657 19.1414 77.1895 19.1722 77.0188 19.2231C76.8619 19.2665 76.7159 19.3424 76.5903 19.4458C76.4701 19.5505 76.405 19.7043 76.4135 19.863C76.4055 20.0411 76.5019 20.2076 76.6604 20.2899C76.817 20.3797 76.9943 20.427 77.1749 20.427C77.3288 20.4274 77.4818 20.406 77.6295 20.3633C77.7687 20.3235 77.9008 20.2622 78.0209 20.1817C78.1347 20.1047 78.2288 20.0023 78.296 19.8829C78.3662 19.7514 78.4012 19.6043 78.3978 19.4554V19.1128L77.9996 19.1155ZM78.3958 20.7387H78.3744C78.2061 21.0078 77.9567 21.2169 77.6619 21.3361C77.3645 21.4577 77.0459 21.5194 76.7244 21.5177C76.4867 21.5183 76.2504 21.484 76.0228 21.4156C75.8068 21.3531 75.6048 21.2499 75.4279 21.1114C75.256 20.9767 75.1166 20.8053 75.02 20.6098C74.9162 20.3937 74.8651 20.1561 74.8707 19.9165C74.862 19.6542 74.9188 19.3938 75.0359 19.1587C75.144 18.9555 75.2982 18.7802 75.4863 18.6469C75.6835 18.5071 75.9024 18.4004 76.1343 18.331C76.3814 18.2551 76.6344 18.2 76.8909 18.1659C77.1502 18.1299 77.4112 18.1086 77.6729 18.1022C77.9343 18.0946 78.1757 18.0919 78.3965 18.0919C78.4074 17.8304 78.2943 17.5789 78.0911 17.4129C77.8875 17.2462 77.631 17.1572 77.3675 17.1621C77.1167 17.1591 76.8688 17.216 76.6447 17.3279C76.4231 17.4411 76.2251 17.5947 76.0607 17.7809L75.203 16.9059C75.5053 16.6271 75.8628 16.4144 76.2526 16.2818C76.6528 16.1442 77.0734 16.0748 77.4969 16.0762C77.8919 16.0643 78.2857 16.1243 78.6592 16.253C78.9444 16.3574 79.1963 16.5363 79.3883 16.7709C79.5785 17.0172 79.7087 17.304 79.7686 17.6089C79.8444 17.9867 79.8802 18.3713 79.8752 18.7566V21.393H78.3965L78.3958 20.7387Z" fill="#B3B3B3"/>
<path d="M80.7324 13.4131H82.3405V21.4843H80.7324V13.4131Z" fill="#B3B3B3"/>
<path d="M88.1202 17.1096H89.235C89.3806 17.1101 89.5258 17.096 89.6683 17.0671C89.801 17.0417 89.9282 16.9932 90.0439 16.9239C90.1553 16.8553 90.2476 16.7599 90.3121 16.6464C90.384 16.5099 90.4191 16.3571 90.4139 16.2031C90.4219 16.0379 90.375 15.8747 90.2805 15.7385C90.1907 15.6199 90.0725 15.5257 89.9366 15.4644C89.7894 15.3978 89.632 15.3562 89.471 15.3412C89.3072 15.3241 89.1425 15.3152 88.9779 15.3145H88.1202V17.1096ZM86.448 13.907H89.268C89.6423 13.9056 90.0158 13.9412 90.383 14.0133C90.7096 14.0757 91.0209 14.2011 91.2991 14.3826C91.5621 14.5613 91.7751 14.8037 91.9182 15.087C92.0832 15.4352 92.1622 15.8177 92.1486 16.2024C92.1603 16.5836 92.0872 16.9626 91.9347 17.3123C91.8029 17.5978 91.5994 17.8443 91.3439 18.0284C91.0764 18.2137 90.7738 18.3427 90.4546 18.4072C90.0882 18.4843 89.7146 18.5219 89.3403 18.5196H88.1202V21.4659H86.448V13.907Z" fill="#B3B3B3"/>
<path d="M94.7883 19.1155C94.6666 19.1155 94.5132 19.121 94.3323 19.1313C94.1542 19.1413 93.9778 19.1721 93.8069 19.2231C93.6501 19.2665 93.5044 19.3424 93.3791 19.4458C93.2586 19.5503 93.1932 19.7041 93.2016 19.863C93.1936 20.0411 93.2899 20.2076 93.4485 20.2899C93.605 20.3797 93.7824 20.427 93.9629 20.427C94.1168 20.4274 94.2699 20.406 94.4177 20.3633C94.557 20.3234 94.6893 20.2621 94.8097 20.1817C94.9234 20.1045 95.0175 20.0023 95.0849 19.8829C95.1549 19.7514 95.1899 19.6043 95.1866 19.4554V19.1128L94.7883 19.1155ZM95.1845 20.7387H95.1632C94.9949 21.0078 94.7454 21.2169 94.4507 21.3361C94.1532 21.4577 93.8346 21.5194 93.5132 21.5177C93.2755 21.5184 93.0391 21.484 92.8115 21.4156C92.5955 21.3531 92.3936 21.2499 92.2166 21.1114C92.0448 20.9767 91.9054 20.8053 91.8088 20.6098C91.7049 20.3937 91.6538 20.1561 91.6596 19.9165C91.6509 19.6542 91.7079 19.3937 91.8253 19.1587C91.9333 18.9554 92.0876 18.7801 92.2757 18.6469C92.473 18.5071 92.6919 18.4004 92.9237 18.331C93.1708 18.2551 93.424 18.1999 93.6803 18.1659C93.9393 18.1299 94.2002 18.1086 94.4616 18.1022C94.723 18.0946 94.9644 18.0919 95.1852 18.0919C95.1961 17.8304 95.0831 17.5789 94.8799 17.4129C94.6763 17.2462 94.4198 17.1572 94.1563 17.1621C93.9055 17.1591 93.6576 17.216 93.4334 17.3279C93.212 17.4411 93.0138 17.5947 92.8494 17.7809L91.9917 16.9059C92.2938 16.6269 92.6514 16.4142 93.0413 16.2818C93.4414 16.1443 93.8618 16.0748 94.2849 16.0762C94.6799 16.0643 95.0738 16.1243 95.4473 16.253C95.7325 16.3573 95.9844 16.5363 96.1763 16.7709C96.3667 17.0171 96.4969 17.3039 96.5567 17.6089C96.6325 17.9867 96.6683 18.3713 96.6633 18.7566V21.393H95.1845V20.7387Z" fill="#B3B3B3"/>
<path d="M97.6708 16.2046H99.2789V17.0371H99.3002C99.4421 16.7511 99.6517 16.5037 99.9109 16.3163C100.176 16.148 100.486 16.0641 100.8 16.0758C100.893 16.0758 100.986 16.0799 101.075 16.0861C101.162 16.0929 101.248 16.1076 101.333 16.1299V17.5927C101.222 17.5575 101.109 17.5307 100.995 17.5125C100.88 17.4942 100.763 17.4853 100.647 17.4858C100.397 17.4748 100.149 17.5184 99.9178 17.6133C99.7486 17.6906 99.6054 17.8148 99.5051 17.971C99.4041 18.1381 99.3405 18.3251 99.3187 18.519C99.2889 18.7529 99.2747 18.9883 99.2761 19.2241V21.3906H97.668L97.6708 16.2046Z" fill="#B3B3B3"/>
<path d="M102.032 13.4131H103.64V18.3463L105.419 16.2955H107.391L105.323 18.6341L107.444 21.4843H105.418L103.661 18.8573H103.64V21.4843H102.032L102.032 13.4131Z" fill="#B3B3B3"/>
<path d="M110.938 17.7266C110.715 17.4412 110.369 17.2786 110.006 17.2888C109.868 17.2898 109.732 17.3231 109.609 17.386C109.484 17.4472 109.408 17.5777 109.417 17.7163C109.416 17.8427 109.495 17.9561 109.614 17.9993C109.776 18.0695 109.945 18.1235 110.118 18.1602C110.321 18.206 110.539 18.2555 110.771 18.3089C111 18.361 111.221 18.4456 111.426 18.5597C111.628 18.673 111.801 18.8322 111.93 19.0242C112.072 19.2603 112.14 19.5332 112.127 19.8081C112.139 20.0996 112.063 20.388 111.908 20.6358C111.763 20.8512 111.571 21.0303 111.345 21.1592C111.106 21.295 110.845 21.3888 110.574 21.4368C110.295 21.4897 110.011 21.5167 109.727 21.5176C109.355 21.5159 108.985 21.4638 108.627 21.3628C108.268 21.2678 107.942 21.0784 107.683 20.8146L108.659 19.7362C108.795 19.9092 108.964 20.0529 109.158 20.1582C109.355 20.2577 109.574 20.3071 109.795 20.3021C109.966 20.3043 110.136 20.2772 110.299 20.2219C110.433 20.1887 110.527 20.0669 110.524 19.9286C110.526 19.7965 110.448 19.6761 110.326 19.6245C110.165 19.5471 109.996 19.4896 109.822 19.4532C109.619 19.4075 109.401 19.3579 109.169 19.3045C108.941 19.2523 108.721 19.1715 108.514 19.0641C108.311 18.9568 108.138 18.8006 108.011 18.6098C107.868 18.3738 107.799 18.1007 107.812 17.8253C107.805 17.5502 107.87 17.278 108 17.0353C108.121 16.8194 108.29 16.6333 108.492 16.4906C108.706 16.3446 108.944 16.2378 109.195 16.1754C109.458 16.1085 109.728 16.0747 109.999 16.0747C110.35 16.076 110.7 16.1265 111.037 16.2247C111.378 16.3175 111.686 16.5023 111.928 16.7584L110.938 17.7266Z" fill="#B3B3B3"/>
<path d="M45.3507 27.2022C45.1572 27.197 44.9692 27.266 44.8252 27.3946C44.6809 27.5254 44.6023 27.7131 44.6106 27.9072C44.6106 28.0024 44.6331 28.0963 44.676 28.1813C44.7191 28.2715 44.7709 28.3573 44.8307 28.4375C44.8924 28.5197 44.9616 28.5964 45.0371 28.6663C45.1114 28.7349 45.1809 28.8034 45.2434 28.8589C45.3287 28.8089 45.4215 28.7499 45.5219 28.6821C45.6196 28.6153 45.7116 28.5406 45.797 28.4587C45.8804 28.3799 45.9524 28.29 46.0111 28.1916C46.0674 28.0999 46.0973 27.9948 46.0977 27.8873C46.1093 27.6931 46.0276 27.5049 45.8776 27.3802C45.727 27.2608 45.539 27.1982 45.3466 27.2035L45.3507 27.2022ZM44.8322 30.4491C44.7254 30.5129 44.6196 30.5786 44.5164 30.6472C44.4159 30.7116 44.3224 30.7864 44.2378 30.8706C44.1557 30.9524 44.0883 31.0479 44.0391 31.1528C43.9871 31.2706 43.9619 31.3983 43.9648 31.5269C43.9628 31.6599 43.992 31.7914 44.05 31.9112C44.1051 32.0215 44.1818 32.1196 44.2757 32.1997C44.475 32.3637 44.725 32.4542 44.9834 32.456C45.21 32.4618 45.4339 32.4064 45.6313 32.2956C45.824 32.1817 46.0053 32.0495 46.1727 31.901L44.8322 30.4491ZM48.1548 31.8879L49.8483 33.6694H47.7808L47.1473 32.9548C46.8631 33.2546 46.5183 33.491 46.1355 33.6481C45.7472 33.7956 45.3342 33.8681 44.9188 33.8619C44.5819 33.8632 44.2466 33.817 43.9229 33.7249C43.6121 33.6375 43.32 33.4947 43.0603 33.3034C42.8066 33.116 42.5993 32.8732 42.4544 32.5936C42.2988 32.2863 42.2216 31.9456 42.2294 31.6016C42.228 31.3664 42.2694 31.1328 42.3519 30.9123C42.433 30.6973 42.5492 30.497 42.6958 30.3196C42.8427 30.1421 43.0138 29.9861 43.2041 29.8558C43.4 29.7225 43.6131 29.6163 43.8375 29.5399C43.7155 29.4029 43.6027 29.275 43.4992 29.1562C43.3976 29.0371 43.308 28.9083 43.2316 28.7719C43.1571 28.637 43.0997 28.4934 43.061 28.3443C43.0198 28.1803 43.0002 28.0117 43.0025 27.8428C42.9938 27.539 43.0617 27.238 43.2 26.9671C43.3288 26.7303 43.5105 26.5258 43.7309 26.3697C43.9609 26.209 44.2193 26.0928 44.4923 26.0271C44.7796 25.9558 45.0746 25.9201 45.3707 25.9209C45.6531 25.9196 45.9343 25.9572 46.2064 26.0326C46.46 26.1024 46.6983 26.2185 46.9093 26.3752C47.1126 26.5288 47.279 26.7256 47.3962 26.9514C47.5238 27.2084 47.5864 27.4925 47.5785 27.779C47.5813 27.9942 47.543 28.2078 47.4657 28.4087C47.3903 28.6025 47.2875 28.7845 47.1603 28.9493C47.0318 29.1166 46.8827 29.2671 46.7167 29.3974C46.5477 29.5297 46.3665 29.6458 46.1754 29.7441L47.15 30.7801L47.8901 29.7763H49.7554L48.1548 31.8879Z" fill="#B3B3B3"/>
<path d="M52.4734 26.1174H54.2948L55.5066 30.9636H55.528L57.1134 26.1174H58.6678L60.2429 31.0923H60.2642L61.5401 26.1174H63.2335L61.0146 33.6761H59.5255L57.8535 28.445H57.8321L56.1601 33.6761H54.7226L52.4734 26.1174Z" fill="#B3B3B3"/>
<path d="M63.4969 28.4904H65.105V33.6784H63.4969V28.4904ZM63.3677 26.8569C63.3664 26.4138 63.6797 26.0314 64.1158 25.9437C64.552 25.8561 64.9895 26.0875 65.161 26.4965C65.3323 26.9055 65.1899 27.3781 64.8206 27.6255C64.4515 27.8728 63.9582 27.8258 63.6428 27.5133C63.4634 27.3421 63.3638 27.1043 63.3677 26.8569Z" fill="#B3B3B3"/>
<path d="M66.1565 25.6143H67.7646V33.6854H66.1565V25.6143Z" fill="#B3B3B3"/>
<path d="M72.6757 31.0865C72.6909 30.7379 72.5698 30.397 72.3381 30.1355C71.7987 29.6522 70.9804 29.6522 70.4411 30.1355C69.9914 30.6898 69.9914 31.4817 70.4411 32.0362C70.9804 32.5193 71.7987 32.5193 72.3381 32.0362C72.5699 31.7751 72.691 31.4346 72.6757 31.0865ZM74.1545 33.6798H72.6757V32.9946H72.6564C72.5834 33.098 72.4989 33.193 72.4047 33.2776C72.2946 33.3792 72.1723 33.467 72.0409 33.5394C71.8949 33.6206 71.74 33.6853 71.5794 33.7319C71.4108 33.7824 71.2355 33.8081 71.0594 33.808C70.6993 33.8129 70.3419 33.7456 70.0085 33.61C69.7027 33.4839 69.4273 33.2947 69.2002 33.0549C68.9706 32.8103 68.7937 32.5213 68.6803 32.206C68.5554 31.8603 68.4937 31.4951 68.498 31.1276C68.4963 30.7738 68.5525 30.422 68.6644 30.0862C68.7681 29.7673 68.9277 29.4692 69.1356 29.2057C69.3372 28.9499 69.5911 28.7396 69.8805 28.5891C70.1885 28.4323 70.5306 28.3535 70.8764 28.3596C71.1958 28.3569 71.5133 28.4095 71.8146 28.5151C72.1002 28.6152 72.3485 28.7994 72.5264 29.0433H72.5478V25.6052H74.1559L74.1545 33.6798Z" fill="#B3B3B3"/>
<path d="M75.2625 25.6143H76.8706V33.6854H75.2625V25.6143Z" fill="#B3B3B3"/>
<path d="M77.9178 28.4904H79.5259V33.6784H77.9178V28.4904ZM77.7898 26.8569C77.7886 26.4138 78.1018 26.0314 78.5379 25.9437C78.9741 25.8561 79.4118 26.0875 79.5831 26.4965C79.7546 26.9055 79.6121 27.3781 79.2429 27.6255C78.8737 27.8728 78.3805 27.8258 78.0649 27.5133C77.8857 27.3421 77.786 27.1043 77.7898 26.8569Z" fill="#B3B3B3"/>
<path d="M81.0614 29.7837H80.0001V28.5025H81.0614V27.5844C81.06 27.3141 81.0848 27.0442 81.1357 26.7787C81.1809 26.5377 81.2799 26.3098 81.4252 26.112C81.5855 25.9066 81.7998 25.7494 82.0443 25.6577C82.3825 25.5363 82.7408 25.4802 83.1001 25.4927C83.2645 25.4927 83.4247 25.4987 83.5816 25.5138C83.7365 25.5279 83.8903 25.5528 84.0417 25.5885L83.9667 26.9445C83.8833 26.911 83.7973 26.8842 83.7095 26.8643C83.6214 26.8451 83.5314 26.8358 83.4413 26.8369C83.2347 26.8214 83.0295 26.8803 82.8628 27.0027C82.7082 27.1928 82.6387 27.4378 82.6709 27.6803V28.5025H83.8601V29.7837H82.6709V33.6892H81.0614V29.7837Z" fill="#B3B3B3"/>
<path d="M87.7906 30.4496C87.8026 30.1914 87.7055 29.94 87.523 29.7562C87.3358 29.563 87.0751 29.4579 86.8056 29.467C86.6441 29.4639 86.4836 29.4933 86.3339 29.5534C86.2059 29.6052 86.0881 29.6789 85.9858 29.7713C85.8901 29.8584 85.8133 29.964 85.7602 30.0817C85.7069 30.1975 85.6759 30.3224 85.6694 30.4496H87.7906ZM89.1518 32.734C88.8938 33.0619 88.5592 33.322 88.1771 33.4917C87.7935 33.6675 87.3764 33.7586 86.9542 33.7589C86.5689 33.7612 86.1861 33.696 85.8234 33.5664C85.483 33.4465 85.1699 33.2601 84.9025 33.0182C84.6382 32.7781 84.4274 32.4854 84.2835 32.1591C83.9835 31.4417 83.9835 30.6346 84.2835 29.9172C84.4276 29.5911 84.6384 29.2985 84.9025 29.0581C85.17 28.8165 85.4831 28.6301 85.8234 28.51C86.186 28.3798 86.5688 28.3147 86.9542 28.3174C87.3016 28.3126 87.6462 28.3781 87.9674 28.51C88.2627 28.6321 88.5264 28.8195 88.7384 29.0581C88.9568 29.3092 89.1226 29.6013 89.2261 29.9172C89.3448 30.2789 89.4028 30.6577 89.398 31.0382V31.5404H85.6694C85.7203 31.8245 85.8676 32.0827 86.0869 32.2714C86.3086 32.4566 86.5908 32.5541 86.8799 32.5455C87.1154 32.5532 87.348 32.4923 87.5492 32.3701C87.7349 32.2494 87.8967 32.0956 88.0265 31.9166L89.1518 32.734Z" fill="#B3B3B3"/>
<path d="M3.44798 44.5536H0.868701V46.9455H3.7575V47.6635H0V41.0305H3.60617V41.7485H0.868701V43.8445H3.44798V44.5536Z" fill="#B3B3B3"/>
<path d="M6.92548 46.792C7.277 46.9974 7.67434 47.1126 8.08169 47.1269C8.70072 47.1269 9.0006 46.8214 9.0006 46.4185C9.0006 46.0075 8.753 45.7882 8.1209 45.5518C7.25219 45.2374 6.84571 44.7741 6.84571 44.2034C6.8643 43.7946 7.05267 43.4117 7.36572 43.1467C7.67878 42.8816 8.08835 42.7581 8.49644 42.8056C8.906 42.7946 9.31066 42.8966 9.66571 43.1003L9.45937 43.7306C9.16686 43.5461 8.82821 43.4471 8.48199 43.445C7.96821 43.445 7.6917 43.7409 7.6917 44.0945C7.6917 44.4877 7.96683 44.6659 8.59067 44.9112C9.41054 45.2168 9.84523 45.6299 9.84523 46.3383C9.84523 47.1845 9.18287 47.7772 8.06656 47.7772C7.59738 47.7828 7.13469 47.6676 6.72327 47.4428L6.92548 46.792Z" fill="#B3B3B3"/>
<path d="M14.2087 41.7622V42.9037H15.4536V43.5642H14.2087V46.1328C14.2087 46.7241 14.3758 47.0578 14.8607 47.0578C15.0305 47.0648 15.2005 47.0452 15.3642 46.9995L15.404 47.6593C15.1553 47.7405 14.8948 47.7804 14.6331 47.7772C14.2826 47.7935 13.9415 47.6613 13.6941 47.4133C13.4355 47.0498 13.3162 46.606 13.3578 46.1623V43.5642H12.6157V42.9037H13.3585V42.0185L14.2087 41.7622Z" fill="#B3B3B3"/>
<path d="M21.1528 45.2355C20.2051 45.215 19.1273 45.3835 19.1273 46.3085C19.107 46.5298 19.1852 46.7488 19.341 46.9078C19.4969 47.0668 19.7149 47.1498 19.9375 47.1348C20.4617 47.1518 20.9368 46.8293 21.113 46.3373C21.1393 46.2483 21.1525 46.1559 21.1521 46.0632L21.1528 45.2355ZM21.9927 46.5242C21.9884 46.9061 22.0115 47.2878 22.0614 47.6664H21.2815L21.2126 47.0656H21.1824C20.838 47.5229 20.2934 47.7869 19.7195 47.7747C19.3389 47.8026 18.9641 47.6702 18.6862 47.4097C18.4084 47.1492 18.253 46.7845 18.2579 46.4044C18.2579 45.2526 19.2847 44.623 21.133 44.6326V44.5346C21.1721 44.2361 21.0708 43.9362 20.8584 43.722C20.646 43.5077 20.3464 43.4031 20.0462 43.4383C19.6021 43.4339 19.166 43.5569 18.7902 43.7926L18.5929 43.2115C19.0738 42.9361 19.62 42.7941 20.1748 42.8005C21.6377 42.8005 21.9927 43.794 21.9927 44.7395V46.5242Z" fill="#B3B3B3"/>
<path d="M25.2694 45.7576C25.2671 45.864 25.2804 45.9701 25.3087 46.0727C25.4557 46.6714 25.9967 47.091 26.6156 47.0861C27.5344 47.0861 28.0675 46.3482 28.0675 45.256C28.0675 44.3009 27.5744 43.4841 26.6354 43.4841C25.8728 43.5245 25.2741 44.1506 25.2708 44.9114L25.2694 45.7576ZM24.4097 40.6785H25.2694V43.6712H25.2894C25.6271 43.1011 26.2561 42.7666 26.9195 42.8045C28.1157 42.8045 28.9452 43.7891 28.9452 45.2258C28.9452 46.9285 27.8584 47.7753 26.7916 47.7753C26.1289 47.8108 25.5038 47.467 25.1807 46.8894H25.1601L25.1112 47.667H24.3705C24.3905 47.3423 24.4097 46.8599 24.4097 46.4338V40.6785Z" fill="#B3B3B3"/>
<path d="M31.9178 40.6785H32.7872V47.667H31.9178V40.6785Z" fill="#B3B3B3"/>
<path d="M36.2502 42.9008H37.1196V47.6654H36.2502V42.9008ZM37.2187 41.5628C37.2228 41.7078 37.1656 41.8481 37.0609 41.9491C36.9563 42.0501 36.8139 42.1029 36.6684 42.0944C36.5267 42.0979 36.3898 42.0428 36.2904 41.942C36.1911 41.8412 36.1382 41.7038 36.1443 41.5628C36.1405 41.4181 36.1965 41.2782 36.2992 41.1758C36.402 41.0734 36.5425 41.0177 36.6877 41.0214C36.8319 41.0181 36.9711 41.0743 37.0723 41.1769C37.1733 41.2794 37.2273 41.4191 37.2214 41.5628" fill="#B3B3B3"/>
<path d="M40.4181 46.792C40.7696 46.9974 41.167 47.1126 41.5743 47.1269C42.1933 47.1269 42.4932 46.8214 42.4932 46.4185C42.4932 46.0075 42.2456 45.7882 41.6136 45.5518C40.7434 45.2374 40.3383 44.7741 40.3383 44.2034C40.3569 43.7946 40.5453 43.4117 40.8583 43.1467C41.1714 42.8816 41.581 42.7581 41.9891 42.8056C42.3986 42.7946 42.8033 42.8966 43.1583 43.1003L42.9519 43.7306C42.6595 43.546 42.3208 43.447 41.9746 43.445C41.4608 43.445 41.1844 43.7409 41.1844 44.0945C41.1844 44.4877 41.4595 44.6659 42.0833 44.9112C42.9032 45.2168 43.3379 45.6299 43.3379 46.3383C43.3379 47.1845 42.6755 47.7772 41.5591 47.7772C41.09 47.7828 40.6273 47.6676 40.2159 47.4428L40.4181 46.792Z" fill="#B3B3B3"/>
<path d="M46.3376 40.6785H47.2064V43.6616H47.227C47.3727 43.4024 47.5868 43.1878 47.8461 43.0409C48.1168 42.8863 48.4234 42.8049 48.7354 42.8045C49.3785 42.8045 50.4047 43.1978 50.4047 44.8326V47.667H49.536V44.9306C49.536 44.1624 49.2492 43.5232 48.4287 43.5232C47.8967 43.535 47.4292 43.8775 47.2594 44.3797C47.2136 44.5118 47.1934 44.6512 47.1995 44.7908V47.6643H46.3376V40.6785Z" fill="#B3B3B3"/>
<path d="M56.7153 44.825C56.7624 44.4761 56.6577 44.1238 56.4275 43.8568C56.1974 43.5897 55.8635 43.4334 55.5102 43.4272C54.7668 43.4737 54.1848 44.0829 54.1752 44.825H56.7153ZM54.1656 45.4416C54.1254 45.8876 54.2844 46.3288 54.6003 46.6474C54.9163 46.9661 55.357 47.13 55.8053 47.0956C56.2596 47.1108 56.7119 47.0266 57.13 46.8489L57.2882 47.4655C56.7822 47.679 56.2364 47.7832 55.6869 47.7711C55.0401 47.8093 54.4086 47.5651 53.9571 47.102C53.5057 46.639 53.279 46.0031 53.3361 45.36C53.3361 43.9211 54.1856 42.8003 55.5791 42.8003C57.1493 42.8003 57.5551 44.1596 57.5551 45.0346C57.5578 45.17 57.5477 45.3053 57.5248 45.4389L54.1656 45.4416Z" fill="#B3B3B3"/>
<path d="M63.7564 44.8422C63.7579 44.7192 63.7445 44.5967 63.7164 44.477C63.5835 43.8934 63.0612 43.4803 62.4605 43.4834C61.5614 43.4834 61.0278 44.2707 61.0278 45.3135C61.0278 46.2783 61.5093 47.0758 62.4412 47.0758C63.0563 47.0698 63.5854 46.6407 63.7157 46.0419C63.7448 45.9194 63.7582 45.7936 63.7557 45.6678L63.7564 44.8422ZM64.6161 40.6785V46.4338C64.6161 46.8572 64.636 47.3396 64.6553 47.667H63.8842L63.8444 46.8407H63.8155C63.5073 47.4385 62.8786 47.8033 62.2047 47.7753C61.0485 47.7753 60.1495 46.801 60.1495 45.354C60.1392 43.7699 61.1372 42.8045 62.2933 42.8045C62.8697 42.7669 63.4218 43.0416 63.7377 43.5232H63.7584V40.6785H64.6161Z" fill="#B3B3B3"/>
<path d="M72.0978 42.9008H72.9664V47.6654H72.0978V42.9008ZM73.0662 41.5628C73.0707 41.7079 73.0137 41.8484 72.9089 41.9496C72.8042 42.0507 72.6616 42.1033 72.5159 42.0944C72.3742 42.0978 72.2375 42.0425 72.1382 41.9417C72.0389 41.841 71.9859 41.7038 71.9918 41.5628C71.988 41.4181 72.0441 41.2782 72.1468 41.1758C72.2495 41.0734 72.39 41.0177 72.5352 41.0214C72.6794 41.0181 72.8187 41.0743 72.9198 41.1769C73.0208 41.2794 73.0749 41.4191 73.0689 41.5628" fill="#B3B3B3"/>
<path d="M76.3116 44.1883C76.3116 43.6867 76.302 43.2928 76.2723 42.8994H77.0434L77.0929 43.6867H77.1122C77.4363 43.1247 78.0436 42.7846 78.6942 42.8009C79.3566 42.8009 80.3841 43.1941 80.3841 44.8289V47.6634H79.5141V44.9173C79.5141 44.1492 79.2279 43.5093 78.408 43.5093C77.867 43.523 77.3958 43.8806 77.2388 44.3966C77.1966 44.5266 77.1763 44.6628 77.1789 44.7994V47.6634H76.3095L76.3116 44.1883Z" fill="#B3B3B3"/>
<path d="M89.4071 42.0754H89.3878L88.2707 42.6749L88.1029 42.0158L89.506 41.2683H90.2468V47.6664H89.4064L89.4071 42.0754Z" fill="#B3B3B3"/>
<path d="M94.4768 43.3857C94.4413 43.7338 94.5559 44.0806 94.792 44.3395C95.0281 44.5986 95.3637 44.7455 95.715 44.7437C96.226 44.7607 96.7076 44.5061 96.9798 44.0749C97.0361 43.9759 97.0634 43.8633 97.0589 43.7495C97.0589 42.6574 96.653 41.8201 95.7341 41.8201C95.0037 41.8201 94.4796 42.4696 94.4796 43.3857H94.4768ZM94.1631 47.0568C94.3975 47.0697 94.6324 47.0596 94.8648 47.0266C95.3677 46.9705 95.8391 46.7543 96.2088 46.41C96.6801 45.9607 96.9805 45.3627 97.0589 44.7177H97.0287C96.6548 45.1669 96.0926 45.4175 95.5072 45.396C94.9898 45.4052 94.4921 45.1992 94.1339 44.8272C93.7755 44.4554 93.5893 43.9515 93.6198 43.4371C93.5976 42.843 93.8186 42.2654 94.2319 41.8367C94.6454 41.408 95.2158 41.1648 95.8126 41.1631C97.1283 41.1631 97.9385 42.2174 97.9385 43.8708C97.9973 44.9771 97.5969 46.0587 96.8312 46.8622C96.3196 47.3436 95.6636 47.6445 94.9638 47.7186C94.6993 47.7617 94.4311 47.7782 94.1631 47.768V47.0568Z" fill="#B3B3B3"/>
<path d="M105.097 41.2664V41.8378L102.301 47.6617H101.403L104.189 42.0016V41.9817H101.047V41.2637L105.097 41.2664Z" fill="#B3B3B3"/>
<path d="M108.99 44.4966C108.99 46.1602 109.504 47.1056 110.297 47.1056C111.175 47.1056 111.6 46.0718 111.6 44.4384C111.6 42.8624 111.205 41.8293 110.297 41.8293C109.545 41.8293 108.99 42.755 108.99 44.4966ZM112.478 44.3986C112.478 46.5733 111.658 47.7744 110.244 47.7744C108.99 47.7744 108.131 46.6034 108.112 44.4857C108.112 42.3301 109.05 41.1584 110.355 41.1584C111.699 41.1584 112.48 42.3596 112.48 44.3973" fill="#B3B3B3"/>
</g>
<defs>
<clipPath id="clip0_2094_936">
<rect width="114" height="48" fill="white"/>
</clipPath>
</defs>
</svg>
