<svg width="108" height="40" viewBox="0 0 108 40" fill="none" xmlns="http://www.w3.org/2000/svg">
<g clip-path="url(#clip0_2094_1206)">
<mask id="mask0_2094_1206" style="mask-type:luminance" maskUnits="userSpaceOnUse" x="0" y="0" width="108" height="40">
<path d="M108 0H0V40H108V0Z" fill="white"/>
</mask>
<g mask="url(#mask0_2094_1206)">
<path d="M22.0851 32.4602L13.1995 6.43799H18.3118L28.0052 32.4602" fill="#B3B3B3"/>
<path d="M11.2328 9.69556L2.65698 32.4621H8.39444L16.3783 9.69556H11.2328Z" fill="#B3B3B3"/>
<path d="M9.96045 22.4009H20.6387L21.6493 26.6675H9.96045V22.4009Z" fill="#B3B3B3"/>
<mask id="mask1_2094_1206" style="mask-type:luminance" maskUnits="userSpaceOnUse" x="13" y="-1" width="46" height="44">
<path d="M58.7803 -0.622314L13.8098 1.15546L29.7442 42.7555H58.7803V-0.622314Z" fill="white"/>
</mask>
<g mask="url(#mask1_2094_1206)">
<path d="M28.6116 13.6172H33.5149V17.1166H33.5875C33.8297 16.5334 34.1566 15.9988 34.5682 15.5127C34.9799 15.0025 35.452 14.5772 35.9847 14.2371C36.5173 13.8725 37.0865 13.593 37.6918 13.3986C38.2971 13.2041 38.9268 13.1069 39.5806 13.1069C40.919 13.1069 41.619 13.6172 41.619 13.6172V18.4683C40.9161 18.1465 40.1737 18.0158 39.8347 17.9916C39.4958 17.9429 39.1689 17.9187 38.8541 17.9187C37.9098 17.9187 37.1107 18.0766 36.457 18.3925C35.8032 18.7084 35.2704 19.1459 34.8587 19.7048C34.4713 20.2394 34.1929 20.8713 34.0233 21.6003C33.8538 22.3293 33.7692 23.1193 33.7692 23.9699V32.4632H28.6116V13.6172Z" fill="#B3B3B3"/>
</g>
<mask id="mask2_2094_1206" style="mask-type:luminance" maskUnits="userSpaceOnUse" x="14" y="0" width="67" height="46">
<path d="M14.5181 0.977783L31.8689 45.0667H80.0263V1.33334L14.5181 0.977783Z" fill="white"/>
</mask>
<g mask="url(#mask2_2094_1206)">
<path d="M54.2602 32.4612H54.2616L61.2428 13.6152H55.9035L51.7992 26.5195H51.7266L47.477 13.6152H41.9924L48.5667 31.2947L48.5951 31.3661C48.6696 31.5522 48.82 31.9279 48.9814 32.3502L46.4291 39.6449H51.7969L54.2602 32.4612Z" fill="#B3B3B3"/>
</g>
<mask id="mask3_2094_1206" style="mask-type:luminance" maskUnits="userSpaceOnUse" x="14" y="0" width="89" height="37">
<path d="M102.511 0.622314L14.1638 1.86676L28.1507 36.3556H102.511V0.622314Z" fill="white"/>
</mask>
<g mask="url(#mask3_2094_1206)">
<path d="M79.9063 19.4131C79.9791 18.198 80.2822 17.1895 80.8144 16.3876C81.3472 15.5856 82.0255 14.9418 82.8487 14.4556C83.672 13.9697 84.5921 13.6294 85.609 13.435C86.6505 13.2163 87.6915 13.1069 88.7329 13.1069C89.6771 13.1069 90.6337 13.1797 91.6019 13.3255C92.5708 13.4471 93.4546 13.7022 94.2538 14.091C95.0524 14.4799 95.7066 15.0268 96.2148 15.7316C96.7235 16.412 96.978 17.3232 96.978 18.4653V28.2711V32.4632H92.4011V31.3875C92.4011 31.3875 90.3186 32.937 85.7183 32.937C84.8224 32.937 83.9864 32.8276 83.2119 32.6089C82.4368 32.3902 81.7592 32.05 81.1777 31.5883C80.5968 31.1266 80.1367 30.5432 79.7975 29.8385C79.483 29.1338 79.3254 28.2955 79.3254 27.3234C79.3254 26.2541 79.5072 25.3793 79.8704 24.6988C80.2576 23.994 80.7423 23.4351 81.3232 23.022C81.9287 22.6089 82.6065 22.305 83.3569 22.1106C84.1321 21.8919 84.9071 21.7219 85.6817 21.6004C86.4568 21.4788 87.2193 21.3815 87.9698 21.3086C88.7208 21.2357 89.3866 21.1265 89.9675 20.9807C90.549 20.8348 91.0089 20.6283 91.3481 20.361C91.6867 20.0693 91.8443 19.6561 91.8202 19.1215C91.8202 18.5626 91.7234 18.1252 91.5298 17.8092C91.3602 17.469 91.1178 17.2139 90.8033 17.0438C90.5122 16.8493 90.1611 16.7279 89.7498 16.6793C89.3625 16.6063 88.9385 16.57 88.4785 16.57C87.4616 16.57 86.6625 16.7886 86.0816 17.226C85.5001 17.6635 85.1609 18.3924 85.064 19.4131H79.9063ZM91.8202 23.2406C91.6019 23.435 91.3234 23.5931 90.9849 23.7146C90.6698 23.8118 90.3186 23.8969 89.9313 23.9698C89.5681 24.0427 89.1809 24.1034 88.769 24.152C88.3576 24.2006 87.9457 24.2614 87.5344 24.3343C87.1465 24.4072 86.7594 24.5043 86.3721 24.6259C86.0089 24.7473 85.6817 24.9175 85.3912 25.1362C85.1248 25.3307 84.9072 25.5857 84.7377 25.9016C84.568 26.2176 84.4831 26.6187 84.4831 27.1046C84.4831 27.5664 84.568 27.9551 84.7377 28.2711C84.9072 28.587 85.1369 28.8421 85.4274 29.0365C85.7184 29.2067 86.0569 29.3283 86.4448 29.4012C86.8321 29.474 87.2314 29.5104 87.6433 29.5104C88.6602 29.5104 89.4473 29.3404 90.0042 29.0001C90.5611 28.6599 90.9723 28.2588 91.2386 27.7972C91.505 27.3111 91.6627 26.8252 91.7114 26.3391C91.7836 25.8532 91.8202 25.4643 91.8202 25.1726V23.2406Z" fill="#B3B3B3"/>
</g>
<mask id="mask4_2094_1206" style="mask-type:luminance" maskUnits="userSpaceOnUse" x="11" y="-8" width="101" height="50">
<path d="M11.3311 -7.02222L28.8589 41.1556H111.895V-6.48888L11.3311 -7.02222Z" fill="white"/>
</mask>
<g mask="url(#mask4_2094_1206)">
<path d="M98.5234 32.4626H103.681V6.43555H98.5234V32.4626Z" fill="#B3B3B3"/>
</g>
<path d="M77.7379 6.4375L69.3447 32.4597H73.7267L83.0328 6.4375H77.7379Z" fill="#B3B3B3"/>
<path d="M61.488 13.6169H66.9711L73.118 32.4614H68.5148L61.488 13.6169Z" fill="#B3B3B3"/>
</g>
</g>
<defs>
<clipPath id="clip0_2094_1206">
<rect width="108" height="40" fill="white"/>
</clipPath>
</defs>
</svg>
