<svg width="244" height="32" viewBox="0 0 244 32" fill="none" xmlns="http://www.w3.org/2000/svg">
<g clip-path="url(#clip0_2094_1029)">
<path d="M0 0.188477H14.469V14.8944H0.00543144L0 0.188477Z" fill="#B3B3B3"/>
<path d="M0.00549316 16.7825H14.4718V24.4023C14.3808 27.3144 13.0882 29.3844 10.4961 30.6911C9.59584 31.1719 8.6019 31.4476 7.58218 31.4993H0.00549316V16.7825Z" fill="#B3B3B3"/>
<path d="M16.3334 14.9001C16.3062 10.028 16.3633 5.07979 16.3334 0.191394H23.5829C27.1349 0.150646 30.1764 2.72999 30.7196 6.24247C30.7712 6.57661 30.7984 6.91481 30.7997 7.253C30.8214 9.65307 30.7997 14.9014 30.7997 14.9014H16.3334V14.9001Z" fill="#B3B3B3"/>
<path d="M30.8159 31.4913L25.6073 31.5103C21.9886 31.5374 19.2431 28.9227 18.5791 25.3573C17.8038 21.2526 20.2031 18.058 23.6479 17.0529C24.2087 16.8912 24.7858 16.7975 25.3696 16.7758C26.6759 16.7282 30.8159 16.7758 30.8159 16.7758C30.8159 16.7758 30.786 26.6042 30.8159 31.4899V31.4913Z" fill="#B3B3B3"/>
<path d="M60.7457 17.4049C60.5828 12.2435 56.2662 8.19042 51.1065 8.35475C48.8932 8.4254 46.7763 9.27842 45.1334 10.7643V10.4071C45.1402 9.2621 44.2195 8.32896 43.0749 8.3208C43.0722 8.3208 43.0695 8.3208 43.0668 8.3208H38.9702V31.2932H45.1415V16.7258C46.8374 14.3936 50.103 13.8788 52.4331 15.5753C53.7841 16.5587 54.5839 18.1302 54.5825 19.8023V31.2932H60.7538L60.7457 17.4049Z" fill="#B3B3B3"/>
<path d="M122.957 8.3208H118.858V31.2932H125.032V10.4071C125.033 9.2621 124.108 8.33304 122.963 8.33166L122.957 8.3208Z" fill="#B3B3B3"/>
<path d="M76.6511 8.35474C70.2588 8.34928 65.0727 13.527 65.0664 19.9217C65.0608 26.3165 70.2368 31.5037 76.6298 31.5104C83.022 31.5159 88.2075 26.3382 88.2144 19.9434C88.2226 13.5528 83.0509 8.36422 76.6624 8.35474C76.658 8.35474 76.6555 8.35474 76.6511 8.35474ZM76.6511 25.276C73.6992 25.276 71.3069 22.8827 71.3069 19.9299C71.3069 16.977 73.6992 14.5838 76.6511 14.5838C79.6004 14.5838 81.9927 16.9743 81.9959 19.9244C81.9971 22.876 79.6073 25.2693 76.6567 25.2706H76.6542L76.6511 25.276Z" fill="#B3B3B3"/>
<path d="M115.011 19.8293C115.007 13.4917 109.866 8.35873 103.532 8.36281C101.697 8.36419 99.8863 8.80698 98.2573 9.65184V2.08764C98.2573 0.943977 97.3321 0.0162819 96.1905 0.012207H92.072V31.2917H103.646C109.939 31.2401 115.011 26.1222 115.011 19.828V19.8293ZM103.544 25.1171H98.2586V19.8293C98.2586 16.9091 100.625 14.5416 103.544 14.5416C106.464 14.5416 108.83 16.9091 108.83 19.8293C108.83 22.7496 106.464 25.1171 103.544 25.1171Z" fill="#B3B3B3"/>
<path d="M122.957 0H118.858V6.31592H125.032V2.08629C125.039 0.941277 124.118 0.00814958 122.974 0H122.957Z" fill="#B3B3B3"/>
<path d="M142.744 15.8088H139.794C139.689 15.8088 139.638 15.7559 139.638 15.6527V14.9857C139.638 14.8812 139.69 14.8296 139.794 14.8296H140.708L139.859 12.5708H136.216L135.367 14.8296H136.281C136.385 14.8296 136.437 14.8825 136.437 14.9857V15.6527C136.437 15.7573 136.385 15.8088 136.281 15.8088H133.343C133.238 15.8088 133.186 15.7559 133.186 15.6527V14.9857C133.186 14.8812 133.238 14.8296 133.343 14.8296H134.217L137.025 7.41072H136.32C136.208 7.41072 136.151 7.3577 136.151 7.25449V6.58757C136.151 6.48304 136.208 6.4314 136.32 6.4314H138.097C138.305 6.4314 138.464 6.47488 138.573 6.56178C138.682 6.64875 138.775 6.79268 138.854 6.99234L141.857 14.8296H142.746C142.85 14.8296 142.902 14.8825 142.902 14.9857V15.6527C142.902 15.7573 142.849 15.8088 142.746 15.8088H142.744ZM139.506 11.6675L138.057 7.78832H138.017L136.555 11.6675H139.506Z" fill="#B3B3B3"/>
<path d="M145.76 15.8088H145.029C144.917 15.8088 144.859 15.7558 144.859 15.6526V12.5965C144.859 12.4837 144.917 12.4267 145.029 12.4267H145.852C145.957 12.4267 146.009 12.4837 146.009 12.5965V12.8709C146.009 13.0366 146.109 13.2553 146.308 13.531C146.508 13.8053 146.709 14.0295 146.91 14.2033C147.109 14.3785 147.377 14.528 147.712 14.6543C148.048 14.7806 148.41 14.8444 148.803 14.8444C149.474 14.8444 149.998 14.7059 150.377 14.4261C150.756 14.1463 150.944 13.7592 150.944 13.2634C150.944 12.9768 150.837 12.731 150.624 12.5258C150.411 12.3221 150.133 12.1578 149.794 12.0356C149.455 11.9133 149.078 11.8006 148.664 11.696C148.25 11.5914 147.838 11.4718 147.423 11.3374C147.009 11.2015 146.633 11.0413 146.293 10.8538C145.954 10.6664 145.677 10.4056 145.464 10.0701C145.251 9.73463 145.144 9.34071 145.144 8.88706C145.144 8.15634 145.42 7.55053 145.973 7.0711C146.525 6.59298 147.267 6.35254 148.198 6.35254C149.373 6.35254 150.236 6.69619 150.784 7.38482L150.758 6.57528C150.758 6.47069 150.815 6.41911 150.928 6.41911H151.66C151.764 6.41911 151.816 6.47207 151.816 6.57528V9.42222C151.816 9.52681 151.763 9.57845 151.66 9.57845H150.837C150.732 9.57845 150.681 9.52543 150.681 9.42222V9.05685C150.681 8.69964 150.481 8.33836 150.081 7.97293C149.68 7.60757 149.092 7.42423 148.318 7.42423C147.744 7.42423 147.279 7.56139 146.928 7.83577C146.574 8.11015 146.399 8.46059 146.399 8.88706C146.399 9.1927 146.508 9.45346 146.726 9.67081C146.943 9.88948 147.226 10.0633 147.574 10.1937C147.922 10.3241 148.306 10.4436 148.723 10.5536C149.141 10.6623 149.559 10.7818 149.976 10.9122C150.394 11.044 150.777 11.2002 151.124 11.3822C151.473 11.5656 151.756 11.8155 151.973 12.1333C152.191 12.4512 152.299 12.8274 152.299 13.262C152.299 14.0281 152.025 14.6597 151.476 15.1555C150.928 15.6512 150.109 15.8998 149.021 15.8998C148.22 15.8998 147.559 15.7395 147.036 15.4176C146.514 15.0957 146.136 14.7466 145.9 14.3717L145.912 15.6512C145.912 15.7558 145.861 15.8074 145.756 15.8074L145.76 15.8088Z" fill="#B3B3B3"/>
<path d="M155.762 15.8088H155.031C154.919 15.8088 154.862 15.7558 154.862 15.6526V12.5965C154.862 12.4837 154.919 12.4267 155.031 12.4267H155.854C155.959 12.4267 156.01 12.4837 156.01 12.5965V12.8709C156.01 13.0366 156.11 13.2553 156.311 13.531C156.51 13.8053 156.711 14.0295 156.912 14.2033C157.112 14.3785 157.379 14.528 157.714 14.6543C158.05 14.7806 158.412 14.8444 158.804 14.8444C159.476 14.8444 159.999 14.7059 160.378 14.4261C160.757 14.1463 160.946 13.7592 160.946 13.2634C160.946 12.9768 160.839 12.731 160.625 12.5258C160.412 12.3221 160.135 12.1578 159.796 12.0356C159.456 11.9133 159.08 11.8006 158.666 11.696C158.252 11.5914 157.839 11.4718 157.425 11.3374C157.011 11.2015 156.635 11.0413 156.295 10.8538C155.956 10.6664 155.679 10.4056 155.466 10.0701C155.252 9.73463 155.145 9.34071 155.145 8.88706C155.145 8.15634 155.422 7.55053 155.975 7.0711C156.528 6.59298 157.269 6.35254 158.2 6.35254C159.375 6.35254 160.237 6.69619 160.786 7.38482L160.76 6.57528C160.76 6.47069 160.817 6.41911 160.93 6.41911H161.662C161.766 6.41911 161.818 6.47207 161.818 6.57528V9.42222C161.818 9.52681 161.764 9.57845 161.662 9.57845H160.839C160.734 9.57845 160.682 9.52543 160.682 9.42222V9.05685C160.682 8.69964 160.483 8.33836 160.082 7.97293C159.682 7.60757 159.094 7.42423 158.32 7.42423C157.746 7.42423 157.281 7.56139 156.93 7.83577C156.576 8.11015 156.401 8.46059 156.401 8.88706C156.401 9.1927 156.51 9.45346 156.727 9.67081C156.944 9.88948 157.228 10.0633 157.576 10.1937C157.923 10.3241 158.308 10.4436 158.724 10.5536C159.143 10.6623 159.561 10.7818 159.978 10.9122C160.396 11.044 160.779 11.2002 161.127 11.3822C161.474 11.5656 161.758 11.8155 161.975 12.1333C162.192 12.4512 162.301 12.8274 162.301 13.262C162.301 14.0281 162.027 14.6597 161.478 15.1555C160.93 15.6512 160.111 15.8998 159.023 15.8998C158.222 15.8998 157.561 15.7395 157.038 15.4176C156.515 15.0957 156.138 14.7466 155.902 14.3717L155.913 15.6512C155.913 15.7558 155.862 15.8074 155.758 15.8074L155.762 15.8088Z" fill="#B3B3B3"/>
<path d="M171.874 15.8088H164.941C164.828 15.8088 164.771 15.7559 164.771 15.6527V14.9857C164.771 14.8812 164.828 14.8296 164.941 14.8296H165.933V7.41072H164.941C164.828 7.41072 164.771 7.3577 164.771 7.25449V6.58757C164.771 6.48304 164.828 6.4314 164.941 6.4314H171.874C171.987 6.4314 172.043 6.48435 172.043 6.58757V8.69022C172.043 8.80291 171.987 8.85995 171.874 8.85995H171.169C171.065 8.85995 171.013 8.80429 171.013 8.69022V7.41072H167.07V10.6502H170.373C170.486 10.6502 170.543 10.7031 170.543 10.8064V11.4733C170.543 11.5779 170.486 11.6295 170.373 11.6295H167.07V14.8296H170.999V13.5501C170.999 13.4455 171.057 13.3938 171.169 13.3938H171.874C171.987 13.3938 172.043 13.4469 172.043 13.5501V15.6527C172.043 15.7573 171.987 15.8088 171.874 15.8088Z" fill="#B3B3B3"/>
<path d="M180.218 15.8088H177.175C177.062 15.8088 177.005 15.7517 177.005 15.639V14.9992C177.005 14.8865 177.062 14.8294 177.175 14.8294H178.167V7.41058H175.7V8.79467C175.7 8.9169 175.639 8.97801 175.517 8.97801H174.786C174.664 8.97801 174.603 8.9169 174.603 8.79467V6.59972C174.603 6.48697 174.664 6.42993 174.786 6.42993H182.66C182.782 6.42993 182.843 6.48697 182.843 6.59972V8.79467C182.843 8.9169 182.781 8.97801 182.66 8.97801H181.916C181.804 8.97801 181.747 8.9169 181.747 8.79467V7.41058H179.305V14.8294H180.219C180.341 14.8294 180.403 14.8865 180.403 14.9992V15.639C180.403 15.7517 180.341 15.8088 180.219 15.8088H180.218Z" fill="#B3B3B3"/>
<path d="M143.932 31.418H140.917C140.812 31.418 140.76 31.365 140.76 31.2618V30.5949C140.76 30.4903 140.812 30.4387 140.917 30.4387H141.791V23.9339H141.777L139.296 30.0991C139.192 30.3613 139 30.4917 138.722 30.4917C138.444 30.4917 138.253 30.3613 138.148 30.0991L135.667 23.9339H135.641V30.4387H136.516C136.629 30.4387 136.686 30.4917 136.686 30.5949V31.2618C136.686 31.3664 136.629 31.418 136.516 31.418H133.513C133.4 31.418 133.343 31.365 133.343 31.2618V30.5949C133.343 30.4903 133.4 30.4387 133.513 30.4387H134.505V23.0199H133.513C133.4 23.0199 133.343 22.9668 133.343 22.8636V22.1967C133.343 22.0922 133.4 22.0405 133.513 22.0405H135.523C135.819 22.0405 136.024 22.1886 136.137 22.4847L138.083 27.187L138.697 28.8332H138.749C138.992 28.1541 139.194 27.6135 139.35 27.2128L141.307 22.4847C141.42 22.1886 141.629 22.0405 141.935 22.0405H143.932C144.037 22.0405 144.089 22.0935 144.089 22.1967V22.8636C144.089 22.9682 144.037 23.0199 143.932 23.0199H142.928V30.4387H143.932C144.037 30.4387 144.089 30.4917 144.089 30.5949V31.2618C144.089 31.3664 144.037 31.418 143.932 31.418Z" fill="#B3B3B3"/>
<path d="M155.579 31.418H152.628C152.523 31.418 152.472 31.365 152.472 31.2618V30.5949C152.472 30.4903 152.524 30.4387 152.628 30.4387H153.542L152.693 28.1799H149.05L148.201 30.4387H149.115C149.219 30.4387 149.272 30.4917 149.272 30.5949V31.2618C149.272 31.3664 149.219 31.418 149.115 31.418H146.177C146.072 31.418 146.021 31.365 146.021 31.2618V30.5949C146.021 30.4903 146.072 30.4387 146.177 30.4387H147.051L149.859 23.0199H149.154C149.042 23.0199 148.985 22.9668 148.985 22.8636V22.1967C148.985 22.0922 149.042 22.0405 149.154 22.0405H150.931C151.139 22.0405 151.299 22.084 151.407 22.1709C151.516 22.2579 151.609 22.4018 151.688 22.6015L154.692 30.4387H155.58C155.685 30.4387 155.736 30.4917 155.736 30.5949V31.2618C155.736 31.3664 155.683 31.418 155.58 31.418H155.579ZM152.34 27.2767L150.891 23.3975H150.852L149.389 27.2767H152.34Z" fill="#B3B3B3"/>
<path d="M165.62 31.4181H164.915C164.749 31.4181 164.619 31.3856 164.524 31.3203C164.427 31.2551 164.336 31.1519 164.25 31.0134L160.476 25.109L159.823 24.0115H159.797V30.4375H160.802C160.915 30.4375 160.972 30.4904 160.972 30.5937V31.2606C160.972 31.3652 160.915 31.4167 160.802 31.4167H157.668C157.556 31.4167 157.499 31.3638 157.499 31.2606V30.5937C157.499 30.4891 157.556 30.4375 157.668 30.4375H158.661V23.0186H157.668C157.556 23.0186 157.499 22.9656 157.499 22.8624V22.1955C157.499 22.0909 157.556 22.0393 157.668 22.0393H159.496C159.748 22.0393 159.97 22.1874 160.162 22.4835L163.885 28.309L164.628 29.5763H164.654V23.02H163.649C163.545 23.02 163.493 22.967 163.493 22.8638V22.1969C163.493 22.0923 163.546 22.0407 163.649 22.0407H166.797C166.902 22.0407 166.953 22.0936 166.953 22.1969V22.8638C166.953 22.9684 166.902 23.02 166.797 23.02H165.792V31.262C165.792 31.3665 165.735 31.4181 165.622 31.4181H165.62Z" fill="#B3B3B3"/>
<path d="M177.973 31.418H175.023C174.918 31.418 174.866 31.365 174.866 31.2618V30.5949C174.866 30.4903 174.919 30.4387 175.023 30.4387H175.937L175.088 28.1799H171.445L170.596 30.4387H171.51C171.614 30.4387 171.666 30.4917 171.666 30.5949V31.2618C171.666 31.3664 171.614 31.418 171.51 31.418H168.571C168.467 31.418 168.415 31.365 168.415 31.2618V30.5949C168.415 30.4903 168.467 30.4387 168.571 30.4387H169.446L172.254 23.0199H171.549C171.437 23.0199 171.38 22.9668 171.38 22.8636V22.1967C171.38 22.0922 171.437 22.0405 171.549 22.0405H173.325C173.534 22.0405 173.693 22.084 173.802 22.1709C173.911 22.2579 174.004 22.4018 174.083 22.6015L177.086 30.4387H177.974C178.079 30.4387 178.131 30.4917 178.131 30.5949V31.2618C178.131 31.3664 178.077 31.418 177.974 31.418H177.973ZM174.735 27.2767L173.286 23.3975H173.246L171.784 27.2767H174.735Z" fill="#B3B3B3"/>
<path d="M187.974 31.418H187.281C187.168 31.418 187.111 31.365 187.111 31.2618L187.124 30.3613C186.358 31.1274 185.337 31.5104 184.061 31.5104C182.787 31.5104 181.722 31.0663 180.869 30.1779C180.016 29.2896 179.59 28.1229 179.59 26.6777C179.59 25.712 179.806 24.8617 180.236 24.1309C180.667 23.3988 181.216 22.8555 181.882 22.4983C182.548 22.1411 183.269 21.9631 184.043 21.9631C185.375 21.9631 186.332 22.3774 186.916 23.2046L186.902 22.1981C186.885 22.0935 186.937 22.0419 187.058 22.0419H187.79C187.903 22.0419 187.96 22.0949 187.96 22.1981V24.8888C187.96 24.9934 187.903 25.045 187.79 25.045H186.967C186.863 25.045 186.811 24.9921 186.811 24.8888V24.7326C186.811 24.3496 186.548 23.9707 186.021 23.5958C185.494 23.2209 184.822 23.0348 184.003 23.0348C183.184 23.0348 182.447 23.3716 181.79 24.0467C181.133 24.7218 180.804 25.6237 180.804 26.751C180.804 27.8784 181.135 28.7708 181.797 29.4282C182.458 30.0856 183.198 30.4143 184.017 30.4143C184.835 30.4143 185.482 30.2839 185.956 30.0231C186.43 29.7623 186.786 29.4526 187.02 29.0954V28.0767H184.591C184.487 28.0767 184.435 28.021 184.435 27.9069V27.3066C184.435 27.202 184.487 27.1503 184.591 27.1503H187.974C188.078 27.1503 188.13 27.2034 188.13 27.3066V31.2645C188.13 31.3691 188.077 31.4208 187.974 31.4208V31.418Z" fill="#B3B3B3"/>
<path d="M197.845 31.418H190.912C190.799 31.418 190.742 31.365 190.742 31.2618V30.5949C190.742 30.4903 190.799 30.4387 190.912 30.4387H191.904V23.0199H190.912C190.799 23.0199 190.742 22.9668 190.742 22.8636V22.1967C190.742 22.0922 190.799 22.0405 190.912 22.0405H197.845C197.957 22.0405 198.015 22.0935 198.015 22.1967V24.2993C198.015 24.412 197.957 24.4691 197.845 24.4691H197.14C197.035 24.4691 196.984 24.4134 196.984 24.2993V23.0199H193.041V26.2593H196.345C196.457 26.2593 196.514 26.3123 196.514 26.4155V27.0824C196.514 27.187 196.457 27.2386 196.345 27.2386H193.041V30.4387H196.971V29.1592C196.971 29.0546 197.027 29.003 197.14 29.003H197.845C197.957 29.003 198.015 29.056 198.015 29.1592V31.2618C198.015 31.3664 197.957 31.418 197.845 31.418Z" fill="#B3B3B3"/>
<path d="M211.164 31.418H208.148C208.043 31.418 207.992 31.365 207.992 31.2618V30.5949C207.992 30.4903 208.043 30.4387 208.148 30.4387H209.023V23.9339H209.009L206.528 30.0991C206.424 30.3613 206.232 30.4917 205.954 30.4917C205.676 30.4917 205.484 30.3613 205.38 30.0991L202.899 23.9339H202.873V30.4387H203.747C203.86 30.4387 203.917 30.4917 203.917 30.5949V31.2618C203.917 31.3664 203.86 31.418 203.747 31.418H200.744C200.631 31.418 200.574 31.365 200.574 31.2618V30.5949C200.574 30.4903 200.631 30.4387 200.744 30.4387H201.737V23.0199H200.744C200.631 23.0199 200.574 22.9668 200.574 22.8636V22.1967C200.574 22.0922 200.631 22.0405 200.744 22.0405H202.755C203.051 22.0405 203.256 22.1886 203.369 22.4847L205.314 27.187L205.928 28.8332H205.981C206.224 28.1541 206.425 27.6135 206.581 27.2128L208.539 22.4847C208.652 22.1886 208.861 22.0405 209.166 22.0405H211.164C211.268 22.0405 211.32 22.0935 211.32 22.1967V22.8636C211.32 22.9682 211.268 23.0199 211.164 23.0199H210.159V30.4387H211.164C211.268 30.4387 211.32 30.4917 211.32 30.5949V31.2618C211.32 31.3664 211.268 31.418 211.164 31.418Z" fill="#B3B3B3"/>
<path d="M220.917 31.418H213.984C213.871 31.418 213.814 31.365 213.814 31.2618V30.5949C213.814 30.4903 213.871 30.4387 213.984 30.4387H214.976V23.0199H213.984C213.871 23.0199 213.814 22.9668 213.814 22.8636V22.1967C213.814 22.0922 213.871 22.0405 213.984 22.0405H220.917C221.03 22.0405 221.087 22.0935 221.087 22.1967V24.2993C221.087 24.412 221.03 24.4691 220.917 24.4691H220.212C220.108 24.4691 220.056 24.4134 220.056 24.2993V23.0199H216.113V26.2593H219.417C219.529 26.2593 219.586 26.3123 219.586 26.4155V27.0824C219.586 27.187 219.529 27.2386 219.417 27.2386H216.113V30.4387H220.043V29.1592C220.043 29.0546 220.1 29.003 220.212 29.003H220.917C221.03 29.003 221.087 29.056 221.087 29.1592V31.2618C221.087 31.3664 221.03 31.418 220.917 31.418Z" fill="#B3B3B3"/>
<path d="M231.769 31.4181H231.064C230.899 31.4181 230.768 31.3856 230.674 31.3203C230.577 31.2551 230.486 31.1519 230.399 31.0134L226.625 25.109L225.972 24.0115H225.947V30.4375H226.951C227.064 30.4375 227.121 30.4904 227.121 30.5937V31.2606C227.121 31.3652 227.064 31.4167 226.951 31.4167H223.818C223.705 31.4167 223.648 31.3638 223.648 31.2606V30.5937C223.648 30.4891 223.705 30.4375 223.818 30.4375H224.81V23.0186H223.818C223.705 23.0186 223.648 22.9656 223.648 22.8624V22.1955C223.648 22.0909 223.705 22.0393 223.818 22.0393H225.645C225.898 22.0393 226.119 22.1874 226.312 22.4835L230.034 28.309L230.778 29.5763H230.803V23.02H229.799C229.694 23.02 229.643 22.967 229.643 22.8638V22.1969C229.643 22.0923 229.696 22.0407 229.799 22.0407H232.946C233.051 22.0407 233.102 22.0936 233.102 22.1969V22.8638C233.102 22.9684 233.051 23.02 232.946 23.02H231.941V31.262C231.941 31.3665 231.885 31.4181 231.772 31.4181H231.769Z" fill="#B3B3B3"/>
<path d="M241.039 31.4181H237.996C237.883 31.4181 237.826 31.3611 237.826 31.2483V30.6086C237.826 30.4958 237.883 30.4388 237.996 30.4388H238.988V23.02H236.521V24.404C236.521 24.5263 236.46 24.5874 236.338 24.5874H235.607C235.485 24.5874 235.424 24.5263 235.424 24.404V22.2091C235.424 22.0963 235.485 22.0393 235.607 22.0393H243.481C243.604 22.0393 243.663 22.0963 243.663 22.2091V24.404C243.663 24.5263 243.602 24.5874 243.481 24.5874H242.737C242.624 24.5874 242.568 24.5263 242.568 24.404V23.02H240.126V30.4388H241.04C241.162 30.4388 241.223 30.4958 241.223 30.6086V31.2483C241.223 31.3611 241.162 31.4181 241.04 31.4181H241.039Z" fill="#B3B3B3"/>
</g>
<defs>
<clipPath id="clip0_2094_1029">
<rect width="244" height="32" fill="white"/>
</clipPath>
</defs>
</svg>
