<svg width="177" height="40" viewBox="0 0 177 40" fill="none" xmlns="http://www.w3.org/2000/svg">
<path d="M151.868 14.4772C153.311 14.246 153.015 14.6504 154.044 14.9124L154.218 14.6014C154.402 14.497 155.192 14.5425 155.452 14.5456C155.422 16.2196 155.725 19.4976 154.937 20.8957C154.439 21.7808 151.698 21.5672 150.802 20.8357C150.699 20.6003 150.601 20.2096 150.528 19.9508L151.852 19.9976C153.365 21.049 154.034 20.5928 154.024 18.8556C151.024 21.1608 148.782 16.1243 151.868 14.4772ZM151.862 17.7099C152.239 18.1825 152.449 18.5583 153.128 18.4931C154.596 17.7532 154.202 15.24 152.706 15.3929C151.621 15.8873 151.794 16.6508 151.862 17.7099Z" fill="#B3B3B3"/>
<path d="M75.0643 12.693L76.3325 12.6477C76.3494 14.8423 76.3552 17.0369 76.3498 19.2315L76.288 19.3786C75.9805 19.4726 75.3365 19.4104 74.9897 19.3936C74.3187 18.6184 72.8303 16.102 72.2218 15.1242C72.1204 16.4168 72.1658 18.0661 72.1697 19.3883C71.738 19.3861 71.2636 19.4203 70.8292 19.4425C70.7639 17.2976 70.8259 14.822 70.8393 12.6578C71.3371 12.6501 71.8154 12.6731 72.3123 12.694C72.588 13.0311 74.8853 16.805 75.1393 17.2757C75.0027 15.9327 75.054 14.0752 75.0643 12.693Z" fill="#B3B3B3"/>
<path d="M45.8722 23.756C48.9653 23.4101 49.7617 29.0556 46.1568 29.5187C43.4611 29.6178 42.5451 26.6478 43.9464 24.6466C44.4061 23.9902 45.1136 23.8257 45.8722 23.756ZM44.6446 28.4532C45.1472 28.7226 45.6399 28.9732 46.239 28.8507C46.8501 28.6056 47.2972 28.4049 47.535 27.7443C48.1255 26.1031 47.4552 24.1972 45.4911 24.3497C43.8183 25.125 43.71 27.0491 44.6446 28.4532Z" fill="#B3B3B3"/>
<path d="M46.1795 12.6845C46.5866 12.6605 47.0921 12.6642 47.5072 12.6565C48.3464 14.4279 49.6131 17.5819 50.325 19.4463C49.8919 19.4028 49.4285 19.4253 48.9883 19.3839C48.2871 19.318 48.5165 18.6129 48.274 18.1007C47.9804 17.8437 48.0283 17.9176 47.5878 17.8469C46.8523 17.8571 46.1167 17.8632 45.381 17.8652C45.2285 18.4114 45.0499 18.8441 44.8391 19.3701L43.248 19.4103C43.9912 17.9539 45.0481 14.3792 45.9547 12.8012C46.0426 12.7555 46.1176 12.7167 46.1795 12.6845ZM45.8898 16.733L46.9362 16.7201L47.5573 16.6969L47.5917 16.6065C47.3813 16.1885 46.8876 14.5509 46.7423 14.4355C46.4125 15.1359 46.1179 15.9859 45.8898 16.733Z" fill="#B3B3B3"/>
<path d="M66.117 12.6782C66.5246 12.6554 66.994 12.6735 67.4065 12.6796C68.1247 14.0111 68.7333 15.8375 69.3238 17.2572C69.6247 17.9802 69.8161 18.7159 70.2214 19.4029C69.7163 19.3905 69.1527 19.4072 68.6428 19.4114C68.1717 18.488 68.5272 17.8858 67.3723 17.8411C66.5909 17.8352 66.0519 17.8389 65.2648 17.9162C65.1087 18.3954 64.9167 18.9043 64.7464 19.3822L63.1855 19.4105C64.033 17.2782 64.764 15.0802 65.7339 12.9974C65.8014 12.8525 65.9784 12.7412 66.117 12.6782ZM65.7534 16.7356L67.0264 16.7254L67.476 16.6937C67.5313 16.3905 66.8109 14.7208 66.5331 14.4371C66.2884 15.1937 66.0434 15.999 65.7534 16.7356Z" fill="#B3B3B3"/>
<path d="M52.4628 12.5709C54.4659 12.3291 55.545 12.525 56.1447 14.5378L54.6947 14.5752L54.3874 13.852C53.7059 13.6091 52.4557 13.3895 52.1159 14.2713C52.3266 14.9254 54.7709 15.2896 55.4159 15.7965C57.2033 17.2013 56.2669 19.1692 54.2217 19.5773C52.2264 19.7304 51.2143 19.5199 50.4922 17.516C52.0534 16.9084 51.7243 17.3538 52.6695 18.369C53.512 18.5431 55.1349 18.4586 54.7934 17.4731C54.4659 16.5279 51.1465 16.6366 50.8698 14.9624C50.6374 13.5557 51.2189 12.9439 52.4628 12.5709Z" fill="#B3B3B3"/>
<path d="M129.579 12.6846C131.1 12.6148 132.953 12.6604 134.498 12.6572C134.495 13.0007 134.524 13.4304 134.538 13.7806C133.255 13.7544 131.972 13.7493 130.689 13.7653L130.728 15.3463C131.881 15.3741 133.036 15.3835 134.19 15.3743L134.194 16.5302C133.064 16.5502 131.896 16.536 130.762 16.537L130.704 16.5988C130.651 17.0833 130.708 17.8152 130.733 18.3233C131.77 18.3381 133.591 18.3906 134.562 18.2892L134.619 19.4649C133.832 19.3167 130.197 19.3864 129.258 19.4228C129.23 18.5464 129.109 13.2683 129.346 12.7503L129.579 12.6846Z" fill="#B3B3B3"/>
<path d="M57.4015 12.6727C58.0835 12.6682 62.4154 12.5328 62.6658 12.7915C62.6837 13.0879 62.7368 13.4699 62.6173 13.7319C62.3229 13.7963 59.3502 13.7721 58.8617 13.7755L58.874 15.3266C60.0187 15.3879 61.19 15.3652 62.3382 15.3614L62.3494 16.5301C61.3285 16.5307 60.3076 16.5425 59.2868 16.5656C59.1804 16.5433 59.0586 16.5668 58.9478 16.5797C58.7542 16.9044 58.863 17.9227 58.8876 18.3281C60.1754 18.3477 61.4635 18.3425 62.7511 18.3127L62.773 19.4047C61.0913 19.3436 59.0632 19.3769 57.3859 19.4186L57.4015 12.6727Z" fill="#B3B3B3"/>
<path d="M119.16 14.3582C120.597 14.3105 121.809 15.4205 121.888 16.8575C121.969 18.2944 120.887 19.5322 119.454 19.6443C118.358 19.73 117.323 19.1281 116.855 18.1325C116.387 17.1367 116.583 15.9548 117.347 15.1637C117.824 14.6698 118.474 14.3809 119.16 14.3582ZM119.279 18.7564C120.581 18.3702 120.5 17.2528 120.329 16.138C120.022 15.7349 119.821 15.4486 119.315 15.317C117.457 15.8514 117.603 18.1649 119.279 18.7564Z" fill="#B3B3B3"/>
<path d="M82.5916 12.5774C84.3562 12.388 85.734 12.5606 86.2979 14.4719C85.8674 14.5413 85.392 14.6533 84.9616 14.7445C82.8833 11.3978 80.6347 15.8726 82.2167 17.833C82.8521 18.6205 83.918 18.3221 84.6103 17.7217C84.6998 17.4682 84.8174 17.2254 84.9297 16.981C85.4375 17.0643 85.9941 17.0135 86.224 17.496C86.2215 17.7402 86.1853 17.822 86.0944 18.0484C85.5101 19.5484 83.0769 19.6411 81.8602 19.081C79.9101 18.1832 79.6811 14.9594 81.0552 13.4838C81.571 12.93 81.9216 12.8022 82.5916 12.5774Z" fill="#B3B3B3"/>
<path d="M143.445 14.4054C145.618 14.3455 145.773 15.7279 145.976 17.4428C144.922 17.4131 143.476 17.3599 142.453 17.476C142.558 17.6937 142.724 18.0453 142.844 18.2187C143.474 19.1318 144.126 18.3267 144.801 18.0415C144.88 18.008 145.373 18.1016 145.504 18.1268L145.711 18.2293L145.739 18.3704C145.02 20.4044 141.119 19.9693 141.167 17.2727C141.195 15.6075 141.647 14.5329 143.445 14.4054ZM143.988 16.6266L144.406 16.61C144.838 16.0678 144.006 15.2966 143.5 15.2996C143.099 15.5482 142.487 15.9076 142.721 16.4329C143.089 16.72 143.515 16.6414 143.988 16.6266Z" fill="#B3B3B3"/>
<path d="M107.358 14.4085C107.99 14.3723 108.388 14.4785 108.99 14.6238C109.997 15.5768 110.004 16.0916 110.171 17.4132C108.954 17.4605 107.884 17.3507 106.592 17.4571C106.75 17.7802 106.988 18.1608 107.186 18.403C107.725 19.0588 108.303 18.3488 108.821 18.0605C108.985 18.0694 109.126 18.0772 109.247 18.0839C109.624 18.1452 109.627 18.0806 109.839 18.3068C109.946 19.1048 109.019 19.3615 108.416 19.505C105.848 20.1169 104.548 17.5204 105.735 15.452C106.082 14.8467 106.682 14.5508 107.358 14.4085ZM107.929 16.6312C108.342 16.6201 108.397 16.6924 108.659 16.4681C108.742 15.8664 108.184 15.4974 107.676 15.3103C107.331 15.5065 106.846 15.823 106.728 16.2281C106.798 16.5033 106.741 16.4081 106.992 16.6017C107.283 16.6759 107.626 16.6442 107.929 16.6312Z" fill="#B3B3B3"/>
<path d="M89.2554 14.4109C91.4095 14.381 91.6801 15.6555 91.7926 17.4784C90.7393 17.3762 89.4335 17.3907 88.3768 17.4276C88.8049 19.1392 89.3894 18.7546 90.6251 18.0947C90.7021 18.0537 91.1855 18.0881 91.2971 18.097L91.5573 18.1958L91.6179 18.3829C91.368 19.5876 88.7858 20.0494 87.8606 19.0818C86.373 17.5262 86.7909 14.6062 89.2554 14.4109ZM89.8555 16.6272L90.2749 16.6025C90.4496 16.403 90.4064 16.4962 90.4202 16.1981C90.2421 15.7628 89.7863 15.326 89.2995 15.3092C88.9043 15.5287 88.28 15.901 88.4823 16.4144C88.8758 16.7349 89.3462 16.6466 89.8555 16.6272Z" fill="#B3B3B3"/>
<path d="M158.639 17.9137C158.877 17.177 159.376 15.068 159.799 14.6105C160.133 14.4823 160.761 14.5647 161.141 14.5896C160.828 15.6873 160.145 17.3743 159.734 18.4884C159.109 19.7131 159.341 20.4065 158.224 21.3273C157.484 21.4464 157.168 21.479 156.419 21.4757C156.352 21.2029 156.238 20.8973 156.351 20.6492C156.827 20.1983 157.72 20.7133 157.78 19.67C157.813 19.1522 157.571 18.6325 157.362 18.162C156.833 16.9747 156.385 15.7781 155.944 14.554C156.213 14.5479 156.858 14.5126 157.079 14.6079C157.936 14.9767 157.933 16.0518 158.193 16.8176C158.323 17.1989 158.482 17.5557 158.639 17.9137Z" fill="#B3B3B3"/>
<path d="M170.252 25.2235C170.986 25.1173 171.842 25.311 172.597 25.3576C172.867 26.0241 172.816 28.8644 172.648 29.5808C172.534 30.0677 172.286 30.5075 171.851 30.7733C171.437 31.0258 170.916 31.0656 170.45 30.9519C169.924 30.8229 169.607 30.5517 169.329 30.0971C169.353 29.9849 169.408 29.8734 169.451 29.7666C169.779 29.6937 170.505 30.2395 170.89 30.3158C171.139 30.3653 171.385 30.3413 171.599 30.1943C171.966 29.9411 172.001 29.4834 172.079 29.0782C171.586 29.3011 171.098 29.5131 170.548 29.362C170.104 29.2399 169.766 28.9618 169.542 28.5618C169.202 27.9598 169.143 27.1287 169.328 26.4695C169.488 25.9002 169.735 25.5105 170.252 25.2235ZM169.923 26.645C169.893 27.2247 169.828 27.9211 170.251 28.3876C170.445 28.6015 170.692 28.725 170.98 28.7363C171.034 28.7384 171.088 28.7389 171.142 28.7376C171.53 28.5647 171.74 28.4488 171.895 28.0404C172.084 27.5418 172.091 26.9601 171.865 26.4724C171.723 26.1666 171.483 25.8879 171.16 25.7722C171.012 25.719 170.855 25.6914 170.699 25.6905C170.386 25.9918 170.149 26.2733 169.923 26.645Z" fill="#B3B3B3"/>
<path d="M95.2706 14.4129C98.2782 14.2626 97.2284 17.2626 97.4126 19.4042C96.8539 19.3895 96.5418 19.3953 95.9866 19.452C95.9693 18.6687 96.0091 17.8581 96.0117 17.0735C96.0151 15.9677 95.8699 14.9846 94.5157 15.5853C93.9838 16.4396 94.1438 18.3835 94.1594 19.4177C93.6976 19.401 93.2142 19.4318 92.7516 19.4521L92.7525 14.5477C93.062 14.5414 93.3673 14.5341 93.6777 14.5435C94.1689 14.5582 93.8317 14.7275 94.1032 15.0481C94.4551 14.8255 94.8555 14.5481 95.2464 14.4208L95.2706 14.4129Z" fill="#B3B3B3"/>
<path d="M138.121 14.4105C140.913 14.1375 140.261 17.4879 140.239 19.4068C139.717 19.3902 139.385 19.4152 138.865 19.4607C138.866 19.3294 138.882 19.1105 138.867 18.9894C138.721 17.8154 139.522 14.7656 137.378 15.5378C136.755 16.0181 136.946 18.5818 136.956 19.4232L135.571 19.4055L135.556 14.5606C135.899 14.5462 136.436 14.5056 136.76 14.5571C136.796 14.7387 136.812 14.8813 136.918 15.0355C137.394 14.7287 137.597 14.6296 138.121 14.4105Z" fill="#B3B3B3"/>
<path d="M141.155 23.8286C141.478 23.9041 141.401 23.8451 141.641 24.0618C141.802 24.4906 141.736 25.0949 141.734 25.5866C142.593 24.9978 142.901 25.1069 143.832 25.4223C144.664 26.526 144.753 28.0529 143.746 29.078C142.433 29.9702 142.462 28.8799 141.686 29.0186C141.64 29.1894 141.616 29.2626 141.541 29.4226C141.298 29.4228 141.302 29.4567 141.101 29.347C141.02 28.7045 140.979 24.1754 141.155 23.8286ZM142.929 28.7948C143.385 28.4945 143.641 28.1087 143.754 27.5705C143.843 27.1464 143.807 26.6528 143.563 26.2845C143.405 26.0464 143.106 25.7824 142.82 25.7271C142.735 25.7104 142.649 25.7052 142.562 25.7003C142.551 25.6997 142.541 25.6988 142.53 25.698C142.018 26.0884 141.772 26.4258 141.686 27.0748C141.627 27.5179 141.684 27.9716 141.961 28.3351C142.166 28.6029 142.412 28.7368 142.743 28.7777C142.805 28.7853 142.867 28.7929 142.929 28.7948Z" fill="#B3B3B3"/>
<path d="M103.602 25.2078C105.984 25.023 106.261 26.0886 106.067 28.2217C105.697 28.7736 105.442 29.0492 104.864 29.3803C102.502 29.8672 102.135 27.5894 102.704 25.8089C102.938 25.6265 103.344 25.3782 103.602 25.2078ZM104.477 28.7429C104.947 28.5126 105.164 28.3825 105.335 27.8773C105.493 27.4143 105.502 26.8961 105.283 26.4508C105.126 26.1287 104.867 25.8965 104.527 25.7836C104.366 25.7303 104.212 25.7077 104.043 25.7077C103.571 25.9709 103.359 26.1827 103.21 26.712C103.077 27.1886 103.065 27.7367 103.318 28.1774C103.466 28.4349 103.697 28.6161 103.984 28.6929C104.145 28.736 104.311 28.7629 104.477 28.7429Z" fill="#B3B3B3"/>
<path d="M66.3948 25.2054C68.3585 25.0028 69.2343 26.1944 68.7211 28.1702C68.562 28.7826 68.0428 29.1446 67.4832 29.397C65.2622 29.9116 64.916 27.4964 65.449 25.8564C65.799 25.5151 65.9661 25.4172 66.3948 25.2054ZM65.9939 26.4276C65.9039 27.1093 65.8868 27.6201 66.0797 28.2933C66.5269 28.6175 66.7523 28.7662 67.3279 28.6999C67.7102 28.4937 67.9741 28.3495 68.1017 27.9157C68.2285 27.4846 68.1488 26.9163 68.1205 26.4663C67.7228 26.0671 67.4078 25.711 66.8055 25.7069C66.7494 25.7064 66.6933 25.7083 66.6373 25.7125C66.4177 25.9406 66.1735 26.1666 65.9939 26.4276Z" fill="#B3B3B3"/>
<path d="M114.703 12.5711C115.316 12.5108 116.037 12.3953 116.433 12.9657C116.421 13.6161 115.656 13.534 115.189 13.5311C115.154 13.7881 115.141 13.9724 115.13 14.2314C115.321 14.5445 115.592 14.5452 116.005 14.6688C116.21 14.9655 116.155 15.1145 116.179 15.5092L115.138 15.5736C115.067 16.6441 115.09 17.8943 115.089 18.9825C115.097 19.1625 115.112 19.2269 115.009 19.3698C114.749 19.4869 114.071 19.4198 113.712 19.4202C113.695 18.1937 113.764 16.9198 113.711 15.7019C113.344 15.3453 113.441 15.7071 113.035 15.4321C112.943 15.106 112.962 15.0056 113 14.6676C113.191 14.4708 113.292 14.522 113.626 14.4817C114.37 13.8527 113.108 13.221 114.703 12.5711Z" fill="#B3B3B3"/>
<path d="M100.032 12.8857L100.104 12.9329C100.236 13.1371 100.19 14.2242 100.189 14.5406C100.787 14.5238 101.428 14.6249 101.058 15.39C100.726 15.6186 100.631 15.5499 100.19 15.5631C100.185 16.3151 100.124 17.8886 100.267 18.5446C100.629 18.8285 100.712 18.5039 101.127 18.7332C101.254 18.9558 101.185 19.1459 101.137 19.3997C100.987 19.5434 100.649 19.5825 100.43 19.6267C99.8269 19.6142 99.5571 19.5025 99.0279 19.2653C98.7036 18.0857 98.765 16.8941 98.8048 15.6886C98.8108 15.4995 98.4571 15.6299 98.2072 15.4554C98.1683 15.1418 98.1484 15.0443 98.2314 14.7407C98.3715 14.6434 98.4511 14.6091 98.6067 14.5389C98.9431 14.0379 98.8177 14.0043 99.0088 13.4747C99.2613 13.2069 99.6903 13.0428 100.032 12.8857Z" fill="#B3B3B3"/>
<path d="M137.858 25.2161C138.626 25.1565 139.193 25.1717 139.921 25.452C139.996 25.6897 140.061 25.9291 140.089 26.1775C140.148 26.6789 140.371 29.152 140.148 29.4329C139.627 29.5118 139.563 29.097 139.419 29.0946C138.854 29.0852 138.37 29.5246 137.78 29.4394C137.398 29.3845 137.121 29.2014 136.895 28.8956C136.879 28.8532 136.863 28.8103 136.85 28.7666C136.748 28.4306 136.685 28.0097 136.863 27.6886C137.228 27.0312 138.286 26.9565 138.945 26.7726C139.18 26.7073 139.302 26.635 139.418 26.4266C139.383 26.1896 139.225 26.0333 139.054 25.8784C138.145 25.0543 137.884 26.4847 137.182 26.5174C136.985 26.416 136.958 26.3896 136.845 26.1989C136.847 26.0928 136.861 25.9825 136.917 25.8897C137.148 25.4963 137.427 25.3286 137.858 25.2161ZM137.683 28.663C138.227 28.7888 138.553 28.7465 139.037 28.4469C139.232 28.3261 139.419 28.1424 139.467 27.9083C139.496 27.7646 139.452 27.5761 139.43 27.4326L139.395 27.3988C138.783 27.4777 138.024 27.4807 137.531 27.8936C137.452 28.0827 137.398 28.1701 137.478 28.3753C137.517 28.4768 137.614 28.58 137.683 28.663Z" fill="#B3B3B3"/>
<path d="M81.0254 29.5401C80.1125 29.1915 81.1338 26.821 80.3758 25.8618C80.2746 25.7896 80.1267 25.7002 79.9985 25.7081C78.3325 25.8109 79.4722 28.8572 78.6992 29.5524C77.6316 29.3426 78.8012 26.5918 77.9626 25.8034C76.1746 24.901 77.0101 28.8479 76.3684 29.568C76.1925 29.512 75.9664 29.4397 75.9832 29.2373C76.0512 28.4176 75.832 25.985 75.9884 25.3555C76.5147 25.0358 76.5439 25.5831 76.8022 25.4789C77.5876 25.1622 78.1237 24.8531 78.8157 25.5873C78.9682 25.7492 79.8329 25.1995 80.1537 25.16C80.9474 25.0623 81.176 25.5048 81.2786 26.2174C81.3174 26.7931 81.4831 28.9922 81.2324 29.412L81.0254 29.5401Z" fill="#B3B3B3"/>
<path d="M81.2786 26.2175C81.3175 26.7932 81.4831 28.9923 81.2324 29.4121L81.0255 29.5402C81.1618 28.4661 80.8904 27.3588 81.2786 26.2175Z" fill="#B3B3B3"/>
<path d="M70.9635 25.2074C71.6831 25.1377 71.8152 25.1565 72.4395 25.5574C72.6116 25.6408 72.6384 25.6595 72.7951 25.537C73.5459 24.9504 74.5475 24.9358 74.8951 25.9737C75.0682 26.4906 75.1546 28.9043 74.9238 29.3619C74.6569 29.4545 74.7639 29.4476 74.4887 29.3931C73.8537 28.7474 75.0472 25.9642 73.5035 25.6596C72.6462 25.7642 72.6643 27.2811 72.6295 27.9169C72.6376 28.3916 72.6691 28.9516 72.5809 29.4117L72.3017 29.4715C71.3876 29.0526 72.3624 26.6511 71.676 25.8363C71.4136 25.6937 71.3563 25.6876 71.058 25.6933C69.8053 26.1144 70.8586 29.2234 70.0089 29.4603L69.8569 29.3417C69.5166 28.6847 69.6619 26.1685 69.7201 25.3337C70.5635 25.3965 70.2977 25.5589 70.9635 25.2074Z" fill="#B3B3B3"/>
<path d="M127.532 25.2098C128.193 25.1623 128.938 25.0788 129.511 25.4178C129.886 25.9902 129.995 28.5995 129.979 29.3638C129.612 29.6438 129.286 29.0419 129.117 29.0667C128.109 29.2151 127.55 29.9264 126.622 28.8874C126.611 28.8543 126.601 28.821 126.592 28.7875C126 26.5027 128.773 27.2329 129.27 26.415C129.207 26.161 128.877 25.8471 128.632 25.7756C127.967 25.5815 127.331 26.2606 126.757 26.5501L126.598 26.396C126.625 25.6652 126.952 25.5399 127.532 25.2098ZM127.486 28.6938C128.069 28.7921 128.408 28.7333 128.9 28.3797C129.096 28.2387 129.176 28.0439 129.259 27.8257C129.245 27.6816 129.214 27.5597 129.167 27.4234L129.12 27.3931C128.589 27.4726 127.554 27.5031 127.223 27.9513C127.19 27.9966 127.192 28.1544 127.186 28.2165C127.263 28.4104 127.333 28.5442 127.486 28.6938Z" fill="#B3B3B3"/>
<path d="M113.408 23.7485C114.156 23.6992 115.471 24.1975 115.61 24.9944C115.579 25.211 115.551 25.2434 115.391 25.3926C114.828 25.2965 113.901 23.6353 112.739 24.4738C111.534 25.3433 112.98 25.9516 113.779 26.1681C115.696 26.6874 116.623 27.9675 114.663 29.4118C114.263 29.4772 113.844 29.4963 113.438 29.5228C112.962 29.5228 112.617 29.4632 112.198 29.2245C111.756 28.972 111.208 28.0802 111.527 27.5976C112.006 27.5724 112.452 28.4653 112.803 28.7019C113.42 29.193 115.303 28.806 114.982 27.7775C114.616 26.6089 111.756 27.0852 111.589 25.534C111.44 24.1417 112.33 23.888 113.408 23.7485Z" fill="#B3B3B3"/>
<path d="M54.5819 25.2073C56.5454 25.0015 56.7465 25.759 57.0339 27.4609C56.087 27.5037 54.9408 27.4644 53.9459 27.4902C54.3177 28.4367 54.9269 29.282 55.9331 28.4212C56.2015 28.1752 56.3521 28.0053 56.7251 28.0896L56.8002 28.296C56.7914 28.6246 56.5618 28.8834 56.3683 29.1497C53.6057 30.2098 52.9737 27.935 53.7104 25.6902L54.5819 25.2073ZM53.9312 26.7762C54.5285 26.8042 55.1234 26.8316 55.7216 26.821L56.2026 26.746C56.2574 26.6486 56.3061 26.6066 56.2754 26.4914C56.1982 26.2011 55.7861 25.9565 55.541 25.824C55.3014 25.6944 55.0445 25.7014 54.7797 25.7154C54.4694 26.0566 54.1845 26.3893 53.9312 26.7762Z" fill="#B3B3B3"/>
<path d="M163.657 25.2073C164.166 25.174 164.729 25.1199 165.194 25.3757C165.632 25.6171 165.975 26.2277 166.109 26.6972C166.169 26.9098 166.154 27.0715 166.045 27.267C165.541 27.715 164.418 27.4271 163.779 27.4588C163.562 27.4695 163.349 27.4949 163.196 27.6653C163.174 27.8856 163.197 27.9834 163.312 28.1734C163.489 28.4652 163.802 28.6284 164.125 28.7085C164.501 28.8017 164.741 28.7025 165.063 28.5107C165.093 28.4648 165.125 28.4196 165.157 28.3751C165.32 28.1533 165.447 28.0978 165.713 28.0553L165.855 28.1615C165.884 28.2744 165.897 28.3835 165.865 28.4971C165.774 28.8205 165.548 29.0702 165.257 29.2292C164.818 29.4685 164.236 29.4939 163.763 29.3527C163.32 29.2202 162.957 28.9109 162.738 28.5037C162.416 27.9054 162.37 27.1418 162.566 26.4961C162.753 25.8745 163.092 25.5076 163.657 25.2073ZM163.127 26.7969C163.538 26.8055 163.983 26.8462 164.391 26.8149C164.677 26.808 165.08 26.8515 165.298 26.6476C165.348 26.5066 165.385 26.4685 165.313 26.3272C165.192 26.0871 164.749 25.8221 164.498 25.7427C164.397 25.7112 164.285 25.7022 164.181 25.6983C163.55 25.9776 163.405 26.1932 163.127 26.7969Z" fill="#B3B3B3"/>
<path d="M148.004 25.2196C148.611 25.1469 149.12 25.1095 149.639 25.4779C150.082 25.7925 150.43 26.2999 150.515 26.8435C150.552 27.085 150.497 27.222 150.358 27.4121C149.762 27.6179 148.189 27.4652 147.473 27.4717C147.553 27.8 147.677 28.1077 147.801 28.421C148.083 28.5676 148.463 28.7603 148.782 28.7597C149.159 28.7589 149.369 28.5427 149.62 28.2882C149.684 28.163 149.828 28.1049 149.947 28.0398C150.128 28.0585 150.146 28.0563 150.27 28.1915C150.28 28.2925 150.286 28.4041 150.26 28.5034C150.187 28.7889 149.986 29.0269 149.736 29.176C149.116 29.5463 148.426 29.4041 147.771 29.2448C147.551 29.0382 147.319 28.8266 147.168 28.5624C146.833 27.977 146.712 27.1993 146.889 26.5456C147.062 25.905 147.441 25.5387 148.004 25.2196ZM147.46 26.7969C147.999 26.8066 148.542 26.8291 149.08 26.8153C149.351 26.7865 149.505 26.824 149.694 26.6208C149.664 26.3521 149.579 26.2145 149.365 26.0421C149.044 25.785 148.81 25.6924 148.4 25.7106C147.9 26.0096 147.706 26.2754 147.46 26.7969Z" fill="#B3B3B3"/>
<path d="M153.458 23.9096C154.117 23.9203 157.329 23.6995 157.465 24.2448C157.133 24.6715 154.818 24.5013 154.18 24.4952C154.176 25.0571 154.197 25.6571 154.205 26.2223C154.798 26.2583 156.996 26.0913 157.23 26.5234L157.176 26.6901C156.706 26.9899 154.962 26.87 154.332 26.8593L154.206 26.8788C154.129 27.2156 154.186 28.3169 154.198 28.7213C154.838 28.7704 157.555 28.5426 157.66 29.1635L157.527 29.3246C157.103 29.525 154.126 29.4358 153.462 29.4295L153.458 23.9096Z" fill="#B3B3B3"/>
<path d="M148.79 14.4622C149.283 14.3828 149.765 14.3453 150.107 14.7613C150.152 14.9773 150.191 15.0465 150.094 15.2431C149.598 16.234 149.326 15.5164 148.713 15.7781C148.099 16.3317 148.384 18.346 148.257 19.3387L148.127 19.4087C147.696 19.3882 147.262 19.4113 146.83 19.4274C146.814 17.7989 146.816 16.1703 146.837 14.5419C147.915 14.4869 147.673 14.7359 148.387 14.8452L148.79 14.4622Z" fill="#B3B3B3"/>
<path d="M124.661 14.4457C125.215 14.3738 125.87 14.3737 126.042 15.0264C125.961 15.8939 125.079 15.7154 124.691 15.7765C123.662 15.9384 124.463 18.9045 124.042 19.4365L123.849 19.4379C123.502 19.4145 123.05 19.4207 122.693 19.415C122.732 18.0018 122.737 15.9641 122.668 14.5687C122.83 14.5578 123.434 14.5138 123.531 14.5574C124.28 14.894 124.007 15.0461 124.661 14.4457Z" fill="#B3B3B3"/>
<path d="M62.2755 23.7654C62.3759 23.7492 62.4781 23.7452 62.5794 23.7535C63.3673 23.8213 64.4252 24.4916 64.3518 25.3365C63.3055 26.1368 63.1148 22.6959 60.8282 25.1807C60.4875 26.2663 60.3355 28.604 61.9874 28.9525C62.4367 29.0472 63.0795 28.7175 63.4324 28.4147C63.6085 28.0367 63.8147 27.4132 64.3258 27.6132C64.6861 28.3397 63.8134 29.0516 63.2934 29.4098C62.4293 29.5764 61.2094 29.6256 60.5964 28.9277C59.0542 27.1721 59.526 23.8471 62.2755 23.7654Z" fill="#B3B3B3"/>
<path d="M103.856 14.461C104.319 14.4128 104.699 14.3244 105.038 14.669C105.151 14.9856 104.992 15.4391 104.907 15.7799C104.768 15.7712 104.004 15.7214 103.916 15.7284C102.804 15.8168 103.534 18.9153 103.1 19.4034L102.826 19.3955C102.48 19.427 102.286 19.4558 101.945 19.397C101.785 18.9217 101.873 15.2795 101.88 14.5499C103.041 14.5208 102.461 14.6067 103.352 14.847L103.856 14.461Z" fill="#B3B3B3"/>
<path d="M118.952 28.4287C119.022 27.7508 118.85 25.774 119.134 25.295C119.371 25.2692 119.505 25.2691 119.723 25.3845C119.939 25.6742 119.839 26.3227 119.833 26.6867L119.854 28.4824C119.854 28.9051 119.897 29.2198 119.582 29.5362L119.4 29.4982C119.219 29.3205 119.167 29.119 119.094 28.8824C119.072 28.875 118.39 29.4168 117.962 29.4218C117.604 29.4259 117.192 29.3241 116.932 29.0628C116.276 28.4 116.55 26.1701 116.564 25.2795C116.778 25.2743 116.968 25.2823 117.179 25.3226C117.666 26.1539 116.983 27.4408 117.356 28.3304C117.419 28.48 117.533 28.6001 117.682 28.6605C118.116 28.8364 118.554 28.6 118.952 28.4287Z" fill="#B3B3B3"/>
<path d="M121.448 25.2118C122.085 25.1497 123.816 25.0528 123.568 26.1854C123.532 26.3493 123.552 26.3035 123.416 26.3931C123.129 26.3494 122.654 25.9175 122.353 25.7191C121.962 25.7135 121.412 25.7502 121.347 26.2207C121.59 26.8392 122.825 26.8454 123.349 27.1692C124.496 27.8783 123.666 29.1355 122.614 29.4247C122.178 29.4527 121.785 29.3768 121.356 29.3114C121.011 28.9867 120.669 28.6908 120.563 28.2148L120.663 28.0805C121.682 27.9657 122.123 29.5446 123.136 28.3889C123.223 27.8622 123.13 27.8047 122.632 27.6918C122.139 27.58 121.605 27.4218 121.131 27.2462C121.051 27.1446 120.976 27.0408 120.903 26.9347C120.364 26.1407 120.759 25.6795 121.448 25.2118Z" fill="#B3B3B3"/>
<path d="M94.3678 25.2792C94.5529 25.2728 94.6808 25.2827 94.8503 25.3606C95.5075 26.0701 95.7747 27.5369 96.093 28.4445C96.3697 27.5435 96.649 26.1172 97.231 25.3888C97.4333 25.2807 97.5163 25.2963 97.7394 25.306C97.9115 25.8263 97.0987 27.4987 96.905 28.0746C96.6386 28.968 96.2763 29.7886 95.8724 30.6259C95.5758 30.8113 95.1953 31.0589 94.8339 30.9937C94.6679 30.8615 94.6583 30.8364 94.5961 30.6325C94.8097 30.2623 95.2957 30.246 95.5508 29.913C95.6831 29.7401 95.722 29.544 95.6943 29.3311C95.5369 28.1148 94.5235 26.685 94.3678 25.2792Z" fill="#B3B3B3"/>
<path d="M159.782 25.2059C159.823 25.2011 159.863 25.197 159.903 25.1937C160.419 25.1496 160.923 25.1468 161.334 25.4934C161.718 26.2693 161.715 28.4547 161.542 29.2943C161.394 29.4241 161.379 29.451 161.182 29.4523C160.573 28.7789 161.411 26.7595 160.598 25.9437C160.361 25.707 160.105 25.7016 159.787 25.7051C158.443 26.669 159.505 28.7915 159.015 29.4382L158.627 29.4202C158.445 29.2948 158.382 29.2545 158.337 29.03C158.333 29.0071 158.335 25.6193 158.337 25.6102C158.349 25.5715 158.411 25.5002 158.434 25.4641C158.61 25.4423 158.869 25.3803 159.038 25.4344C159.071 25.4447 159.102 25.4571 159.135 25.4648C159.323 25.5089 159.625 25.2966 159.782 25.2059Z" fill="#B3B3B3"/>
<path d="M134.028 25.2164C134.175 25.197 134.322 25.1828 134.47 25.1736C134.861 25.1525 135.223 25.2344 135.524 25.4755C135.984 25.8419 135.965 29.1645 135.735 29.4162L135.311 29.4107C134.663 28.6642 136.014 25.8497 134.202 25.6868C132.847 26.3399 133.561 28.1012 133.321 29.2333C133.148 29.4386 133.235 29.3894 132.974 29.4348L132.809 29.3065C132.508 28.6742 132.637 26.2059 132.71 25.4313C132.953 25.2206 133.469 25.6815 133.77 25.361C133.778 25.3513 133.996 25.2341 134.028 25.2164Z" fill="#B3B3B3"/>
<path d="M82.2943 25.2795C82.5242 25.2748 82.7519 25.2554 82.9707 25.3387C83.2075 26.1107 82.9234 27.1554 83.0357 27.9861C83.0748 28.2752 83.1417 28.5482 83.3871 28.728C83.4848 28.7997 83.6294 28.8113 83.7457 28.7901C85.6699 28.4394 84.3482 26.1273 84.9126 25.3252C85.1036 25.2905 85.2374 25.2669 85.4233 25.346C85.5886 25.6321 85.5046 26.1296 85.4921 26.4553C85.4854 27.0694 85.7189 29.0062 85.3566 29.4028C85.1656 29.4074 85.0669 29.4397 84.9105 29.3188L84.8951 28.9342C84.4314 28.8985 83.9219 29.4745 83.3682 29.4728C83.1125 29.4719 82.9032 29.3714 82.7251 29.1902C81.9988 28.4512 82.2802 26.2963 82.2943 25.2795Z" fill="#B3B3B3"/>
<path d="M87.8044 25.2241C90.1133 24.967 89.6593 26.1349 89.8028 27.9677C89.8374 28.4022 89.8824 29.3352 89.4751 29.5398L89.2814 29.4132C89.0375 28.9795 89.1136 27.1543 89.0592 26.379C88.8629 26.0194 88.7158 25.8204 88.3371 25.6804C86.3561 26.1807 87.8087 28.6232 86.9838 29.4248C86.7269 29.4339 86.7641 29.4715 86.5713 29.3496C86.5445 28.7007 86.4122 25.7115 86.6759 25.34C86.9777 25.3486 87.1386 25.3931 87.4317 25.4629L87.8044 25.2241Z" fill="#B3B3B3"/>
<path d="M92.7135 24.0454C92.9478 24.0323 93.0412 24.0124 93.2427 24.1432C93.3863 24.5294 93.2315 24.5581 93.241 25.0543C93.5437 25.4832 93.4122 25.1012 93.88 25.3906L93.9086 25.6319C93.7581 25.8887 93.7261 25.8292 93.3698 25.956C93.177 26.3623 93.2946 27.8672 93.3162 28.3829C93.3257 28.5917 93.6336 28.7447 93.8178 28.872C93.9458 29.0769 93.9025 29.2088 93.8662 29.4449C93.6033 29.4477 93.1217 29.475 92.928 29.3082C92.1601 28.645 92.6841 27.0423 92.4835 26.0037L92.0883 25.7542C91.9577 25.4998 91.9629 25.5965 92.0286 25.3566C92.8129 25.1351 92.3659 24.7921 92.7135 24.0454Z" fill="#B3B3B3"/>
<path d="M101.269 23.9187C101.563 23.9024 101.902 23.9308 102.2 23.9484C102.343 24.1655 102.312 24.0693 102.277 24.3717C101.989 24.6314 101.691 24.372 101.352 24.5968C101.289 24.8283 101.313 24.9076 101.355 25.1371C101.561 25.3368 101.576 25.2763 101.931 25.3131C102.132 25.4951 102.078 25.4256 102.101 25.7506C101.919 25.9221 101.693 25.8853 101.399 25.9101C101.172 26.1984 101.292 28.3215 101.303 28.8123C101.345 29.2027 101.326 29.2342 101.076 29.4915L100.802 29.4934C100.42 28.9799 100.746 26.8392 100.64 26.1428C100.574 25.7136 100.086 26.1807 100.026 25.4051C100.181 25.2279 100.273 25.2782 100.573 25.2483C100.937 24.6155 100.279 24.3887 101.269 23.9187Z" fill="#B3B3B3"/>
<path d="M125.029 24.0012C125.131 24.0156 125.264 24.06 125.366 24.0899C125.522 24.293 125.458 24.8549 125.456 25.151C125.676 25.4901 125.797 25.1134 126.151 25.4199C126.11 26.1849 125.678 25.7562 125.539 25.9239C125.332 26.1745 125.45 28.3488 125.457 28.6248C125.716 28.7054 125.863 28.7435 126.1 28.8817C126.226 29.164 126.182 29.1184 126.136 29.4591C125.966 29.4585 125.473 29.4582 125.357 29.4079C124.365 28.9805 124.975 26.9575 124.777 26.0871C124.729 25.8709 124.441 25.9965 124.274 25.6603C124.317 25.152 124.82 25.2128 124.823 24.9727C124.831 24.4582 124.718 24.5433 125.029 24.0012Z" fill="#B3B3B3"/>
<path d="M168.155 25.2085C168.289 25.18 168.476 25.1714 168.612 25.1931C168.837 25.2292 168.934 25.3016 169.064 25.4802L169.016 25.7255C168.789 25.9029 168.538 25.7979 168.252 25.7873C168.163 25.8225 168.067 25.8672 168.001 25.9383C167.415 26.5609 167.644 28.5139 167.657 29.3277C167.651 29.3353 167.646 29.3431 167.641 29.3504C167.593 29.4154 167.415 29.4802 167.337 29.4862C167.156 29.5001 167.115 29.4586 166.981 29.3504C166.763 28.8687 166.831 25.9775 166.94 25.3919C167.345 25.2594 167.721 25.3975 168.155 25.2085Z" fill="#B3B3B3"/>
<path d="M50.0746 25.5634C50.7095 25.0847 51.0553 25.089 51.8121 25.2753C52.1689 25.4903 52.3275 25.5929 52.4327 26.0248C52.5893 26.667 52.6758 28.8912 52.4232 29.4176L52.2635 29.5047C51.7092 29.3347 51.762 29.0658 51.7676 28.5625C51.7767 27.7461 51.83 26.8887 51.7111 26.0791C51.4536 25.8431 51.376 25.7521 51.0348 25.6927C50.6342 25.7446 50.4437 25.9406 50.144 26.2119C50.1023 26.0101 50.1151 26.0703 50.2293 25.8419L50.0746 25.5634Z" fill="#B3B3B3"/>
<path d="M108.269 25.114C108.518 25.1946 108.721 25.2302 108.864 25.4526C108.741 25.8972 107.726 25.7944 107.578 26.3521C107.31 27.3524 107.631 28.4802 107.431 29.4963C107.201 29.4669 107.093 29.4451 106.871 29.3873C106.702 29.1596 106.776 26.0201 106.776 25.4701C106.808 25.4493 108.038 25.1921 108.269 25.114Z" fill="#B3B3B3"/>
<path d="M145.408 23.8235C145.54 23.8463 145.688 23.8852 145.819 23.9167C145.984 24.1934 145.907 28.6716 145.952 29.4495C145.706 29.4437 145.515 29.466 145.321 29.3164C145.238 28.7271 145.239 24.167 145.408 23.8235Z" fill="#B3B3B3"/>
<path d="M130.914 25.2998C131.157 25.3021 131.446 25.2609 131.659 25.3796C131.837 26.6784 131.709 28.1293 131.683 29.4455C131.437 29.4469 131.151 29.473 130.946 29.3361C130.793 28.0291 130.905 26.6185 130.914 25.2998Z" fill="#B3B3B3"/>
<path d="M50.1439 26.2118C50.067 26.808 50.0806 29.2504 49.9323 29.426C49.6244 29.4379 49.5791 29.4899 49.3444 29.3558C49.2787 29.1571 49.2938 28.6132 49.3193 28.3911C49.3916 27.7609 49.0026 25.6469 49.5482 25.2957C49.8126 25.3215 49.8772 25.3937 50.0745 25.5632L50.2292 25.8417C50.115 26.0701 50.1022 26.0099 50.1439 26.2118Z" fill="#B3B3B3"/>
<path d="M90.7973 25.2695C91.0282 25.269 91.2305 25.2922 91.4554 25.3447C91.7399 25.9065 91.5557 28.6536 91.5453 29.4379C91.3049 29.443 91.0377 29.4839 90.8371 29.3287C90.6287 28.2254 90.793 26.4517 90.7973 25.2695Z" fill="#B3B3B3"/>
<path d="M130.913 23.8855C131.129 23.9022 131.31 23.9304 131.522 23.9639C131.719 24.1735 131.661 24.1617 131.688 24.5063C131.419 24.5148 131.307 24.5146 131.04 24.4767C130.871 24.266 130.926 24.2071 130.913 23.8855Z" fill="#B3B3B3"/>
<path d="M90.8932 23.8535C91.0402 23.8759 91.2477 23.9368 91.3973 23.9757C91.5962 24.222 91.5366 24.1728 91.534 24.5488C91.2832 24.5371 91.0722 24.5506 90.8595 24.4178C90.7669 24.123 90.8007 24.1856 90.8932 23.8535Z" fill="#B3B3B3"/>
<path d="M17.5083 0H22.6076C23.2278 0.186399 23.6944 0.227361 24.3157 0.368185C25.282 0.595437 26.2358 0.872338 27.1736 1.19778C36.8654 4.64508 42.3064 15.7513 39.354 25.5871C37.8611 30.7416 34.3736 35.0854 29.6666 37.6531C28.0059 38.5303 26.2384 39.188 24.4085 39.6097C23.8836 39.7293 22.743 39.8883 22.36 40H17.6614C16.8997 39.7966 15.9597 39.6925 15.1614 39.4796C-4.66869 34.1913 -5.20315 6.68505 14.4821 0.679966C15.5153 0.364773 16.4988 0.253873 17.5083 0Z" fill="#03579D"/>
<path d="M20.0096 5.78869C27.8463 5.75714 34.2224 12.0968 34.2453 19.9431C34.2682 27.7895 27.9293 34.1663 20.0925 34.1806C12.2679 34.1949 5.91087 27.8603 5.888 20.0261C5.86513 12.192 12.1851 5.8202 20.0096 5.78869Z" fill="#FAFCFC"/>
<path d="M18.8412 7.20465C25.905 6.52878 32.1745 11.724 32.832 18.7981C33.4894 25.8721 28.285 32.1363 21.218 32.777C14.1758 33.4155 7.94592 28.2269 7.29076 21.1777C6.63561 14.1285 11.8023 7.87814 18.8412 7.20465Z" fill="#E73025"/>
<path d="M26.7535 11.5167L27.2246 11.5263L28.5337 11.5092C28.4904 15.2761 27.4026 17.6451 24.3361 19.8779C27.1707 22.2074 28.7231 24.6226 28.5689 28.4298C28.1313 28.5188 25.9205 28.518 25.4411 28.4294L25.1461 28.4874C24.841 28.4229 24.1119 28.4209 23.7649 28.4112C23.1699 28.4961 22.5666 28.534 21.975 28.4044L21.6837 28.4251C21.1121 28.4119 20.6518 28.3825 20.0872 28.4851L19.9129 28.4201C19.4784 28.5804 18.7407 28.4292 18.2522 28.4399C17.9803 28.5089 16.4112 28.5288 16.1769 28.4433C15.8566 28.4141 15.3758 28.424 15.0427 28.4207C14.427 28.5375 12.2416 28.528 11.5679 28.4551C11.513 24.351 12.7751 22.4245 15.8141 19.8768C12.7389 17.7061 11.6699 15.2982 11.5521 11.5661C11.9682 11.5212 12.5026 11.5256 12.9293 11.5172L13.3204 11.5374C13.6742 11.5341 14.3234 11.5109 14.6534 11.5347L15.113 11.5534C15.463 11.5498 16.0892 11.527 16.4168 11.5501L16.7812 11.5489C17.1522 11.5331 17.7353 11.486 18.0826 11.5545C18.1988 11.5851 18.3541 11.6348 18.4687 11.6264C18.7986 11.4896 19.5223 11.513 19.8767 11.5647L20.1534 11.5049C20.6556 11.512 21.1637 11.5231 21.6654 11.5238L21.692 12.5637C21.8175 12.2548 21.9098 11.9212 22.0051 11.6008L22.0375 11.5715C22.329 11.483 23.0325 11.4783 23.3166 11.6136L23.4764 11.8014L23.6878 11.5225L25.0673 11.5402L25.421 11.5135L26.7535 11.5167Z" fill="#FFE804"/>
<path d="M26.7536 11.5168L27.2247 11.5263L28.5337 11.5092C28.4904 15.2762 27.4026 17.6451 24.3361 19.8779C27.1707 22.2074 28.7231 24.6227 28.5689 28.4299C28.1314 28.5189 25.9206 28.518 25.4411 28.4294L25.1461 28.4874C24.841 28.4229 24.112 28.4209 23.7649 28.4112C23.1699 28.4961 22.5667 28.534 21.975 28.4044L21.6838 28.4252C21.6958 26.4494 21.7657 24.4805 21.5094 22.5173C21.402 21.695 20.9315 20.5669 20.8669 19.87C20.8488 19.6756 21.3687 18.1356 21.4456 17.6305C21.7147 15.8628 21.6748 14.3297 21.6921 12.5637C21.8175 12.2549 21.9099 11.9213 22.0051 11.6008L22.0375 11.5715C22.329 11.483 23.0325 11.4783 23.3166 11.6137L23.4765 11.8015L23.6879 11.5226L25.0673 11.5402L25.421 11.5135L26.7536 11.5168Z" fill="#FFE806"/>
<path d="M22.0051 11.6008L22.0375 11.5715C22.329 11.483 23.0325 11.4783 23.3166 11.6137L23.4765 11.8015L23.6879 11.5226C23.9481 14.3699 23.471 17.4002 21.9504 19.8568C22.6828 21.1034 22.9533 21.7769 23.2354 23.197C23.7379 25.2305 23.7371 26.3543 23.7649 28.4112C23.1699 28.4961 22.5667 28.534 21.975 28.4044L21.6838 28.4252C21.6958 26.4494 21.7657 24.4805 21.5094 22.5173C21.402 21.695 20.9315 20.5669 20.8669 19.87C20.8488 19.6756 21.3687 18.1356 21.4456 17.6305C21.7147 15.8628 21.6748 14.3297 21.6921 12.5637C21.8175 12.2549 21.9099 11.9213 22.0051 11.6008Z" fill="#FEE705"/>
<path d="M22.0051 11.6008C22.0741 14.5793 22.1468 16.9785 21.0923 19.8078C21.8238 22.207 22.0118 23.7983 21.9969 26.3228C21.9935 26.8857 22.0318 27.8683 21.975 28.4044L21.6838 28.4252C21.6958 26.4494 21.7657 24.4805 21.5094 22.5173C21.402 21.6949 20.9315 20.5669 20.8669 19.87C20.8488 19.6755 21.3687 18.1355 21.4456 17.6305C21.7147 15.8628 21.6748 14.3297 21.6921 12.5637C21.8175 12.2549 21.9099 11.9213 22.0051 11.6008Z" fill="#D96700"/>
<path d="M23.3166 11.6135L23.4764 11.8013L23.6878 11.5225C23.948 14.3698 23.4709 17.4 21.9503 19.8567C22.6827 21.1032 22.9532 21.7768 23.2354 23.1969L23.0322 23.5539C22.7996 22.1138 22.3916 21.0625 21.6691 19.8152C23.1831 17.1631 23.4318 14.6341 23.3166 11.6135Z" fill="#D96700"/>
<path d="M23.0323 23.554L23.2354 23.197C23.7378 25.2304 23.7371 26.3543 23.7649 28.4112C23.1699 28.4961 22.5666 28.534 21.975 28.4044L23.3298 28.4147C23.3367 26.5164 23.2468 25.4564 23.0323 23.554Z" fill="#D64D01"/>
<path d="M23.6878 11.5225L25.0673 11.5402L25.421 11.5134C25.3987 12.5024 25.3158 13.4891 25.1725 14.4679C24.7649 16.7791 24.0915 17.9634 22.7952 19.8736C23.5414 20.9662 25.4608 24.395 25.2198 25.6687C25.1306 25.8108 25.0069 25.9692 25.0064 26.132C25.0943 26.936 25.1173 27.6817 25.1461 28.4874C24.841 28.4229 24.1119 28.4209 23.7649 28.4112C23.737 26.3542 23.7378 25.2304 23.2354 23.197C22.9532 21.7769 22.6828 21.1033 21.9503 19.8567C23.471 17.4001 23.948 14.3699 23.6878 11.5225Z" fill="#FFE507"/>
<path d="M25.1725 14.468C24.7649 16.7792 24.0915 17.9635 22.7952 19.8737C23.5413 20.9663 25.4608 24.3951 25.2198 25.6688C25.1306 25.811 25.0069 25.9693 25.0064 26.1322C24.9593 26.0006 24.8682 25.4877 24.8384 25.331C24.4359 23.2165 23.7032 21.6259 22.4437 19.8756C24.1931 17.5061 24.1508 17.311 24.8509 14.64L25.1725 14.468Z" fill="#D96700"/>
<path d="M25.0673 11.5402L25.421 11.5134C25.3988 12.5024 25.3158 13.4891 25.1725 14.4679L24.851 14.6398C24.9971 13.6131 25.0694 12.5772 25.0673 11.5402Z" fill="#D64D01"/>
<path d="M26.7535 11.5168L27.2247 11.5263L28.5337 11.5093C28.4904 15.2762 27.4026 17.6451 24.3361 19.8779C27.1707 22.2075 28.7231 24.6227 28.5689 28.4299C28.2356 28.3862 27.5923 28.4094 27.2343 28.4121C27.179 24.8079 26.2495 22.5094 23.8254 19.8655C24.2925 19.3799 24.7061 19.063 25.1793 18.5129L24.9142 18.4188C26.5263 15.9688 26.6974 14.2941 26.7535 11.5168Z" fill="#FEE705"/>
<path d="M26.7536 11.5166L27.2247 11.5261C27.1113 14.4265 26.8429 16.02 25.1793 18.5127L24.9142 18.4186C26.5263 15.9685 26.6975 14.2939 26.7536 11.5166Z" fill="#D64D01"/>
<path d="M24.9141 18.4187L25.1793 18.5128C24.7061 19.0629 24.2925 19.3798 23.8254 19.8654C26.2495 22.5093 27.179 24.8078 27.2343 28.412C27.5922 28.4094 28.2356 28.3861 28.5689 28.4298C28.1313 28.5188 25.9205 28.5179 25.4411 28.4294C25.847 28.4315 26.4005 28.4628 26.778 28.3502C26.9444 28.0865 26.6313 25.9199 26.5568 25.5036C26.1997 23.5085 25.0484 21.0968 23.3346 19.9236C23.8994 19.4131 24.3817 18.9693 24.9141 18.4187Z" fill="#D96700"/>
<path d="M25.0063 26.1321C25.0069 25.9692 25.1305 25.8109 25.2198 25.6687C25.4295 26.6929 25.4328 27.3777 25.4411 28.4294L25.146 28.4874C25.1172 27.6818 25.0943 26.9361 25.0063 26.1321Z" fill="#D64D01"/>
<path d="M20.1533 11.5049C20.6556 11.512 21.1636 11.5231 21.6653 11.5238L21.692 12.5637C21.6747 14.3296 21.7146 15.8628 21.4455 17.6305C21.3687 18.1355 20.8488 19.6755 20.8668 19.87C20.9314 20.5669 21.4019 21.6949 21.5093 22.5173C21.7657 24.4805 21.6957 26.4494 21.6837 28.4251C21.1121 28.4119 20.6518 28.3825 20.0872 28.4851L19.9129 28.4201L19.8773 28.3486C19.8067 22.8158 19.8712 17.1097 19.8767 11.5647L20.1533 11.5049Z" fill="#FEE705"/>
<path d="M19.8767 11.5647L20.1533 11.5049L20.1579 23.5505C20.1578 24.3418 20.2198 27.9314 20.0872 28.4851L19.9129 28.4201L19.8773 28.3486C19.8067 22.8158 19.8712 17.1097 19.8767 11.5647Z" fill="#D64D01"/>
<path d="M18.0825 11.5545C18.1987 11.5851 18.354 11.6348 18.4686 11.6265C18.7985 11.4896 19.5222 11.5131 19.8767 11.5648C19.8711 17.1098 19.8066 22.8158 19.8773 28.3487L19.9128 28.4202C19.4783 28.5804 18.7407 28.4293 18.2521 28.44L18.1116 28.0756C17.901 25.5931 18.2664 22.2198 19.0164 19.8564C17.9678 16.9237 18.0369 14.5798 18.0825 11.5545Z" fill="#FEE705"/>
<path d="M18.0825 11.5544C18.1987 11.585 18.354 11.6347 18.4686 11.6264C18.7501 14.3152 18.1347 17.1322 19.3397 19.8504C18.4175 22.0837 18.3628 25.9656 18.5612 28.4097C18.9239 28.413 19.5508 28.4466 19.8773 28.3486L19.9128 28.4201C19.4783 28.5803 18.7407 28.4292 18.2521 28.4399L18.1116 28.0755C17.901 25.593 18.2664 22.2197 19.0164 19.8563C17.9678 16.9236 18.0369 14.5797 18.0825 11.5544Z" fill="#D96700"/>
<path d="M16.7812 11.5488C17.1522 11.533 17.7353 11.4859 18.0826 11.5544C18.037 14.5797 17.9678 16.9236 19.0164 19.8562C18.2665 22.2197 17.9011 25.5929 18.1117 28.0755L18.2522 28.4399C17.9803 28.5088 16.4112 28.5287 16.1769 28.4432L16.3203 28.4052C16.4705 28.1385 16.5954 24.6855 16.7145 23.9716C16.9662 22.4626 17.4369 21.1538 18.1739 19.8202C16.3792 16.8342 16.5174 14.9036 16.4168 11.55L16.7812 11.5488Z" fill="#FEE705"/>
<path d="M16.4168 11.55L16.7812 11.5488C16.7755 14.2461 16.8442 17.6687 18.5799 19.8429C16.9052 21.8948 16.7353 25.814 16.758 28.419C17.1281 28.4313 17.7111 28.4872 18.0374 28.3589C18.0864 28.2517 18.1228 28.1955 18.1117 28.0755L18.2522 28.4399C17.9803 28.5088 16.4112 28.5287 16.1769 28.4433L16.3203 28.4053C16.4705 28.1385 16.5954 24.6855 16.7145 23.9717C16.9662 22.4627 17.4369 21.1538 18.1739 19.8203C16.3792 16.8343 16.5174 14.9036 16.4168 11.55Z" fill="#D96700"/>
<path d="M12.9293 11.5171L13.3204 11.5374C13.2958 13.0509 13.4967 14.7803 14.0354 16.2007L13.8555 16.6095C14.561 18.1832 15.0936 18.7183 16.3911 19.8946C16.1216 20.0774 15.9779 20.2232 15.7609 20.4571C13.6108 22.7754 13.1192 25.3865 12.8006 28.418C12.474 28.4166 11.8665 28.3954 11.5679 28.455C11.513 24.3509 12.7751 22.4244 15.8141 19.8767C12.7389 17.706 11.6699 15.2981 11.5521 11.566C11.9682 11.5212 12.5026 11.5255 12.9293 11.5171Z" fill="#FEE705"/>
<path d="M12.9292 11.5171L13.3204 11.5374C13.2957 13.0509 13.4966 14.7803 14.0353 16.2007L13.8555 16.6095C13.117 15.0711 12.8996 13.2035 12.9292 11.5171Z" fill="#D64D01"/>
<path d="M15.113 11.5533C15.4631 11.5497 16.0892 11.5269 16.4169 11.55C16.5174 14.9036 16.3793 16.8343 18.1739 19.8202C17.4369 21.1538 16.9662 22.4626 16.7145 23.9717C16.5954 24.6855 16.4706 28.1385 16.3204 28.4052L16.1769 28.4433C15.8567 28.414 15.3758 28.4239 15.0427 28.4207C15.0041 25.386 15.7304 22.3059 17.6869 19.918C15.5889 17.231 15.1382 14.9298 15.113 11.5533Z" fill="#FFE508"/>
<path d="M14.6534 11.5347L15.113 11.5534C15.1381 14.9299 15.5888 17.231 17.6869 19.918C15.7303 22.306 15.0041 25.3861 15.0427 28.4207C14.4271 28.5375 12.2416 28.528 11.5679 28.4551C11.8665 28.3954 12.474 28.4167 12.8006 28.4181C13.1192 25.3866 13.6108 22.7754 15.7609 20.4572C15.9779 20.2232 16.1216 20.0774 16.3911 19.8947C15.0936 18.7184 14.561 18.1832 13.8555 16.6096L14.0354 16.2008C14.4968 17.6836 15.5643 18.9255 16.762 19.8694C14.0535 22.5166 13.3329 24.607 13.2773 28.41L14.5972 28.4415C14.7078 24.8012 15.3855 22.8167 17.3219 19.8757C15.3204 17.0442 14.7679 15.0032 14.6534 11.5347Z" fill="#D96700"/>
<path d="M33.4551 27.8648C34.154 27.2515 34.1719 25.204 35.6418 25.3976C37.5018 25.6426 37.5894 28.646 35.3445 28.7472L35.1737 28.5575L34.8588 28.5481C34.4265 28.3438 33.8669 28.0903 33.4551 27.8648Z" fill="#FAFCFC"/>
<path d="M34.6727 27.7492C33.8243 25.52 37.0187 25.9281 36.4066 27.5243C36.2755 27.8661 35.4088 28.2062 35.3445 28.7474L35.1737 28.5577L34.8589 28.5483L35.117 28.3471C35.0022 28.0118 34.9701 27.948 34.6727 27.7492Z" fill="#0F5E9E"/>
<path d="M34.6726 27.7491C34.8411 27.5071 35.0201 27.1978 35.2809 27.0757L35.4243 27.086C35.5432 27.5255 35.1127 28.1066 35.1169 28.3469C35.0022 28.0117 34.9701 27.9478 34.6726 27.7491Z" fill="#E3FEFF"/>
<path d="M28.2428 3.90677C29.0036 3.87079 29.7945 4.11289 30.2055 4.80367C30.4006 5.12913 30.4568 5.51948 30.3615 5.88685C30.1998 6.51586 29.7801 6.77612 29.2634 7.07913C27.3225 7.22709 26.0901 4.88359 28.2428 3.90677Z" fill="#FAFCFC"/>
<path d="M28.6899 4.41309C28.8149 4.44181 28.9889 4.48378 29.1052 4.53198C29.3431 4.63131 29.5306 4.82289 29.625 5.06299C29.8967 5.76661 29.3838 6.28481 28.7658 6.52016C27.373 6.14832 27.6166 5.07802 28.6899 4.41309Z" fill="#0F5E9E"/>
<path d="M31.9892 6.0249C32.1941 6.08341 33.0588 6.92455 33.1929 7.08288C33.8769 7.90867 33.9062 8.43257 32.8343 8.79984C32.6967 8.84702 32.3987 9.96243 31.815 9.90598C31.649 9.67092 31.5858 9.66399 31.5824 9.40884L32.0317 8.55127L31.3905 7.77115C31.1303 8.00589 30.7653 8.39623 30.4403 8.45712C30.2307 8.29762 30.2934 8.37803 30.2122 8.09205C30.3105 7.4916 31.4731 6.53094 31.9892 6.0249Z" fill="#FAFCFC"/>
<path d="M32.1264 6.8855C32.6599 7.16137 33.0911 7.62659 32.7143 8.20634C32.4155 8.03591 31.8921 7.79446 31.795 7.4765C31.8417 7.1359 31.8736 7.19186 32.1264 6.8855Z" fill="#2E78B8"/>
<path d="M16.8797 2.02434C18.0725 1.80183 17.8992 3.56585 18.2603 4.50879C18.1273 4.64989 17.9987 4.65939 17.8115 4.69854C17.037 4.39935 17.7724 3.65937 16.0695 3.9375C16.1016 4.27195 16.1284 4.4824 16.1993 4.81034C16.0936 5.09357 16.1676 5.00437 15.8872 5.15819L15.7201 5.10489C15.3208 4.68049 15.0728 3.00482 14.9443 2.365C15.6677 2.19775 16.1426 2.11501 16.8797 2.02434Z" fill="#FAFCFC"/>
<path d="M16.51 2.60222C16.8135 2.54656 16.9137 2.54511 17.1374 2.73518L17.1415 2.92951C16.9262 3.25698 16.9706 3.16853 16.5834 3.36369C16.194 3.39634 16.0483 3.44295 15.8085 3.11289L15.8595 2.9042C16.0131 2.68589 16.2475 2.66455 16.51 2.60222Z" fill="#0F5E9E"/>
<path d="M35.5873 21.687C36.4408 21.7624 37.6096 22.029 38.4439 22.2208C38.2516 23.1958 38.2046 25.0039 36.9284 24.7572C36.3708 24.2597 35.8316 24.3893 35.0481 24.4C35.2945 23.4765 35.3248 23.7146 36.1521 23.6398C36.4838 23.6099 36.6119 22.9371 36.5178 22.6352C36.2751 22.4175 36.0933 22.5009 35.6802 22.3293C35.4838 22.0517 35.548 22.1091 35.5873 21.687Z" fill="#FAFCFC"/>
<path d="M37.0531 22.6162C37.32 22.6799 37.5679 22.7037 37.7152 22.9337C37.8205 23.2376 37.6284 23.7201 37.5323 24.0477C37.1951 24.0887 37.1103 24.0148 36.9307 23.7697C36.8487 23.4182 36.9767 22.9778 37.0531 22.6162Z" fill="#2E78B8"/>
<path d="M5.26489 8.78658C5.77193 8.36142 6.61669 7.0788 7.20681 7.15966L7.338 7.39107C7.55725 7.69618 7.58584 7.8066 8.0213 7.78448C8.08043 8.4755 7.40671 8.69481 7.17796 9.35792C7.22456 9.6587 7.16818 9.59143 7.35944 9.76113C8.01691 9.75403 8.44836 8.34887 9.10386 8.55861C9.16984 9.03957 7.81038 10.3558 7.44158 10.7675C6.67392 10.0997 5.99282 9.49628 5.26489 8.78658Z" fill="#FAFCFC"/>
<path d="M7.33802 7.39111C7.55727 7.69622 7.58585 7.80664 8.02132 7.78452C7.43649 8.00036 6.84408 9.01233 6.33127 8.80125L6.31494 8.57811C6.61637 8.06228 6.91113 7.80772 7.33802 7.39111Z" fill="#0F5E9E"/>
<path d="M1.99538 15.5681L2.0162 15.5692C2.55807 15.6013 4.42705 15.7437 4.78965 16.1342C4.88006 16.2315 4.84084 16.296 4.82601 16.4415C4.43864 17.0109 3.33241 17.4065 2.67618 17.6938C3.23376 17.8474 3.95006 17.8696 4.35692 18.1186C4.54477 18.3946 4.47385 18.3757 4.43076 18.7963C3.77217 18.6948 1.70874 18.5733 1.6947 17.8156C1.99951 17.2308 3.09815 16.8615 3.71199 16.5995C3.15543 16.4027 2.59346 16.4369 2.13507 16.1627C1.93911 15.9044 1.99813 15.946 1.99538 15.5681Z" fill="#FAFCFC"/>
<path d="M10.1447 4.36816C10.5066 4.54457 11.6864 6.14864 11.783 6.5919C11.8309 6.81152 11.7713 6.86674 11.6628 7.02426C11.2143 7.20608 9.83266 6.58359 9.20805 6.39347C9.5172 6.89495 10.0106 7.45225 10.2237 7.98178C10.2345 8.00874 10.1139 8.20972 10.09 8.25334L9.77022 8.29713C9.34676 8.03827 8.29509 6.56554 8.12866 6.06222C8.19122 5.86867 8.48849 5.69281 8.66845 5.56303C9.38161 5.86756 10.0367 6.08025 10.7695 6.32207C10.4966 5.84248 10.0042 5.36578 9.89016 4.84212C9.8528 4.67035 10.0227 4.5226 10.1447 4.36816Z" fill="#FAFCFC"/>
<path d="M37.4233 14.04C37.5701 14.0459 37.5458 14.059 37.687 14.1461C37.9551 14.838 36.7494 15.9813 36.3035 16.5268C36.7446 16.4036 37.9048 15.9742 38.2497 16.2398C38.2894 16.5151 38.2925 16.4169 38.1445 16.6929C37.5348 16.992 36.2838 17.2542 35.5662 17.435C35.1171 16.5241 36.2699 15.6842 36.8227 14.975C36.2964 15.0555 35.3356 15.5183 34.9272 15.2174C34.8037 14.9602 34.8157 15.063 34.8539 14.798C35.5104 14.5144 36.6981 14.2338 37.4233 14.04Z" fill="#FAFCFC"/>
<path d="M16.0556 34.6938C16.224 34.702 16.4639 34.708 16.6124 34.7919C16.8504 34.9261 16.9723 35.2598 17.0432 35.5071C17.13 35.8098 17.449 37.8448 17.3684 37.9912C16.4645 38.0545 16.8367 37.4825 16.3123 37.1551C15.2894 36.8796 15.1519 37.4226 14.3984 37.3381L14.3417 37.2016C14.6444 36.3647 15.4836 35.3788 16.0556 34.6938Z" fill="#FAFCFC"/>
<path d="M16.2221 35.644C16.3683 35.7491 16.4378 35.955 16.4817 36.1242C16.5314 36.3163 16.5085 36.4621 16.4076 36.6317C16.3875 36.6655 16.1519 36.7113 16.1008 36.7245C15.9377 36.6366 15.8097 36.5731 15.7177 36.4034C15.781 36.0827 16.0126 35.8897 16.2221 35.644Z" fill="#2E78B8"/>
<path d="M24.7413 34.5699C24.7485 34.5694 24.7556 34.5683 24.7627 34.5684C24.989 34.5702 25.028 34.5865 25.1757 34.7434C25.022 35.3315 23.7527 35.1286 23.3172 35.6581C23.4609 36.1284 24.8473 35.622 25.2441 35.9224C24.9716 36.5009 23.9986 36.196 23.6078 36.7951C23.6432 36.9348 23.6405 36.9744 23.7716 37.0519C24.1441 37.2719 24.7259 37.0357 25.1176 36.9368C25.3002 36.9005 25.4511 36.8803 25.6385 36.9048L25.7637 37.0899L25.7315 37.2334C25.2965 37.7091 23.7672 37.8481 23.1295 37.9769C22.8999 37.0052 22.6623 36.0357 22.4895 35.0519C23.2353 34.8696 23.9862 34.7088 24.7413 34.5699Z" fill="#FAFCFC"/>
<path d="M4.35228 23.0703C4.42035 23.0784 4.61518 23.1062 4.65135 23.1474C5.01537 23.5617 5.32091 25.0492 5.44877 25.565C4.61395 25.8688 3.60078 26.1691 2.74408 26.4463C2.54858 25.8967 2.00193 24.5928 2.11236 24.0406C2.13611 23.9219 2.32006 23.8643 2.45002 23.7983C2.77676 24.4442 2.63628 25.238 3.30376 25.5176C3.80862 25.2895 2.96603 24.4321 3.20116 23.8099C3.40567 23.6998 3.32057 23.7178 3.57111 23.772C3.80443 24.0094 3.934 24.7378 4.0854 25.1374C4.32521 25.2457 4.23139 25.2283 4.53199 25.116C4.93846 24.4935 4.03736 23.9507 4.35228 23.0703Z" fill="#FAFCFC"/>
<path d="M35.8392 10.4695C36.0715 10.6749 36.8648 12.2147 36.9792 12.568C36.8784 12.7667 36.9223 12.7035 36.7151 12.8339C36.0751 12.539 36.0587 11.3858 35.4916 11.4529C35.1617 11.8787 35.9904 12.6134 35.8855 13.0697C35.6423 13.1919 35.7289 13.1913 35.4989 13.1368C35.2876 12.8201 35.0954 12.4939 34.8996 12.1676C34.8372 12.0497 34.7767 12.0267 34.6642 11.9614L34.4259 12.0626C34.1521 12.668 34.9129 13.2784 34.8943 13.8974L34.7675 13.9907L34.5876 13.9407C34.1376 13.4789 33.6374 12.3959 33.3323 11.7805C34.1793 11.3839 34.9615 10.8743 35.8392 10.4695Z" fill="#FAFCFC"/>
<path d="M7.35938 29.1189C7.48003 29.1854 7.62477 29.2547 7.71315 29.3624C7.88477 29.5715 7.79771 29.9058 7.76734 30.1624C8.03474 31.0951 8.73317 30.755 9.29369 31.0573C9.38804 31.1082 9.5577 31.3727 9.63596 31.4662L8.15679 31.9355L6.66241 32.5228C6.47346 32.3354 6.32275 32.0845 6.16895 31.8666C6.47879 30.9248 6.96657 30.0296 7.35938 29.1189Z" fill="#FAFCFC"/>
<path d="M7.44224 30.7019C7.60922 30.8558 7.72696 30.9765 7.81895 31.19C7.72867 31.4375 7.6273 31.455 7.40679 31.5836L7.16538 31.5608C7.12025 31.3454 7.36058 30.9274 7.44224 30.7019Z" fill="#0F5E9E"/>
<path d="M4.30377 19.4009C4.54922 19.8529 4.24182 20.1679 3.98613 20.5365C3.36822 21.4272 4.7855 21.9369 4.48544 22.4812C4.07492 22.4739 3.41223 22.2417 2.99257 22.1132C2.35213 21.9214 1.49852 21.7572 1.65361 20.9371C2.04338 20.3557 3.58068 19.7504 4.30377 19.4009Z" fill="#FAFCFC"/>
<path d="M3.17857 20.7773L3.29974 20.8079L3.38206 21.0052C3.32769 21.2663 3.37555 21.1775 3.19027 21.3664L2.87008 21.3587L2.56909 21.1616L2.61267 21.0244L3.17857 20.7773Z" fill="#2E78B8"/>
<path d="M5.04724 26.5679C5.23687 26.56 5.46836 26.5365 5.65307 26.5815C5.95588 26.6553 6.32519 27.0725 6.48747 27.3282C6.69135 27.6493 6.84679 28.1368 6.75986 28.5171C6.70531 28.7557 6.58612 29.011 6.38037 29.1382C6.09653 28.8652 6.15304 28.2095 6.0856 27.8257C6.04127 27.5734 5.95004 27.4681 5.74838 27.3261C5.56119 27.3417 5.49534 27.3349 5.34745 27.4497C5.33008 28.0217 5.7622 28.5223 5.74883 29.1132C5.74366 29.341 5.53236 29.4768 5.38222 29.6258C5.27186 29.6793 5.15039 29.7367 5.02766 29.7523C4.77734 29.784 4.50086 29.6774 4.31018 29.5178C3.93673 29.2052 3.76752 28.6955 3.7329 28.2231C3.71313 27.9532 3.72696 27.6402 3.9157 27.4287C3.95978 27.3794 4.0496 27.3906 4.11492 27.3858C4.47807 27.8054 4.22001 28.5756 4.64402 29.0783C4.69277 29.1361 4.76253 29.1244 4.83536 29.1307C5.06549 28.6532 4.69538 27.6641 4.70625 27.1237C4.71117 26.8787 4.88326 26.7268 5.04724 26.5679Z" fill="#FAFCFC"/>
<path d="M36.6624 18.2293C37.2349 18.1952 37.8952 18.1963 38.4752 18.1836C38.4854 18.831 38.5396 20.0974 38.4496 20.691L38.2717 20.7952C37.8094 20.5544 38.1199 19.5775 37.8563 18.9783C37.6461 18.916 37.7229 18.9264 37.4935 18.9794C37.207 19.5554 37.8127 20.2922 37.1258 20.7053C36.6727 20.3126 37.1043 19.4929 36.8185 19.0208C36.5743 18.9179 36.52 18.9288 36.2722 18.9939C36.0382 19.2728 36.2846 20.2372 36.184 20.823L36.019 20.9271L35.8503 20.8781C35.5622 20.4228 35.6513 18.8554 35.6539 18.2469L36.6624 18.2293Z" fill="#FAFCFC"/>
<path d="M19.1573 1.71777C19.5469 1.72458 21.4833 1.69134 21.6938 1.86766C21.7255 2.12892 21.751 2.03697 21.6015 2.23969C21.1039 2.24474 20.2027 2.10783 19.8642 2.45602C19.9082 2.9648 21.2284 2.79448 21.5884 3.14399C21.2959 3.40881 20.5042 3.32497 20.0628 3.32563C20.0051 3.33357 19.943 3.38925 19.8908 3.42685C19.8398 3.68172 19.8123 3.76608 19.9086 4.01428C20.2464 4.22589 21.4539 3.88367 21.7898 4.29597L21.7366 4.42209C21.2927 4.69251 19.6724 4.59366 19.0791 4.58639C19.0789 3.71671 19.0581 2.55728 19.1573 1.71777Z" fill="#FAFCFC"/>
<path d="M19.7176 35.165C20.0322 35.1433 20.3528 35.1179 20.6642 35.181C21.165 35.2824 21.4913 35.5859 21.7665 36.0029C21.6152 36.2378 20.2278 35.697 19.7771 35.9014C19.6172 35.9747 19.4926 36.1081 19.4302 36.2726C19.3288 36.5344 19.3369 36.9514 19.4551 37.2066C19.5817 37.4799 19.8307 37.6201 20.1024 37.7152C20.3388 37.7161 20.4891 37.6374 20.6912 37.5289C20.8544 37.4163 21.0696 37.2612 21.2567 37.2017C21.4312 37.1462 21.5186 37.1716 21.672 37.2543L21.6863 37.4575C21.5595 37.7229 21.4028 37.9039 21.143 38.0479C20.7182 38.2833 20.0919 38.3298 19.6299 38.1907C19.2632 38.0803 18.9604 37.8444 18.7796 37.5043C18.5693 37.1085 18.5532 36.6389 18.6854 36.2157C18.8619 35.6506 19.2179 35.4238 19.7176 35.165Z" fill="#FAFCFC"/>
<path d="M4.67113 10.3855C5.06205 10.3943 5.05401 10.3376 5.35512 10.5104C5.1278 11.0158 4.25752 11.2413 4.12 11.7575C3.93005 12.4705 4.90019 13.0596 5.55281 12.764C6.15544 12.2091 5.76106 11.3074 6.14236 10.9922C6.39672 11.149 6.35923 11.1989 6.51617 11.5107C6.85194 13.6257 4.50023 14.2167 3.61723 12.7075C3.44287 12.4116 3.3935 12.0583 3.48005 11.7259C3.63167 11.158 4.17455 10.6679 4.67113 10.3855Z" fill="#FAFCFC"/>
<path d="M24.6645 2.27954C25.2224 2.43239 26.529 2.84124 27.0073 3.1136L27.006 3.26507C26.4749 3.61914 25.679 2.93481 25.1525 3.19513C25.0701 3.45044 25.0701 3.34561 25.2049 3.63224C25.4548 3.86074 26.0776 4.00904 26.4256 4.11576C26.4094 4.2327 26.3424 4.31729 26.2778 4.41555C25.9893 4.50268 25.2555 4.21158 24.9283 4.10331C24.7706 4.4646 24.6198 4.99076 24.3305 5.19781C24.1165 5.17673 24.1888 5.19807 24.0109 5.00589C23.8233 4.39222 24.4281 2.97221 24.6645 2.27954Z" fill="#FAFCFC"/>
<path d="M32.3386 29.3877C32.6088 29.4429 32.914 29.6943 33.1805 29.8054C33.9228 30.1149 34.6888 30.1364 35.4796 30.1802L34.8527 30.8143C34.53 30.7727 33.8734 30.6134 33.5817 30.7529L33.6113 30.9278C33.6999 31.137 33.7934 31.3548 33.8458 31.5764C33.9423 31.9842 33.717 32.2786 33.5137 32.6115C33.2953 32.0087 33.0637 31.0001 32.6519 30.5103C32.436 30.2535 32.1232 30.1028 31.932 29.8228L32.3386 29.3877Z" fill="#FAFCFC"/>
<path d="M13.6944 2.84961C13.9274 2.86547 13.8625 2.83194 14.0355 2.95423L14.016 3.08291C13.8125 3.33623 13.5164 3.42286 13.2151 3.54065C13.4222 4.29345 13.9822 5.13674 13.8709 5.80084C13.6856 6.0319 13.7786 5.97197 13.4996 6.04951C13.2705 5.89973 13.1346 5.48835 13.0189 5.22093L12.4686 3.92195C12.1231 4.06727 11.9818 4.12919 11.6152 4.1952L11.4304 4.04383L11.5369 4.20054L11.398 4.05904L11.3114 4.18738C11.6488 3.51279 12.9965 3.09775 13.6944 2.84961Z" fill="#FAFCFC"/>
<path d="M28.1456 33.803C28.4436 33.6607 28.7956 33.6944 29.0611 33.8907C29.3267 34.087 29.4626 34.4137 29.4147 34.7407C29.3668 35.0677 29.1429 35.3416 28.8322 35.4531C28.3839 35.6142 27.8884 35.395 27.7052 34.9548C27.5222 34.5148 27.7159 34.0082 28.1456 33.803Z" fill="#FAFCFC"/>
<path d="M11.8066 33.737C12.289 33.6732 12.7322 34.0115 12.7986 34.4941C12.8649 34.9767 12.5295 35.4223 12.0478 35.4913C11.5624 35.561 11.1132 35.2219 11.0463 34.7355C10.9795 34.2492 11.3205 33.8012 11.8066 33.737Z" fill="#FAFCFC"/>
<path d="M174.985 27.942C175 28.092 175.033 28.1173 175.13 28.2305C175.498 28.0043 175.935 26.031 176.239 25.4023C176.46 25.2441 176.727 25.281 177 25.287V25.4439C176.568 26.3572 176.311 27.4281 175.952 28.3934C175.63 29.259 175.168 31.212 173.901 30.972C173.733 30.9404 173.689 30.5936 173.704 30.4475C174.19 30.1686 174.608 30.4257 174.74 29.8619C174.818 29.5282 174.841 29.2227 174.721 28.9023C174.855 28.752 174.775 28.5301 174.78 28.3529C174.781 28.3284 174.963 27.9865 174.985 27.942Z" fill="#B3B3B3"/>
<path d="M174.721 28.9022C174.472 28.2675 173.432 25.842 173.524 25.3358C173.781 25.2739 173.68 25.2767 173.963 25.3866C174.468 25.8829 174.771 27.2204 174.985 27.9419C174.964 27.9864 174.781 28.3283 174.78 28.3528C174.775 28.5299 174.855 28.7519 174.721 28.9022Z" fill="#B3B3B3"/>
</svg>
