<svg width="164" height="32" viewBox="0 0 164 32" fill="none" xmlns="http://www.w3.org/2000/svg">
<g clip-path="url(#clip0_2094_1080)">
<path d="M47.1393 26.3845V19.0272H37.8029V26.3845H34.9763V8.68726H37.8029V16.3983H47.1393V8.68726H49.9408V26.3845H47.1393Z" fill="#B3B3B3"/>
<path d="M56.0975 10.2549C56.0975 12.4044 52.8677 12.4044 52.8677 10.2549C52.8677 8.1053 56.0975 8.13043 56.0975 10.2549ZM53.1706 13.8697V26.3844H55.7695V13.8697H53.1706Z" fill="#B3B3B3"/>
<path d="M60.9675 13.92L61.145 15.5631C62.0538 13.9702 63.4661 13.6416 64.8032 13.6416C66.0149 13.6416 67.1764 14.0707 67.8825 14.7029L66.696 16.9781C66.065 16.4735 65.4592 16.2203 64.5003 16.2203C62.7079 16.2203 61.1431 17.3318 61.1431 19.6341V26.3844H58.5442V13.92H60.9675Z" fill="#B3B3B3"/>
<path d="M70.4795 21.1264C70.7072 23.0228 72.2719 24.2619 74.5428 24.2619C75.8047 24.2619 77.3945 23.7805 78.1508 22.9222L79.841 24.5654C78.5541 25.9804 76.4086 26.6898 74.4907 26.6898C70.4023 26.6898 67.7783 24.086 67.7783 20.0903C67.7783 16.0947 70.4274 13.5933 74.3132 13.5933C78.1991 13.5933 81.0507 16.0463 80.5722 21.1264H70.4776H70.4795ZM78.0756 18.9266C77.9232 16.9549 76.4858 15.9187 74.3904 15.9187C72.4977 15.9187 70.9329 16.9549 70.5297 18.9266H78.0756Z" fill="#B3B3B3"/>
<path d="M98.1376 22.7946H90.7943L89.5324 26.3843H86.5303L92.8124 8.78955H96.1426L102.427 26.3843H99.3975L98.1357 22.7946H98.1376ZM97.3311 20.444L94.4794 12.2787L91.6027 20.444H97.3311Z" fill="#B3B3B3"/>
<path d="M125.065 12.8337L119.058 21.202H118.452L112.521 12.8337V26.4116H109.695V8.7124H112.975L118.804 17.0053L124.607 8.7124H127.887V26.4116H125.061V12.8337H125.065Z" fill="#B3B3B3"/>
<path d="M140.81 13.92H143.334V26.3844H140.86L140.735 24.3624C139.901 25.9553 137.984 26.715 136.444 26.715C132.811 26.7401 130.06 24.3895 130.06 20.1406C130.06 15.8917 132.911 13.6436 136.494 13.6436C138.261 13.6436 139.952 14.4786 140.733 15.8936L140.808 13.9219L140.81 13.92ZM132.658 20.1406C132.658 22.7193 134.476 24.287 136.697 24.287C142.072 24.287 142.072 16.0193 136.697 16.0193C134.476 16.0193 132.658 17.587 132.658 20.1406Z" fill="#B3B3B3"/>
<path d="M149.035 10.2549C149.035 12.4044 145.806 12.4044 145.806 10.2549C145.806 8.1053 149.035 8.13043 149.035 10.2549ZM146.109 13.8697V26.3844H148.707V13.8697H146.109Z" fill="#B3B3B3"/>
<path d="M164 8.7124V26.3845H161.551L161.399 24.4128C160.415 26.0056 158.75 26.6377 157.083 26.6377C153.475 26.6377 150.724 24.262 150.724 20.1407C150.724 16.0194 153.423 13.6437 157.033 13.6437C158.547 13.6437 160.591 14.4014 161.399 15.8686V8.7124H163.998H164ZM153.324 20.1407C153.324 22.644 155.065 24.2117 157.26 24.2117C159.456 24.2117 161.222 22.5938 161.222 20.1407C161.222 17.6876 159.429 16.0948 157.26 16.0948C155.092 16.0948 153.324 17.5852 153.324 20.1407Z" fill="#B3B3B3"/>
<path d="M21.3219 6.95508C20.8319 6.95508 20.3437 7.01694 19.871 7.13872C19.4195 7.2547 18.9816 7.42868 18.5706 7.65098C18.096 7.90808 17.6599 8.23284 17.2721 8.61365C17.1177 8.76443 16.973 8.92487 16.8399 9.08918C16.0025 10.1195 15.5414 11.4185 15.5414 12.7465V16.1352C15.5414 17.2351 14.6481 18.1282 13.5522 18.1282C12.4563 18.1282 11.563 17.2351 11.563 16.1352V12.7465C11.563 11.4166 11.1018 10.1176 10.2645 9.08918C10.1313 8.92487 9.98663 8.76636 9.83228 8.61365C9.44447 8.23284 9.00649 7.90808 8.53379 7.65098C8.12282 7.42868 7.68485 7.2547 7.23336 7.13872C6.76066 7.01694 6.27252 6.95508 5.78245 6.95508C2.59313 6.95508 0 9.55312 0 12.7465V26.2065C0 29.3999 2.59313 31.998 5.78052 31.998C8.96791 31.998 11.561 29.3999 11.561 26.2065V22.9705H11.5552L11.5572 22.9667C7.79675 21.1979 7.76781 16.516 7.76781 16.516V16.1333C7.76781 18.2616 8.93125 20.214 10.8008 21.2288C12.4794 22.1393 14.623 22.1393 16.3016 21.2288C18.0747 20.2662 19.2092 18.4607 19.3211 16.4619V16.8601C19.2304 17.9697 18.696 21.4782 15.5607 22.9609L15.5395 22.9705V26.2065C15.5395 29.3999 18.1326 31.998 21.32 31.998C24.5074 31.998 27.1005 29.3999 27.1005 26.2065V12.7465C27.1005 9.55312 24.5074 6.95508 21.32 6.95508H21.3219Z" fill="#B3B3B3"/>
<path d="M21.2062 5.78374C22.798 5.78374 24.0926 4.48665 24.0926 2.89187C24.0926 1.29709 22.798 0 21.2062 0C19.6145 0 18.3198 1.29709 18.3198 2.89187C18.3198 4.48665 19.6145 5.78374 21.2062 5.78374Z" fill="#B3B3B3"/>
<path d="M5.89617 5.78374C7.48793 5.78374 8.78257 4.48665 8.78257 2.89187C8.78257 1.29709 7.48793 0 5.89617 0C4.3044 0 3.00977 1.29709 3.00977 2.89187C3.00977 4.48665 4.3044 5.78374 5.89617 5.78374Z" fill="#B3B3B3"/>
</g>
<defs>
<clipPath id="clip0_2094_1080">
<rect width="164" height="32" fill="white"/>
</clipPath>
</defs>
</svg>
