<svg width="171" height="40" viewBox="0 0 171 40" fill="none" xmlns="http://www.w3.org/2000/svg">
<g clip-path="url(#clip0_2094_1155)">
<path d="M39.0556 39.7674C37.4239 39.7674 35.7922 39.186 34.5102 38.1395L30.431 38.6047H29.382C29.1489 38.7209 28.7993 38.7209 28.5662 38.8372C26.0021 39.3023 23.3215 39.4186 22.0395 39.5349H21.6898C20.6766 39.5388 19.6772 39.2996 18.7761 38.8372C16.0955 39.3023 13.2983 39.4186 12.3659 39.5349H12.0163C8.51984 39.5349 5.48958 36.8605 5.02338 33.4884C4.90684 32.7907 4.90684 32.093 4.90684 30.9302V21.3953C3.04206 20.4651 1.64348 18.8372 1.17728 16.7442C0.711089 15 0.0117977 11.3953 0.0117977 9.53488C-0.104751 7.67442 0.59454 5.81395 1.99312 4.4186C3.04206 3.25581 4.55719 2.55814 6.18887 2.32558C6.42197 2.32558 7.4709 2.09302 7.4709 2.09302H7.82055L15.6293 0.697674L17.0279 0.465116L17.8437 0.348837C19.3589 0.116279 20.2912 0 21.2236 0H21.8064C24.7201 0.232558 27.2842 2.2093 28.1 5V5.11628C28.3331 5 28.6827 5 29.0324 4.88372C30.7806 4.53488 33.4612 4.06977 35.6756 3.95349H36.0253C37.3073 3.95349 38.5894 4.30233 39.7548 5C40.5707 4.88372 41.3865 4.65116 42.0858 4.53488C42.4355 4.4186 42.7851 4.4186 43.1348 4.30233C44.0671 4.06977 44.9995 3.95349 46.0485 3.83721C46.3981 3.72093 49.0787 3.37209 49.778 3.37209H50.5939C51.4097 2.7907 52.4586 2.44186 53.391 2.32558C53.5076 2.32558 54.6731 2.09302 54.6731 2.09302H55.0227L62.7149 0.697674L64.23 0.465116L65.0459 0.348837C66.561 0.116279 67.4934 0 68.4258 0H69.0085C71.8057 0.232558 74.2532 2.09302 75.1856 4.76744H75.3021C77.5166 4.76744 79.6144 5.34884 81.5958 6.51163L84.1598 5.11628C85.0922 4.65116 86.0246 4.53488 87.0735 4.53488C87.8894 4.53488 88.5887 4.65116 89.288 4.88372C90.4535 4.06977 91.852 3.60465 93.2506 3.60465C93.9499 3.60465 94.6492 3.72093 95.3485 3.95349C95.465 3.95349 95.8147 4.06977 96.1643 4.18605C96.7471 3.72093 97.4464 3.37209 98.1457 3.13953C103.274 1.27907 108.052 0.697674 112.831 0.232558H113.53C116.327 0.232558 118.891 1.86047 119.94 4.53488C120.057 4.76744 120.173 5.11628 120.29 5.34884C120.989 5.11628 121.688 5 122.504 4.88372C122.97 4.88372 123.437 4.76744 123.903 4.76744C126.157 4.76782 128.371 5.37004 130.313 6.51163C130.779 6.27907 131.245 6.16279 131.712 6.04651C133.343 5.69767 136.14 5.11628 138.938 5H139.637C140.103 4.76744 140.686 4.65116 141.269 4.65116C143.716 4.30233 145.814 4.18605 147.562 4.18605H148.145C149.31 4.18605 150.476 4.53488 151.525 5.11628C152.457 5 153.273 4.76744 154.089 4.65116C154.439 4.53488 154.788 4.53488 155.138 4.4186C156.07 4.18605 157.003 4.06977 158.052 3.95349C158.401 3.83721 161.082 3.48837 161.781 3.48837H162.364C165.511 3.48837 168.308 5.5814 169.124 8.72093C169.724 11.2751 170.037 13.8882 170.056 16.5116C170.056 17.6744 169.706 18.8372 169.124 19.8837L169.473 22.907C169.473 23.0233 169.59 23.0233 169.59 23.1395C170.289 24.8837 170.872 28.1395 170.988 31.0465C171.222 34.5349 168.774 37.6744 165.278 38.3721C162.597 38.8372 160.616 39.0698 158.867 39.186L156.07 39.5349L155.021 39.6512C154.205 39.7674 153.39 39.7674 152.108 40H151.292C149.777 40 148.262 39.5349 146.979 38.6047C145.464 39.0698 144.299 39.3023 143.716 39.3023C143.366 39.4186 142.9 39.4186 142.551 39.4186C141.618 39.4186 140.569 39.186 139.753 38.8372C137.475 39.169 135.179 39.3632 132.877 39.4186C131.479 39.4186 130.196 39.0698 129.031 38.2558C127.399 38.9535 125.768 39.3023 124.019 39.3023C123.087 39.3023 122.271 39.186 121.688 39.0698H121.455C119.94 38.8372 118.542 38.3721 117.26 37.6744H117.027C115.395 37.907 114.346 38.1395 113.297 38.3721C112.131 38.6046 110.849 38.8372 109.101 39.0698C108.285 39.186 107.353 39.4186 106.537 39.5349H106.304C104.672 39.8837 104.09 40 103.274 40C101.992 40 100.71 39.6512 99.6608 38.9535C98.8449 39.186 97.9126 39.186 97.0967 39.186C96.1643 39.186 95.2319 39.0698 94.2996 38.8372C93.2506 39.4186 92.0851 39.7674 90.8031 39.7674C90.2204 39.7674 89.6376 39.6512 88.9383 39.5349C86.881 38.9492 84.8578 38.2504 82.8778 37.4419L82.1785 37.093C80.0806 38.4884 77.7497 39.186 75.3021 39.186C74.3698 39.186 73.5539 39.0698 72.9712 38.9535H72.7381C71.3395 38.7209 70.174 38.3721 68.892 37.6744C68.0761 38.2558 67.2603 38.6047 66.2114 38.8372C64.0233 39.2743 61.7994 39.5079 59.5681 39.5349H59.2185C57.5868 39.5349 56.0716 38.9535 54.7896 38.0233H54.0903C53.7407 38.1395 53.5076 38.2558 53.1579 38.2558C50.4773 38.7209 48.496 38.9535 46.7478 39.0698L43.9506 39.4186H42.7851C41.9693 39.5349 41.1534 39.5349 39.8714 39.7674C39.6383 39.6512 39.2886 39.7674 39.0556 39.7674ZM54.0903 9.06977C54.1447 9.06977 54.1447 9.06977 54.0903 9.06977Z" fill="#B3B3B3"/>
<path d="M165.977 24.0697C165.86 23.8371 165.86 23.7209 165.744 23.4883V23.2558C165.627 21.5116 165.394 19.7674 165.161 18.6046C165.86 18.0232 166.326 17.093 166.326 16.0464C166.326 13.1395 165.86 10.2325 165.511 9.18598C165.044 7.55808 163.529 6.39529 161.781 6.62784C161.198 6.62784 158.634 6.97668 158.285 7.09296L155.604 7.55808C155.254 7.67436 154.905 7.67436 154.438 7.79063L150.359 8.60459C149.66 7.90691 148.844 7.4418 147.795 7.4418C146.047 7.4418 143.949 7.55808 141.502 7.90691C140.919 8.02319 140.453 8.13947 139.986 8.48831C139.637 8.37203 139.287 8.37203 138.821 8.37203C136.373 8.48831 133.693 9.0697 132.178 9.30226C131.362 9.41854 130.662 9.88366 130.08 10.5813C127.865 8.60459 125.301 7.79064 122.737 8.02319C120.989 8.25575 119.357 9.0697 117.959 10.1162C117.959 9.99994 117.842 9.88366 117.842 9.76738C117.493 8.37203 117.143 6.97668 116.444 5.58133C115.861 4.18598 114.462 3.25575 112.831 3.48831C108.285 3.95343 103.74 4.53482 98.9613 6.16273C98.0289 6.51157 97.3296 7.20924 96.98 8.02319C96.0393 7.59476 95.0648 7.24473 94.0663 6.97668C92.5511 6.51157 90.9194 7.09296 89.9871 8.48831C89.8705 8.72087 89.754 8.83715 89.6374 9.18598C89.2878 8.60459 88.705 8.25575 88.1223 7.90691C87.2227 7.55779 86.2247 7.55779 85.3251 7.90691C83.81 8.60459 82.2949 9.6511 81.2459 10.3488C79.0315 8.48831 76.584 7.67436 74.0199 8.02319C73.3206 8.13947 72.7379 8.25575 72.0386 8.60459C71.922 7.4418 71.8055 6.51157 71.5724 5.81389C71.1062 4.41854 69.9407 3.37203 68.4256 3.25575C67.7263 3.25575 66.9105 3.37203 65.2788 3.60459C65.0457 3.60459 64.8126 3.72087 64.696 3.72087H64.5795L63.1809 3.95343C60.9665 4.30226 57.5866 4.99994 55.2556 5.34877H54.7894C54.4398 5.46505 53.9736 5.46505 53.7405 5.58133C52.9246 5.69761 52.1088 6.04645 51.6426 6.62784L51.4095 6.8604C50.9433 6.62784 50.3606 6.62784 49.8944 6.62784C49.3116 6.62784 46.7476 6.97668 46.3979 7.09296C45.4655 7.20924 44.5331 7.4418 43.7173 7.55808C43.3677 7.67436 43.018 7.67436 42.5518 7.79063C41.3863 8.02319 39.8712 8.25575 38.7057 8.48831C38.5892 8.37203 38.5892 8.25575 38.4726 8.25575C37.7733 7.55808 36.7244 7.20924 35.792 7.20924C33.5776 7.32552 30.897 7.79064 29.6149 8.02319C29.2653 8.13947 28.7991 8.25575 28.4494 8.48831C28.2163 8.48831 27.8667 8.37203 27.5171 8.37203C26.7012 8.37203 25.8854 8.48831 25.0695 8.60459C24.953 7.32552 24.8364 6.27901 24.6033 5.58133C24.1371 4.18598 22.9717 3.13947 21.4565 3.02319C20.7572 3.02319 19.8249 3.13947 18.3097 3.37203C18.0766 3.37203 17.8435 3.48831 17.727 3.48831H17.6104L16.2118 3.72087C13.9974 4.06971 10.6175 4.76738 8.40309 5.11622H8.28655L7.82035 5.2325C7.47071 5.34877 7.00451 5.34877 6.77142 5.46505C5.83903 5.69761 5.02319 6.04645 4.44044 6.62784C3.8577 7.32552 3.50806 8.25575 3.50806 9.18598C3.50806 10.5813 4.0908 13.6046 4.55699 15.6976C4.90664 17.4418 6.65487 18.6046 8.40309 18.372V30.6976C8.40309 31.7441 8.40309 32.3255 8.51964 32.7906C8.75274 34.5348 10.2679 35.8139 12.0161 35.8139H12.1326C13.065 35.8139 15.7457 35.6976 18.1932 35.1162L19.2421 34.7674C19.8249 35.3488 20.7572 35.8139 21.6896 35.8139H21.9227C23.0882 35.8139 25.6523 35.6976 27.9832 35.2325L29.0322 34.8837C29.3818 34.9999 29.848 34.9999 30.1977 34.9999C31.2466 34.8837 33.5776 34.7674 35.9085 34.186C36.1416 34.6511 36.3747 34.9999 36.7244 35.2325C37.4237 35.8139 38.2395 36.1627 39.0554 36.1627H39.405C40.8036 36.0464 41.6194 35.9302 42.4353 35.8139L43.3677 35.6976H43.4842L46.3979 35.3488C48.1461 35.1162 50.0109 34.9999 52.4584 34.5348L53.5074 34.186C53.9736 34.3023 54.5563 34.3023 55.1391 34.3023H56.188C56.8873 35.2325 57.9362 35.9302 59.1017 35.9302H59.2183C60.1506 35.9302 62.8313 35.8139 65.2788 35.2325C66.5608 34.9999 67.4932 34.0697 67.9594 32.9069C69.358 34.0697 70.9897 34.9999 72.971 35.3488H73.2041C73.7868 35.4651 74.3696 35.4651 75.1854 35.4651C77.1667 35.4651 78.7984 34.8837 80.4301 33.7209C81.1294 33.2557 81.7121 32.6744 82.1783 31.9767C82.5368 32.8409 83.2002 33.5441 84.0431 33.9534C85.2086 34.4185 87.3064 35.2325 89.6374 35.8139C89.8705 35.9302 90.2202 35.9302 90.5698 35.9302C91.1525 35.9302 91.8518 35.8139 92.318 35.4651C92.6677 35.2325 93.0173 34.9999 93.2504 34.6511C94.2994 35.1162 95.5814 35.3488 96.7469 35.3488C97.9124 35.3488 99.0779 35.1162 100.127 34.6511C100.826 35.5813 101.758 36.0464 102.924 36.0464C103.39 36.0464 103.74 36.0464 105.255 35.6976H105.488C106.304 35.5813 107.353 35.3488 108.052 35.2325C109.684 34.9999 110.849 34.7674 112.015 34.5348C113.064 34.3023 114.229 34.0697 115.977 33.8371C116.444 33.7209 116.793 33.6046 117.143 33.372C118.308 34.3023 119.823 34.8837 121.455 35.2325H121.688C122.271 35.3488 122.854 35.3488 123.67 35.3488C125.651 35.3488 127.283 34.7674 128.914 33.6046L129.264 33.2558C129.536 33.8899 129.992 34.4282 130.574 34.8012C131.156 35.1743 131.836 35.365 132.527 35.3488C133.11 35.3488 136.024 35.3488 138.821 34.8837L139.87 34.5348C140.453 35.1162 141.385 35.4651 142.201 35.4651H142.784C143.716 35.3488 145.697 34.8837 147.795 34.0697C148.028 34.5348 148.261 34.8837 148.611 35.1162C149.31 35.6976 150.126 36.0464 150.942 36.0464H151.292C152.69 35.9302 153.506 35.8139 154.322 35.6976L155.254 35.5813H155.371L158.285 35.2325C160.033 34.9999 161.898 34.8837 164.345 34.4185C166.093 34.0697 167.259 32.5581 167.142 30.8139C167.026 28.1395 166.443 25.3488 165.977 24.0697Z" fill="white"/>
<g opacity="0.25">
<path d="M22.0392 7.44189C21.4565 7.44189 19.5917 7.79073 19.009 7.79073L9.68509 9.41864L7.82031 9.76748C7.82031 10.6977 8.28651 13.3721 8.86925 15.6977L12.8319 14.7675V26.3954L12.7154 31.5117V33.2558C13.5312 33.2558 16.0953 33.1396 18.4262 32.6745L18.3097 27.7907V19.4186L18.5428 13.4884C19.009 13.3721 19.3586 13.2558 19.8248 13.2558C20.4076 13.1396 22.1558 13.0233 22.622 12.907L22.0392 7.44189V7.44189Z" fill="#B3B3B3"/>
<path d="M36.3746 24.535V24.3024L36.4912 21.628L36.8408 11.5117C34.8595 11.628 32.2954 12.0931 31.0134 12.3257V19.6513C31.0134 20.0001 30.8969 20.814 30.8969 21.0466C30.3141 21.1629 30.081 21.1629 29.3817 21.1629C28.9155 21.2792 28.6824 21.1629 28.3328 21.2792V17.3257L28.4493 12.5582C26.3515 12.6745 23.5543 13.2559 22.6219 13.3722V28.9536L22.5054 33.0233C23.5543 33.0233 26.0018 32.9071 28.0997 32.442V26.8606C29.1486 26.628 29.7314 26.628 30.7803 26.5117V32.0931C31.7127 31.9768 34.2768 31.8606 36.6077 31.2792V26.628C36.3746 26.1629 36.3746 25.3489 36.3746 24.535V24.535Z" fill="#B3B3B3"/>
<path d="M51.6427 26.1627L48.1462 26.8604C47.2138 27.093 46.398 27.2092 45.4656 27.3255V25.8139C46.0483 25.5813 47.2138 25.3488 47.68 25.2325L51.0599 24.4185V23.7209C50.9434 21.9767 50.5937 20.3488 50.4772 19.7674L45.6987 20.5813V18.0232C46.0483 17.9069 51.0599 17.093 51.7592 16.9767C51.7592 14.4185 51.293 11.8604 51.0599 10.9302C50.7103 10.9302 48.1462 11.279 47.68 11.3953L43.9505 12.093L38.3561 13.2558C38.3561 13.2558 38.123 14.186 38.123 16.1627L38.2396 19.5348L39.7547 19.186V33.6046L43.7174 33.2558L52.5751 32.093C52.4585 29.186 51.8758 26.8604 51.6427 26.1627Z" fill="#B3B3B3"/>
<path d="M69.1249 7.44189C68.5422 7.44189 66.6774 7.79073 66.0947 7.79073L56.7708 9.41864L54.906 9.76748C54.906 10.6977 55.3722 13.3721 55.9549 15.6977L59.9176 14.7675V25.4651L59.801 31.3954V33.1396C61.7174 33.1014 63.6274 32.907 65.5119 32.5582L65.3954 27.6745V19.3024L65.6285 13.3721C66.0947 13.2558 66.4443 13.1396 66.9105 13.1396C67.3767 13.0233 69.2415 12.907 69.7077 12.7907C69.5911 10.814 69.4746 8.37213 69.1249 7.44189V7.44189Z" fill="#B3B3B3"/>
<path d="M82.4114 17.5581C82.0617 16.3953 81.2459 15.1162 80.4301 14.3023C79.148 13.0232 77.3998 12.093 75.4185 12.3255C73.0875 12.5581 70.8731 14.8837 69.8242 16.7441C68.5421 19.0697 68.309 20.4651 68.1925 23.0232V23.1395C67.9594 27.4418 70.2903 32.093 74.4861 32.7907C74.9523 32.9069 75.535 32.9069 76.0012 32.9069C77.1667 32.9069 78.0991 32.5581 79.148 31.8604C80.0804 31.1627 80.7797 30.3488 81.3625 29.3023C82.0617 28.3721 82.4114 27.3255 82.6445 26.279C83.1107 25 83.1107 23.4883 83.1107 22.5581C83.2272 20.4651 82.9941 19.186 82.4114 17.5581V17.5581ZM77.3998 24.186C77.1667 25 76.7005 26.8604 75.7681 27.3255C74.7192 27.6744 74.0199 25.8139 73.9034 25.1162C73.7868 24.4186 73.6703 23.6046 73.6703 22.7907C73.6703 22.2093 73.6703 21.7441 73.9034 21.279C74.1364 20.3488 74.4861 18.8372 75.4185 18.2558C76.7005 17.5581 77.3998 20.4651 77.5164 21.279V22.6744C77.5164 23.1395 77.5164 23.7209 77.3998 24.186Z" fill="#B3B3B3"/>
<path d="M93.9496 11.0466C93.7165 11.3955 92.9007 13.8373 92.6676 14.1862C91.9683 15.5815 91.6186 16.9769 91.269 18.3722C90.8028 17.7908 90.4532 17.0931 90.1035 16.5117C89.4042 15.349 87.8891 12.3257 87.7725 11.9769C86.0243 12.7908 84.043 14.1862 83.1106 14.8838C83.3437 15.4652 85.5581 19.4187 85.9078 20.0001C86.374 20.8141 86.7236 21.2792 87.0732 21.7443C87.1898 21.9769 87.3063 22.2094 87.5394 22.442L88.7049 24.1862L88.1222 26.1629C87.7725 26.9769 86.4905 30.8141 86.374 31.628L91.5021 33.3722C91.6186 32.7908 92.9007 29.1862 93.1338 28.4885L94.1827 25.6978L95.4647 22.2094C95.4647 22.0931 95.5813 21.9769 95.5813 21.8606C96.164 20.5815 96.3971 19.535 97.0964 17.9071C97.4461 16.9769 98.6116 13.9536 99.1943 13.1397C97.4796 12.3612 95.7294 11.6628 93.9496 11.0466V11.0466V11.0466Z" fill="#B3B3B3"/>
<path d="M115.278 25.6976L112.597 26.279L108.635 27.093L111.199 22.093L112.597 19.6511L114.812 16.1628C115.252 15.3724 115.719 14.5968 116.21 13.8372L114.346 7.55811C109.917 8.02322 105.721 8.48834 101.292 10.1162C101.525 11.1628 101.992 13.7209 102.574 15.6976C104.156 15.0724 105.795 14.605 107.469 14.3023C108.052 14.186 108.984 13.9535 109.684 13.9535C109.567 14.4186 108.868 15.4651 108.635 15.9302C108.402 16.3953 108.052 16.8604 107.819 17.3255L105.371 21.6279L105.022 22.3255C104.439 23.3721 103.973 24.5348 103.39 25.5814C103.157 26.0465 102.574 27.3255 102.225 28.0232C102.574 29.4186 103.04 31.5116 103.973 33.7209C104.206 33.7209 105.838 33.3721 106.071 33.3721C106.77 33.2558 107.819 33.1395 108.635 32.9069C111.665 32.4418 112.947 32.093 116.677 31.5116L115.278 25.6976V25.6976Z" fill="#B3B3B3"/>
<path d="M131.129 17.5581C130.779 16.3953 129.963 15.1162 129.147 14.3023C127.865 13.0232 126.117 12.093 124.136 12.3255C121.688 12.5581 119.59 14.8837 118.541 16.7441C117.376 18.8372 117.026 20.1162 116.91 22.2093V23.0232C116.677 27.3255 119.008 31.9767 123.203 32.7907C123.67 32.9069 124.252 32.9069 124.719 32.9069C125.884 32.9069 126.816 32.5581 127.865 31.8604C128.798 31.1627 129.497 30.3488 130.08 29.3023C130.779 28.3721 131.129 27.3255 131.362 26.279C131.828 25 131.828 23.4883 131.828 22.5581V22.3255C131.828 20.3488 131.711 19.0697 131.129 17.5581V17.5581ZM126.001 24.186C125.767 25 125.301 26.8604 124.369 27.3255C123.32 27.6744 122.621 25.8139 122.504 25.1162C122.388 24.4186 122.271 23.6046 122.271 22.7907V22.2093C122.271 21.8604 122.388 21.5116 122.388 21.1627C122.621 20.2325 122.97 18.7209 123.903 18.1395C125.185 17.4418 125.884 20.3488 126.001 21.1627V22.2093C126.117 22.9069 126.234 23.6046 126.001 24.186V24.186Z" fill="#B3B3B3"/>
<path d="M148.378 27.5582L148.145 23.721V22.6744L148.261 18.9535L148.494 11.6279C146.28 11.6279 143.832 11.8605 142.667 11.9768L142.55 17.3256L142.667 20.3489C141.851 18.721 140.453 13.721 139.753 12.4419C137.539 12.5582 135.091 13.0233 133.576 13.3721V22.5582L133.227 29.8837V32.7907C134.275 32.7907 136.723 32.6744 138.937 32.3256V28.0233C138.937 26.8605 139.054 25.6977 139.287 24.5349L140.569 27.093L141.618 30C141.968 31.0465 142.434 32.093 142.9 32.907C144.066 32.6744 146.513 32.2093 148.611 31.1628C148.728 30.5814 148.494 28.0233 148.378 27.5582Z" fill="#B3B3B3"/>
<path d="M163.529 26.1627L160.149 26.8604C159.217 27.093 158.401 27.2092 157.469 27.3255V25.8139C158.051 25.5813 159.217 25.3488 159.683 25.2325L163.063 24.4185C163.063 24.0697 162.946 23.6046 162.946 23.2558C162.83 21.7441 162.48 20.3488 162.364 19.7674L157.585 20.5813V18.0232C157.935 17.9069 162.946 17.093 163.529 16.9767C163.529 14.4185 163.063 11.8604 162.83 10.9302C161.696 11.0281 160.568 11.1833 159.45 11.3953L155.72 12.093L150.126 13.2558C150.126 13.2558 149.893 14.186 149.893 16.1627L150.01 19.5348L151.641 19.186V22.7906L151.758 26.6278V33.6046L155.72 33.2558L164.578 32.093C164.345 29.186 163.879 26.8604 163.529 26.1627Z" fill="#B3B3B3"/>
<path d="M22.0392 7.44189C21.4565 7.44189 19.5917 7.79073 19.009 7.79073L9.68509 9.41864L7.82031 9.76748C7.82031 10.6977 8.28651 13.3721 8.86925 15.6977L12.8319 14.7675V26.3954L12.7154 31.5117V33.2558C13.5312 33.2558 16.0953 33.1396 18.4262 32.6745L18.3097 27.7907V19.4186L18.5428 13.4884C19.009 13.3721 19.3586 13.2558 19.8248 13.2558C20.4076 13.1396 22.1558 13.0233 22.622 12.907L22.0392 7.44189V7.44189Z" fill="#B3B3B3"/>
<path d="M36.3746 24.535V24.3024L36.4912 21.628L36.8408 11.5117C34.8595 11.628 32.2954 12.0931 31.0134 12.3257V19.6513C31.0134 20.0001 30.8969 20.814 30.8969 21.0466C30.3141 21.1629 30.081 21.1629 29.3817 21.1629C28.9155 21.2792 28.6824 21.1629 28.3328 21.2792V17.3257L28.4493 12.5582C26.3515 12.6745 23.5543 13.2559 22.6219 13.3722V28.9536L22.5054 33.0233C23.5543 33.0233 26.0018 32.9071 28.0997 32.442V26.8606C29.1486 26.628 29.7314 26.628 30.7803 26.5117V32.0931C31.7127 31.9768 34.2768 31.8606 36.6077 31.2792V26.628C36.3746 26.1629 36.3746 25.3489 36.3746 24.535V24.535Z" fill="#B3B3B3"/>
<path d="M51.6427 26.1627L48.1462 26.8604C47.2138 27.093 46.398 27.2092 45.4656 27.3255V25.8139C46.0483 25.5813 47.2138 25.3488 47.68 25.2325L51.0599 24.4185V23.7209C50.9434 21.9767 50.5937 20.3488 50.4772 19.7674L45.6987 20.5813V18.0232C46.0483 17.9069 51.0599 17.093 51.7592 16.9767C51.7592 14.4185 51.293 11.8604 51.0599 10.9302C50.7103 10.9302 48.1462 11.279 47.68 11.3953L43.9505 12.093L38.3561 13.2558C38.3561 13.2558 38.123 14.186 38.123 16.1627L38.2396 19.5348L39.7547 19.186V33.6046L43.7174 33.2558L52.5751 32.093C52.4585 29.186 51.8758 26.8604 51.6427 26.1627Z" fill="#B3B3B3"/>
<path d="M69.1249 7.44189C68.5422 7.44189 66.6774 7.79073 66.0947 7.79073L56.7708 9.41864L54.906 9.76748C54.906 10.6977 55.3722 13.3721 55.9549 15.6977L59.9176 14.7675V25.4651L59.801 31.3954V33.1396C61.7174 33.1014 63.6274 32.907 65.5119 32.5582L65.3954 27.6745V19.3024L65.6285 13.3721C66.0947 13.2558 66.4443 13.1396 66.9105 13.1396C67.3767 13.0233 69.2415 12.907 69.7077 12.7907C69.5911 10.814 69.4746 8.37213 69.1249 7.44189V7.44189Z" fill="#B3B3B3"/>
<path d="M82.4114 17.5581C82.0617 16.3953 81.2459 15.1162 80.4301 14.3023C79.148 13.0232 77.3998 12.093 75.4185 12.3255C73.0875 12.5581 70.8731 14.8837 69.8242 16.7441C68.5421 19.0697 68.309 20.4651 68.1925 23.0232V23.1395C67.9594 27.4418 70.2903 32.093 74.4861 32.7907C74.9523 32.9069 75.535 32.9069 76.0012 32.9069C77.1667 32.9069 78.0991 32.5581 79.148 31.8604C80.0804 31.1627 80.7797 30.3488 81.3625 29.3023C82.0617 28.3721 82.4114 27.3255 82.6445 26.279C83.1107 25 83.1107 23.4883 83.1107 22.5581C83.2272 20.4651 82.9941 19.186 82.4114 17.5581V17.5581ZM77.3998 24.186C77.1667 25 76.7005 26.8604 75.7681 27.3255C74.7192 27.6744 74.0199 25.8139 73.9034 25.1162C73.7868 24.4186 73.6703 23.6046 73.6703 22.7907C73.6703 22.2093 73.6703 21.7441 73.9034 21.279C74.1364 20.3488 74.4861 18.8372 75.4185 18.2558C76.7005 17.5581 77.3998 20.4651 77.5164 21.279V22.6744C77.5164 23.1395 77.5164 23.7209 77.3998 24.186Z" fill="#B3B3B3"/>
<path d="M93.9496 11.0466C93.7165 11.3955 92.9007 13.8373 92.6676 14.1862C91.9683 15.5815 91.6186 16.9769 91.269 18.3722C90.8028 17.7908 90.4532 17.0931 90.1035 16.5117C89.4042 15.349 87.8891 12.3257 87.7725 11.9769C86.0243 12.7908 84.043 14.1862 83.1106 14.8838C83.3437 15.4652 85.5581 19.4187 85.9078 20.0001C86.374 20.8141 86.7236 21.2792 87.0732 21.7443C87.1898 21.9769 87.3063 22.2094 87.5394 22.442L88.7049 24.1862L88.1222 26.1629C87.7725 26.9769 86.4905 30.8141 86.374 31.628L91.5021 33.3722C91.6186 32.7908 92.9007 29.1862 93.1338 28.4885L94.1827 25.6978L95.4647 22.2094C95.4647 22.0931 95.5813 21.9769 95.5813 21.8606C96.164 20.5815 96.3971 19.535 97.0964 17.9071C97.4461 16.9769 98.6116 13.9536 99.1943 13.1397C97.4796 12.3612 95.7294 11.6628 93.9496 11.0466V11.0466V11.0466Z" fill="#B3B3B3"/>
<path d="M115.278 25.6976L112.597 26.279L108.635 27.093L111.199 22.093L112.597 19.6511L114.812 16.1628C115.252 15.3724 115.719 14.5968 116.21 13.8372L114.346 7.55811C109.917 8.02322 105.721 8.48834 101.292 10.1162C101.525 11.1628 101.992 13.7209 102.574 15.6976C104.156 15.0724 105.795 14.605 107.469 14.3023C108.052 14.186 108.984 13.9535 109.684 13.9535C109.567 14.4186 108.868 15.4651 108.635 15.9302C108.402 16.3953 108.052 16.8604 107.819 17.3255L105.371 21.6279L105.022 22.3255C104.439 23.3721 103.973 24.5348 103.39 25.5814C103.157 26.0465 102.574 27.3255 102.225 28.0232C102.574 29.4186 103.04 31.5116 103.973 33.7209C104.206 33.7209 105.838 33.3721 106.071 33.3721C106.77 33.2558 107.819 33.1395 108.635 32.9069C111.665 32.4418 112.947 32.093 116.677 31.5116L115.278 25.6976V25.6976Z" fill="#B3B3B3"/>
<path d="M131.129 17.5581C130.779 16.3953 129.963 15.1162 129.147 14.3023C127.865 13.0232 126.117 12.093 124.136 12.3255C121.688 12.5581 119.59 14.8837 118.541 16.7441C117.376 18.8372 117.026 20.1162 116.91 22.2093V23.0232C116.677 27.3255 119.008 31.9767 123.203 32.7907C123.67 32.9069 124.252 32.9069 124.719 32.9069C125.884 32.9069 126.816 32.5581 127.865 31.8604C128.798 31.1627 129.497 30.3488 130.08 29.3023C130.779 28.3721 131.129 27.3255 131.362 26.279C131.828 25 131.828 23.4883 131.828 22.5581V22.3255C131.828 20.3488 131.711 19.0697 131.129 17.5581V17.5581ZM126.001 24.186C125.767 25 125.301 26.8604 124.369 27.3255C123.32 27.6744 122.621 25.8139 122.504 25.1162C122.388 24.4186 122.271 23.6046 122.271 22.7907V22.2093C122.271 21.8604 122.388 21.5116 122.388 21.1627C122.621 20.2325 122.97 18.7209 123.903 18.1395C125.185 17.4418 125.884 20.3488 126.001 21.1627V22.2093C126.117 22.9069 126.234 23.6046 126.001 24.186V24.186Z" fill="#B3B3B3"/>
<path d="M148.378 27.5582L148.145 23.721V22.6744L148.261 18.9535L148.494 11.6279C146.28 11.6279 143.832 11.8605 142.667 11.9768L142.55 17.3256L142.667 20.3489C141.851 18.721 140.453 13.721 139.753 12.4419C137.539 12.5582 135.091 13.0233 133.576 13.3721V22.5582L133.227 29.8837V32.7907C134.275 32.7907 136.723 32.6744 138.937 32.3256V28.0233C138.937 26.8605 139.054 25.6977 139.287 24.5349L140.569 27.093L141.618 30C141.968 31.0465 142.434 32.093 142.9 32.907C144.066 32.6744 146.513 32.2093 148.611 31.1628C148.728 30.5814 148.494 28.0233 148.378 27.5582Z" fill="#B3B3B3"/>
<path d="M163.529 26.1627L160.149 26.8604C159.217 27.093 158.401 27.2092 157.469 27.3255V25.8139C158.051 25.5813 159.217 25.3488 159.683 25.2325L163.063 24.4185C163.063 24.0697 162.946 23.6046 162.946 23.2558C162.83 21.7441 162.48 20.3488 162.364 19.7674L157.585 20.5813V18.0232C157.935 17.9069 162.946 17.093 163.529 16.9767C163.529 14.4185 163.063 11.8604 162.83 10.9302C161.696 11.0281 160.568 11.1833 159.45 11.3953L155.72 12.093L150.126 13.2558C150.126 13.2558 149.893 14.186 149.893 16.1627L150.01 19.5348L151.641 19.186V22.7906L151.758 26.6278V33.6046L155.72 33.2558L164.578 32.093C164.345 29.186 163.879 26.8604 163.529 26.1627Z" fill="#B3B3B3"/>
</g>
<path d="M21.2236 6.62793C20.6408 6.62793 18.776 6.97677 18.1933 6.97677L8.86941 8.60467C8.17012 8.83723 7.12119 9.06979 7.00464 9.06979C7.00464 10 7.47083 12.6744 8.05357 15L12.0162 14.0698V25.6977L11.8997 30.814V32.5582C12.7155 32.5582 15.2796 32.4419 17.6106 31.9768L17.494 27.093V18.721L17.7271 12.7907C18.1933 12.6744 18.5429 12.5582 19.0091 12.5582C19.5919 12.4419 21.3401 12.3256 21.8063 12.2093L21.2236 6.62793V6.62793Z" fill="#B3B3B3"/>
<path d="M35.559 23.721V23.4885L35.6755 20.814L36.0252 10.6978C34.0438 10.814 31.4798 11.2792 30.1977 11.5117V18.8373C30.1977 19.1861 30.0812 20.0001 30.0812 20.2326C29.4984 20.3489 29.2654 20.3489 28.5661 20.3489C28.0999 20.4652 27.8668 20.3489 27.5171 20.4652V16.5117L27.6337 11.7443C25.5358 11.8605 22.7386 12.4419 21.8062 12.5582V28.1396L21.6897 32.2094C22.7386 32.2094 25.1862 32.0931 27.284 31.628V26.0466C28.333 25.814 28.9157 25.814 29.9646 25.6978V31.2791C30.897 31.1629 33.4611 31.0466 35.7921 30.4652V25.814C35.559 25.3489 35.559 24.535 35.559 23.721V23.721Z" fill="#B3B3B3"/>
<path d="M50.827 25.3488L47.3305 26.0464C46.3982 26.279 45.5823 26.3953 44.6499 26.5116V24.9999C45.2327 24.7674 46.3982 24.5348 46.8644 24.4185L50.2443 23.6046V22.9069C50.1277 21.1627 49.7781 19.5348 49.6615 18.9534L44.883 19.7674V17.2092C45.2327 17.093 50.2443 16.279 50.9436 16.1627C50.9436 13.6046 50.4774 11.0464 50.2443 10.1162C49.8946 10.1162 47.3305 10.465 46.8644 10.5813L43.1348 11.279L37.5405 12.4418C37.5405 12.4418 37.3074 13.372 37.3074 15.3488L37.4239 18.7209L38.9391 18.372V32.7906L42.9017 32.4418L51.7594 31.279C51.6428 28.372 51.0601 26.0464 50.827 25.3488Z" fill="#B3B3B3"/>
<path d="M68.3093 6.62793C67.7265 6.62793 65.8617 6.97677 65.279 6.97677L55.9551 8.60467L54.0903 8.95351C54.0903 9.88374 54.5565 12.5582 55.1393 14.8837L59.1019 13.9535V24.6512L58.9854 30.5814V32.3256C60.9017 32.2875 62.8117 32.093 64.6962 31.7442L64.5797 26.8605V18.4884L64.8128 12.5582C65.279 12.4419 65.6286 12.3256 66.0948 12.3256C66.561 12.2093 68.4258 12.093 68.892 11.9768C68.7754 10 68.6589 7.55816 68.3093 6.62793V6.62793Z" fill="#B3B3B3"/>
<path d="M81.5957 16.7441C81.2461 15.5813 80.4302 14.3023 79.6144 13.4883C78.3324 12.2092 76.5841 11.279 74.6028 11.5116C72.2718 11.7441 70.0574 14.0697 69.0085 15.9302C67.7264 18.2558 67.4933 19.6511 67.3768 22.2092V22.3255C67.1437 26.6279 69.4747 31.279 73.6704 32.093C74.2532 32.2092 74.7194 32.2092 75.1856 32.2092C76.351 32.2092 77.2834 31.8604 78.3324 31.1627C79.2647 30.4651 79.964 29.6511 80.5468 28.6046C81.2461 27.6744 81.5957 26.6279 81.8288 25.5813C82.295 24.3023 82.295 22.7906 82.295 21.8604C82.4116 19.6511 82.1785 18.372 81.5957 16.7441V16.7441ZM76.5841 23.372C76.351 24.186 75.8848 26.0465 74.9524 26.5116C73.9035 26.8604 73.2042 24.9999 73.0877 24.186C72.9711 23.4883 72.8546 22.6744 72.8546 21.9767C72.8546 21.3953 72.8546 20.9302 73.0877 20.4651C73.3208 19.5348 73.6704 18.0232 74.6028 17.4418C75.8848 16.7441 76.5841 19.6511 76.7007 20.4651V21.8604C76.7007 22.3255 76.7007 22.9069 76.5841 23.372Z" fill="#B3B3B3"/>
<path d="M93.1339 10.2327C92.9008 10.5815 92.085 13.0234 91.8519 13.3722C91.1526 14.7675 90.803 16.1629 90.4533 17.5582C89.9871 16.9769 89.6375 16.2792 89.2878 15.6978C88.5885 14.535 87.0734 11.5117 86.9569 11.1629C85.2086 11.9769 83.2273 13.3722 82.2949 14.0699C82.528 14.6513 84.7424 18.6048 85.0921 19.1862C85.5583 20.0001 85.9079 20.4652 86.2576 20.9303C86.3741 21.1629 86.4907 21.3955 86.7238 21.628L87.8893 23.3722L87.3065 25.3489C86.9569 26.1629 85.6748 30.0001 85.5583 30.8141L90.6864 32.5582C90.803 31.9769 92.085 28.3722 92.3181 27.6745L93.367 24.8838L94.6491 21.3955C94.6491 21.2792 94.7656 21.1629 94.7656 21.0466C95.3484 19.7675 95.5815 18.721 96.2807 17.0931C96.6304 16.1629 97.7959 13.1396 98.3786 12.3257C96.6639 11.5472 94.9138 10.8488 93.1339 10.2327V10.2327V10.2327Z" fill="#B3B3B3"/>
<path d="M114.462 24.8837L111.782 25.4651L107.819 26.279L110.383 21.279L111.782 18.8372L113.996 15.3488C114.437 14.5584 114.903 13.7828 115.395 13.0232L113.53 6.74414C109.101 7.20926 104.905 7.67437 100.477 9.30228C100.71 10.3488 101.176 12.9069 101.759 14.8837C103.34 14.2584 104.98 13.791 106.654 13.4883C107.236 13.372 108.169 13.1395 108.868 13.1395C108.752 13.6046 108.052 14.6511 107.819 15.1162C107.586 15.5813 107.236 16.0465 107.003 16.5116L104.556 20.8139L104.206 21.5116C103.623 22.5581 103.157 23.7209 102.574 24.7674C102.341 25.2325 101.759 26.5116 101.409 27.2093C101.759 28.6046 102.225 30.6976 103.157 32.9069C103.39 32.9069 105.022 32.5581 105.255 32.5581C105.954 32.4418 107.003 32.3255 107.819 32.093C110.849 31.6279 112.131 31.279 115.861 30.6976L114.462 24.8837V24.8837Z" fill="#B3B3B3"/>
<path d="M130.313 16.7441C129.963 15.5813 129.148 14.3023 128.332 13.4883C127.05 12.2092 125.301 11.279 123.32 11.5116C120.873 11.7441 118.775 14.0697 117.726 15.9302C116.56 18.0232 116.211 19.3023 116.094 21.3953V22.2092C115.861 26.5116 118.192 31.1627 122.388 31.9767C122.854 32.093 123.437 32.093 123.903 32.093C125.068 32.093 126.001 31.7441 127.05 31.0465C127.982 30.3488 128.681 29.5348 129.264 28.4883C129.963 27.5581 130.313 26.5116 130.546 25.4651C131.012 24.186 131.012 22.6744 131.012 21.7441V21.5116C131.012 19.5348 130.896 18.2558 130.313 16.7441V16.7441ZM125.185 23.372C124.952 24.186 124.486 26.0465 123.553 26.5116C122.504 26.8604 121.805 24.9999 121.688 24.186C121.572 23.4883 121.455 22.6744 121.455 21.9767V21.3953C121.455 21.0465 121.572 20.6976 121.572 20.3488C121.805 19.4186 122.155 17.9069 123.087 17.3255C124.369 16.6279 125.068 19.5348 125.185 20.3488V21.3953C125.301 22.093 125.418 22.7906 125.185 23.372V23.372Z" fill="#B3B3B3"/>
<path d="M147.562 26.7442L147.329 22.907V21.8605L147.446 18.1395L147.679 10.814C145.464 10.814 143.017 11.0465 141.851 11.1628L141.735 16.5116L141.851 19.5349C141.035 17.907 139.637 12.907 138.938 11.6279C136.723 11.7442 134.276 12.2093 132.761 12.5582V21.7442L132.411 29.0698V31.9768C133.46 31.9768 135.907 31.8605 138.122 31.5116V27.2093C138.122 26.0465 138.238 24.8837 138.471 23.7209L139.753 26.2791L140.802 29.1861C141.152 30.2326 141.618 31.2791 142.084 32.093C143.25 31.8605 145.697 31.3954 147.795 30.3488C147.912 29.7675 147.679 27.2093 147.562 26.7442Z" fill="#B3B3B3"/>
<path d="M162.714 25.3488L159.334 26.0464C158.401 26.279 157.585 26.3953 156.653 26.5116V24.9999C157.236 24.7674 158.401 24.5348 158.867 24.4185L162.247 23.6046C162.247 23.2557 162.131 22.7906 162.131 22.4418C162.014 20.9302 161.665 19.5348 161.548 18.9534L156.77 19.7674V17.2092C157.119 17.093 162.131 16.279 162.714 16.1627C162.714 13.6046 162.247 11.0464 162.014 10.1162C160.88 10.2141 159.752 10.3693 158.634 10.5813L154.905 11.279L149.31 12.4418C149.31 12.4418 149.077 13.372 149.077 15.3488L149.194 18.7209L150.826 18.372V21.9767L150.942 25.9302V32.7906L154.905 32.4418L163.762 31.279C163.529 28.372 163.063 26.0464 162.714 25.3488V25.3488Z" fill="#B3B3B3"/>
<path d="M21.2236 6.62793C20.6408 6.62793 18.776 6.97677 18.1933 6.97677L8.86941 8.60467C8.17012 8.83723 7.12119 9.06979 7.00464 9.06979C7.00464 10 7.47083 12.6744 8.05357 15L12.0162 14.0698V25.6977L11.8997 30.814V32.5582C12.7155 32.5582 15.2796 32.4419 17.6106 31.9768L17.494 27.093V18.721L17.7271 12.7907C18.1933 12.6744 18.5429 12.5582 19.0091 12.5582C19.5919 12.4419 21.3401 12.3256 21.8063 12.2093L21.2236 6.62793V6.62793Z" fill="#B3B3B3"/>
<path d="M35.559 23.721V23.4885L35.6755 20.814L36.0252 10.6978C34.0438 10.814 31.4798 11.2792 30.1977 11.5117V18.8373C30.1977 19.1861 30.0812 20.0001 30.0812 20.2326C29.4984 20.3489 29.2654 20.3489 28.5661 20.3489C28.0999 20.4652 27.8668 20.3489 27.5171 20.4652V16.5117L27.6337 11.7443C25.5358 11.8605 22.7386 12.4419 21.8062 12.5582V28.1396L21.6897 32.2094C22.7386 32.2094 25.1862 32.0931 27.284 31.628V26.0466C28.333 25.814 28.9157 25.814 29.9646 25.6978V31.2791C30.897 31.1629 33.4611 31.0466 35.7921 30.4652V25.814C35.559 25.3489 35.559 24.535 35.559 23.721V23.721Z" fill="#B3B3B3"/>
<path d="M50.827 25.3488L47.3305 26.0464C46.3982 26.279 45.5823 26.3953 44.6499 26.5116V24.9999C45.2327 24.7674 46.3982 24.5348 46.8644 24.4185L50.2443 23.6046V22.9069C50.1277 21.1627 49.7781 19.5348 49.6615 18.9534L44.883 19.7674V17.2092C45.2327 17.093 50.2443 16.279 50.9436 16.1627C50.9436 13.6046 50.4774 11.0464 50.2443 10.1162C49.8946 10.1162 47.3305 10.465 46.8644 10.5813L43.1348 11.279L37.5405 12.4418C37.5405 12.4418 37.3074 13.372 37.3074 15.3488L37.4239 18.7209L38.9391 18.372V32.7906L42.9017 32.4418L51.7594 31.279C51.6428 28.372 51.0601 26.0464 50.827 25.3488Z" fill="#B3B3B3"/>
<path d="M68.3093 6.62793C67.7265 6.62793 65.8617 6.97677 65.279 6.97677L55.9551 8.60467L54.0903 8.95351C54.0903 9.88374 54.5565 12.5582 55.1393 14.8837L59.1019 13.9535V24.6512L58.9854 30.5814V32.3256C60.9017 32.2875 62.8117 32.093 64.6962 31.7442L64.5797 26.8605V18.4884L64.8128 12.5582C65.279 12.4419 65.6286 12.3256 66.0948 12.3256C66.561 12.2093 68.4258 12.093 68.892 11.9768C68.7754 10 68.6589 7.55816 68.3093 6.62793V6.62793Z" fill="#B3B3B3"/>
<path d="M81.5957 16.7441C81.2461 15.5813 80.4302 14.3023 79.6144 13.4883C78.3324 12.2092 76.5841 11.279 74.6028 11.5116C72.2718 11.7441 70.0574 14.0697 69.0085 15.9302C67.7264 18.2558 67.4933 19.6511 67.3768 22.2092V22.3255C67.1437 26.6279 69.4747 31.279 73.6704 32.093C74.2532 32.2092 74.7194 32.2092 75.1856 32.2092C76.351 32.2092 77.2834 31.8604 78.3324 31.1627C79.2647 30.4651 79.964 29.6511 80.5468 28.6046C81.2461 27.6744 81.5957 26.6279 81.8288 25.5813C82.295 24.3023 82.295 22.7906 82.295 21.8604C82.4116 19.6511 82.1785 18.372 81.5957 16.7441V16.7441ZM76.5841 23.372C76.351 24.186 75.8848 26.0465 74.9524 26.5116C73.9035 26.8604 73.2042 24.9999 73.0877 24.186C72.9711 23.4883 72.8546 22.6744 72.8546 21.9767C72.8546 21.3953 72.8546 20.9302 73.0877 20.4651C73.3208 19.5348 73.6704 18.0232 74.6028 17.4418C75.8848 16.7441 76.5841 19.6511 76.7007 20.4651V21.8604C76.7007 22.3255 76.7007 22.9069 76.5841 23.372Z" fill="#B3B3B3"/>
<path d="M93.1339 10.2327C92.9008 10.5815 92.085 13.0234 91.8519 13.3722C91.1526 14.7675 90.803 16.1629 90.4533 17.5582C89.9871 16.9769 89.6375 16.2792 89.2878 15.6978C88.5885 14.535 87.0734 11.5117 86.9569 11.1629C85.2086 11.9769 83.2273 13.3722 82.2949 14.0699C82.528 14.6513 84.7424 18.6048 85.0921 19.1862C85.5583 20.0001 85.9079 20.4652 86.2576 20.9303C86.3741 21.1629 86.4907 21.3955 86.7238 21.628L87.8893 23.3722L87.3065 25.3489C86.9569 26.1629 85.6748 30.0001 85.5583 30.8141L90.6864 32.5582C90.803 31.9769 92.085 28.3722 92.3181 27.6745L93.367 24.8838L94.6491 21.3955C94.6491 21.2792 94.7656 21.1629 94.7656 21.0466C95.3484 19.7675 95.5815 18.721 96.2807 17.0931C96.6304 16.1629 97.7959 13.1396 98.3786 12.3257C96.6639 11.5472 94.9138 10.8488 93.1339 10.2327V10.2327V10.2327Z" fill="#B3B3B3"/>
<path d="M114.462 24.8837L111.782 25.4651L107.819 26.279L110.383 21.279L111.782 18.8372L113.996 15.3488C114.437 14.5584 114.903 13.7828 115.395 13.0232L113.53 6.74414C109.101 7.20926 104.905 7.67437 100.477 9.30228C100.71 10.3488 101.176 12.9069 101.759 14.8837C103.34 14.2584 104.98 13.791 106.654 13.4883C107.236 13.372 108.169 13.1395 108.868 13.1395C108.752 13.6046 108.052 14.6511 107.819 15.1162C107.586 15.5813 107.236 16.0465 107.003 16.5116L104.556 20.8139L104.206 21.5116C103.623 22.5581 103.157 23.7209 102.574 24.7674C102.341 25.2325 101.759 26.5116 101.409 27.2093C101.759 28.6046 102.225 30.6976 103.157 32.9069C103.39 32.9069 105.022 32.5581 105.255 32.5581C105.954 32.4418 107.003 32.3255 107.819 32.093C110.849 31.6279 112.131 31.279 115.861 30.6976L114.462 24.8837V24.8837Z" fill="#B3B3B3"/>
<path d="M130.313 16.7441C129.963 15.5813 129.148 14.3023 128.332 13.4883C127.05 12.2092 125.301 11.279 123.32 11.5116C120.873 11.7441 118.775 14.0697 117.726 15.9302C116.56 18.0232 116.211 19.3023 116.094 21.3953V22.2092C115.861 26.5116 118.192 31.1627 122.388 31.9767C122.854 32.093 123.437 32.093 123.903 32.093C125.068 32.093 126.001 31.7441 127.05 31.0465C127.982 30.3488 128.681 29.5348 129.264 28.4883C129.963 27.5581 130.313 26.5116 130.546 25.4651C131.012 24.186 131.012 22.6744 131.012 21.7441V21.5116C131.012 19.5348 130.896 18.2558 130.313 16.7441V16.7441ZM125.185 23.372C124.952 24.186 124.486 26.0465 123.553 26.5116C122.504 26.8604 121.805 24.9999 121.688 24.186C121.572 23.4883 121.455 22.6744 121.455 21.9767V21.3953C121.455 21.0465 121.572 20.6976 121.572 20.3488C121.805 19.4186 122.155 17.9069 123.087 17.3255C124.369 16.6279 125.068 19.5348 125.185 20.3488V21.3953C125.301 22.093 125.418 22.7906 125.185 23.372V23.372Z" fill="#B3B3B3"/>
<path d="M147.562 26.7442L147.329 22.907V21.8605L147.446 18.1395L147.679 10.814C145.464 10.814 143.017 11.0465 141.851 11.1628L141.735 16.5116L141.851 19.5349C141.035 17.907 139.637 12.907 138.938 11.6279C136.723 11.7442 134.276 12.2093 132.761 12.5582V21.7442L132.411 29.0698V31.9768C133.46 31.9768 135.907 31.8605 138.122 31.5116V27.2093C138.122 26.0465 138.238 24.8837 138.471 23.7209L139.753 26.2791L140.802 29.1861C141.152 30.2326 141.618 31.2791 142.084 32.093C143.25 31.8605 145.697 31.3954 147.795 30.3488C147.912 29.7675 147.679 27.2093 147.562 26.7442Z" fill="#B3B3B3"/>
<path d="M162.714 25.3488L159.334 26.0464C158.401 26.279 157.585 26.3953 156.653 26.5116V24.9999C157.236 24.7674 158.401 24.5348 158.867 24.4185L162.247 23.6046C162.247 23.2557 162.131 22.7906 162.131 22.4418C162.014 20.9302 161.665 19.5348 161.548 18.9534L156.77 19.7674V17.2092C157.119 17.093 162.131 16.279 162.714 16.1627C162.714 13.6046 162.247 11.0464 162.014 10.1162C160.88 10.2141 159.752 10.3693 158.634 10.5813L154.905 11.279L149.31 12.4418C149.31 12.4418 149.077 13.372 149.077 15.3488L149.194 18.7209L150.826 18.372V21.9767L150.942 25.9302V32.7906L154.905 32.4418L163.762 31.279C163.529 28.372 163.063 26.0464 162.714 25.3488V25.3488Z" fill="#B3B3B3"/>
</g>
<defs>
<clipPath id="clip0_2094_1155">
<rect width="171" height="40" fill="white"/>
</clipPath>
</defs>
</svg>
