<svg xmlns="http://www.w3.org/2000/svg" xmlns:xlink="http://www.w3.org/1999/xlink" viewBox="0 0 135.789 31.814" overflow="visible"><path d="M 19.02 0 L 12.68 0 L 12.68 9.56 C 12.653 11.291 11.242 12.681 9.51 12.68 L 0 12.68 L 0 19.02 L 6.884 19.02 C 8.565 19.021 10.178 18.353 11.367 17.164 L 17.164 11.367 C 18.353 10.178 19.021 8.565 19.02 6.884 Z M 12.68 31.698 L 19.02 31.698 L 19.02 22.14 C 19.048 20.409 20.459 19.02 22.19 19.02 L 31.701 19.02 L 31.701 12.679 L 24.816 12.679 C 23.135 12.68 21.523 13.348 20.334 14.536 L 14.537 20.333 C 13.348 21.522 12.68 23.134 12.68 24.815 L 12.68 31.7 Z M 46.442 26.154 L 41.877 26.154 L 48.771 5.978 L 54.185 5.978 L 61.254 26.154 L 56.665 26.154 L 53.432 16.415 C 53.041 15.162 52.645 13.788 52.243 12.294 C 51.807 10.665 51.384 9.032 50.975 7.396 L 51.87 7.396 C 51.481 9.039 51.082 10.679 50.673 12.317 C 50.334 13.692 49.961 15.058 49.556 16.415 Z M 56.95 21.471 L 46.18 21.471 L 46.18 18.229 L 56.95 18.229 Z M 65.913 31.813 L 61.848 31.813 L 61.848 11.01 L 65.842 11.01 L 65.842 13.562 L 66.033 13.562 C 66.223 13.161 66.492 12.749 66.841 12.326 C 67.19 11.903 67.649 11.547 68.22 11.257 C 68.785 10.966 69.498 10.82 70.359 10.82 C 71.474 10.82 72.496 11.111 73.426 11.693 C 74.356 12.268 75.101 13.135 75.661 14.292 C 76.217 15.449 76.493 16.889 76.493 18.611 C 76.493 20.29 76.222 21.713 75.677 22.875 C 75.138 24.032 74.404 24.911 73.474 25.514 C 72.544 26.11 71.495 26.409 70.328 26.409 C 69.509 26.409 68.814 26.269 68.243 25.989 C 67.673 25.715 67.211 25.371 66.857 24.958 C 66.526 24.589 66.249 24.176 66.032 23.731 L 65.913 23.731 L 65.913 31.814 Z M 69.083 23.151 C 69.787 23.151 70.38 22.955 70.866 22.565 C 71.348 22.179 71.712 21.642 71.96 20.956 C 72.209 20.269 72.332 19.482 72.332 18.594 C 72.332 17.711 72.209 16.932 71.96 16.256 C 71.712 15.58 71.348 15.047 70.866 14.655 C 70.391 14.27 69.797 14.077 69.083 14.077 C 68.386 14.077 67.795 14.265 67.308 14.639 C 66.822 15.009 66.452 15.532 66.198 16.209 C 65.945 16.879 65.819 17.675 65.819 18.594 C 65.819 19.508 65.947 20.306 66.207 20.988 C 66.46 21.669 66.833 22.2 67.324 22.58 C 67.81 22.961 68.396 23.151 69.083 23.151 Z M 81.598 31.813 L 77.531 31.813 L 77.531 11.01 L 81.526 11.01 L 81.526 13.562 L 81.716 13.562 C 81.934 13.119 82.205 12.703 82.524 12.326 C 82.873 11.903 83.33 11.547 83.896 11.257 C 84.466 10.966 85.179 10.82 86.035 10.82 C 87.156 10.82 88.18 11.111 89.11 11.693 C 90.04 12.268 90.783 13.135 91.337 14.292 C 91.892 15.449 92.169 16.889 92.169 18.611 C 92.169 20.29 91.9 21.713 91.361 22.875 C 90.817 24.032 90.08 24.911 89.15 25.514 C 88.22 26.11 87.174 26.409 86.012 26.409 C 85.187 26.409 84.492 26.269 83.927 25.989 C 83.356 25.715 82.894 25.371 82.54 24.958 C 82.21 24.589 81.932 24.176 81.716 23.731 L 81.598 23.731 L 81.598 31.814 Z M 84.768 23.151 C 85.47 23.151 86.062 22.955 86.542 22.565 C 87.028 22.179 87.396 21.642 87.644 20.956 C 87.893 20.269 88.017 19.482 88.017 18.594 C 88.017 17.711 87.893 16.932 87.644 16.256 C 87.396 15.58 87.031 15.047 86.55 14.655 C 86.075 14.27 85.481 14.077 84.768 14.077 C 84.07 14.077 83.478 14.265 82.992 14.639 C 82.506 15.009 82.136 15.532 81.883 16.209 C 81.629 16.879 81.502 17.675 81.502 18.594 C 81.502 19.508 81.632 20.306 81.89 20.988 C 82.144 21.669 82.517 22.2 83.008 22.58 C 83.494 22.961 84.08 23.151 84.768 23.151 Z M 97.281 26.154 L 93.216 26.154 L 93.216 11.01 L 97.139 11.01 L 97.139 13.657 L 97.305 13.657 C 97.585 12.716 98.052 12.005 98.707 11.525 C 99.363 11.05 100.113 10.812 100.958 10.812 C 101.17 10.812 101.394 10.822 101.632 10.843 C 101.87 10.864 102.083 10.899 102.274 10.946 L 102.274 14.576 C 102.094 14.513 101.832 14.462 101.489 14.426 C 101.165 14.39 100.84 14.371 100.514 14.37 C 99.934 14.362 99.362 14.501 98.85 14.774 C 98.367 15.026 97.965 15.411 97.693 15.884 C 97.418 16.354 97.281 16.906 97.281 17.54 Z M 109.549 26.456 C 108.001 26.456 106.67 26.139 105.555 25.504 C 104.435 24.871 103.574 23.973 102.971 22.811 C 102.369 21.643 102.068 20.261 102.068 18.666 C 102.068 17.101 102.366 15.733 102.964 14.56 C 103.56 13.388 104.406 12.471 105.499 11.81 C 106.593 11.15 107.874 10.819 109.343 10.819 C 110.336 10.819 111.261 10.978 112.116 11.295 C 112.966 11.604 113.739 12.094 114.383 12.729 C 115.033 13.364 115.541 14.159 115.905 15.115 C 116.27 16.071 116.452 17.199 116.452 18.499 L 116.452 19.641 L 103.74 19.641 L 103.74 17.096 L 114.463 17.096 L 112.569 17.77 C 112.569 16.982 112.45 16.298 112.212 15.717 C 111.968 15.136 111.612 14.684 111.142 14.362 C 110.667 14.045 110.075 13.886 109.367 13.886 C 108.674 13.886 108.083 14.048 107.591 14.37 C 107.101 14.696 106.714 15.155 106.474 15.693 C 106.221 16.249 106.094 16.882 106.094 17.596 L 106.094 19.394 C 106.094 20.271 106.239 21.009 106.529 21.605 C 106.825 22.203 107.237 22.649 107.766 22.945 C 108.294 23.241 108.91 23.389 109.612 23.389 C 110.093 23.389 110.526 23.323 110.912 23.19 C 111.285 23.064 111.625 22.859 111.911 22.589 C 112.19 22.312 112.404 21.976 112.537 21.605 L 116.222 22.295 C 115.984 23.116 115.548 23.867 114.954 24.482 C 114.346 25.111 113.588 25.598 112.679 25.941 C 111.776 26.284 110.732 26.456 109.549 26.456 Z M 121.651 26.456 C 120.694 26.456 119.835 26.287 119.075 25.949 C 118.309 25.605 117.707 25.098 117.268 24.427 C 116.835 23.756 116.618 22.919 116.618 21.915 C 116.618 21.075 116.774 20.369 117.086 19.798 C 117.387 19.245 117.823 18.776 118.353 18.435 C 118.919 18.08 119.537 17.816 120.185 17.651 C 120.866 17.471 121.582 17.345 122.332 17.271 C 123.039 17.202 123.745 17.117 124.448 17.017 C 124.987 16.943 125.381 16.821 125.629 16.652 C 125.877 16.489 126.002 16.243 126.002 15.915 L 126.002 15.845 C 126.002 15.411 125.912 15.047 125.732 14.751 C 125.552 14.455 125.285 14.227 124.931 14.069 C 124.577 13.91 124.144 13.831 123.632 13.831 C 123.109 13.831 122.652 13.91 122.261 14.069 C 121.905 14.208 121.583 14.421 121.317 14.695 C 121.07 14.959 120.887 15.252 120.771 15.574 L 117.046 14.957 C 117.31 14.079 117.743 13.334 118.346 12.721 C 118.954 12.103 119.707 11.633 120.604 11.311 C 121.503 10.983 122.512 10.819 123.632 10.819 C 124.451 10.819 125.246 10.917 126.018 11.113 C 126.751 11.294 127.448 11.6 128.078 12.016 C 128.685 12.417 129.183 12.961 129.529 13.601 C 129.888 14.251 130.067 15.036 130.067 15.955 L 130.067 26.154 L 126.215 26.154 L 126.215 24.055 L 126.081 24.055 C 125.838 24.525 125.507 24.945 125.106 25.291 C 124.675 25.664 124.178 25.952 123.64 26.139 C 123.064 26.351 122.401 26.456 121.651 26.456 Z M 122.808 23.595 C 123.447 23.595 124.007 23.468 124.487 23.215 C 124.952 22.981 125.344 22.624 125.621 22.184 C 125.891 21.749 126.031 21.246 126.025 20.734 L 126.025 19.101 C 125.909 19.191 125.729 19.271 125.487 19.339 C 125.219 19.419 124.946 19.483 124.67 19.53 C 124.378 19.587 124.085 19.637 123.79 19.68 C 123.505 19.728 123.249 19.764 123.021 19.791 C 122.569 19.848 122.127 19.965 121.706 20.14 C 121.326 20.303 121.032 20.517 120.826 20.782 C 120.62 21.051 120.517 21.392 120.517 21.804 C 120.517 22.195 120.615 22.522 120.81 22.786 C 121.012 23.056 121.281 23.257 121.619 23.389 C 121.957 23.526 122.353 23.595 122.808 23.595 Z M 131.731 5.978 L 135.789 5.978 L 135.789 26.154 L 131.731 26.154 Z" fill="rgb(179,179,179)"></path></svg>