<svg xmlns="http://www.w3.org/2000/svg" xmlns:xlink="http://www.w3.org/1999/xlink" viewBox="0 0 125.05 32.001" overflow="visible"><g><path d="M 0 0 L 125.05 0 L 125.05 32 L 0 32 Z" fill="transparent"></path><path d="M 39.862 23.806 C 37.568 23.806 35.657 23.042 34.129 21.513 C 32.6 19.984 31.835 18.092 31.835 15.839 C 31.835 13.586 32.599 11.694 34.129 10.165 C 35.657 8.636 37.569 7.872 39.862 7.872 C 41.35 7.872 42.704 8.225 43.92 8.93 C 45.137 9.636 46.079 10.58 46.741 11.767 L 42.456 14.241 C 41.913 13.255 41.038 12.763 39.832 12.763 C 38.987 12.763 38.281 13.048 37.719 13.624 C 37.156 14.197 36.874 14.937 36.874 15.842 C 36.874 16.746 37.156 17.486 37.719 18.06 C 38.281 18.633 38.987 18.921 39.832 18.921 C 41.078 18.921 41.956 18.417 42.456 17.411 L 46.741 19.884 C 46.076 21.093 45.137 22.049 43.92 22.751 C 42.704 23.457 41.35 23.809 39.862 23.809 M 58.692 8.295 L 63.702 8.295 L 63.702 23.384 L 58.692 23.384 L 58.692 21.995 C 57.667 23.201 56.238 23.807 54.408 23.807 C 52.397 23.807 50.712 23.047 49.353 21.529 C 47.996 20.012 47.316 18.114 47.316 15.842 C 47.316 13.57 47.993 11.673 49.353 10.155 C 50.713 8.637 52.394 7.878 54.407 7.878 C 56.238 7.878 57.667 8.481 58.692 9.689 Z M 53.231 18.224 C 53.815 18.828 54.58 19.129 55.524 19.129 C 56.47 19.129 57.233 18.827 57.817 18.224 C 58.402 17.621 58.692 16.825 58.692 15.839 C 58.692 14.855 58.401 14.06 57.817 13.455 C 57.233 12.852 56.469 12.551 55.524 12.551 C 54.58 12.551 53.815 12.852 53.231 13.455 C 52.647 14.058 52.356 14.855 52.356 15.84 C 52.356 16.825 52.647 17.619 53.231 18.224 Z M 71.609 11.103 C 71.891 10.118 72.454 9.353 73.299 8.81 C 74.144 8.266 75.089 7.994 76.136 7.994 L 76.136 13.547 C 74.989 13.367 73.948 13.576 73.014 14.18 C 72.077 14.783 71.612 15.77 71.612 17.137 L 71.612 23.385 L 66.602 23.385 L 66.602 8.296 L 71.612 8.296 L 71.612 11.103 Z M 88.448 8.295 L 93.398 8.295 L 93.398 22.778 C 93.398 23.986 93.172 25.055 92.719 25.992 C 92.268 26.928 91.659 27.671 90.895 28.225 C 90.131 28.778 89.279 29.197 88.375 29.464 C 87.429 29.74 86.448 29.877 85.463 29.871 C 83.794 29.871 82.306 29.558 80.998 28.934 C 79.689 28.308 78.705 27.394 78.04 26.188 L 82.204 23.774 C 82.928 24.921 83.993 25.494 85.404 25.494 C 86.308 25.494 87.043 25.262 87.606 24.799 C 88.168 24.336 88.451 23.663 88.451 22.777 L 88.451 21.33 C 87.425 22.579 86.017 23.201 84.225 23.201 C 82.153 23.201 80.438 22.455 79.079 20.967 C 77.719 19.478 77.041 17.667 77.041 15.535 C 77.041 13.404 77.719 11.592 79.079 10.103 C 80.438 8.615 82.153 7.869 84.225 7.869 C 86.015 7.869 87.425 8.494 88.451 9.74 L 88.451 8.292 Z M 82.941 17.785 C 83.533 18.38 84.303 18.676 85.25 18.676 C 86.198 18.676 86.965 18.38 87.56 17.785 C 88.152 17.193 88.451 16.442 88.451 15.537 C 88.451 14.633 88.155 13.882 87.56 13.29 C 86.965 12.698 86.195 12.399 85.25 12.399 C 84.305 12.399 83.536 12.695 82.941 13.29 C 82.346 13.882 82.05 14.633 82.05 15.537 C 82.05 16.442 82.346 17.193 82.941 17.785 Z M 103.596 23.806 C 101.361 23.806 99.461 23.036 97.892 21.497 C 96.323 19.957 95.537 18.073 95.537 15.839 C 95.537 13.606 96.32 11.721 97.892 10.182 C 99.461 8.642 101.361 7.872 103.596 7.872 C 105.83 7.872 107.754 8.642 109.312 10.182 C 110.871 11.721 111.652 13.607 111.652 15.839 C 111.652 18.071 110.871 19.957 109.312 21.497 C 107.754 23.036 105.848 23.806 103.596 23.806 Z M 103.596 18.977 C 104.481 18.977 105.21 18.687 105.784 18.103 C 106.357 17.519 106.645 16.765 106.645 15.839 C 106.645 14.913 106.357 14.159 105.784 13.575 C 105.21 12.991 104.481 12.701 103.596 12.701 C 102.71 12.701 102.01 12.992 101.437 13.575 C 100.863 14.159 100.578 14.913 100.578 15.839 C 100.578 16.765 100.863 17.519 101.437 18.103 C 102.01 18.687 102.729 18.977 103.596 18.977 Z M 119.408 18.736 L 125.049 18.736 L 125.049 23.385 L 112.709 23.385 L 112.709 19.945 L 118.049 12.944 L 113.01 12.944 L 113.01 8.295 L 124.751 8.295 L 124.751 11.735 Z M 26.929 25.222 L 16.871 31.028 C 16.368 31.3 15.759 31.288 15.268 30.995 C 14.777 30.703 14.476 30.173 14.476 29.601 L 14.476 18.666 C 14.476 17.937 14.64 17.226 14.941 16.585 C 15.595 16.652 16.227 16.856 16.796 17.185 L 26.927 23.034 C 27.769 23.519 27.769 24.735 26.927 25.223" fill="rgb(179,179,179)"></path><path d="M 26.391 8.967 L 16.919 14.436 C 16.056 14.934 15.367 15.685 14.944 16.588 C 14.638 17.238 14.479 17.948 14.479 18.668 L 14.479 29.604 C 14.479 30.175 14.78 30.704 15.271 30.997 C 15.762 31.289 16.371 31.302 16.873 31.031 L 15.829 31.636 C 14.995 32.118 13.968 32.123 13.129 31.649 L 12.061 31.044 L 2.369 25.561 C 2.224 25.48 2.084 25.39 1.949 25.292 C 1.943 25.292 1.941 25.287 1.935 25.281 C 0.709 24.395 -0.012 22.969 0.001 21.456 L 0.107 10.225 C 0.122 8.574 1.01 7.053 2.441 6.228 L 12.145 0.624 C 13.589 -0.208 15.367 -0.208 16.812 0.624 L 26.388 6.155 C 27.471 6.782 27.471 8.343 26.388 8.968" fill="rgb(179,179,179)"></path></g></svg>