<svg xmlns="http://www.w3.org/2000/svg" xmlns:xlink="http://www.w3.org/1999/xlink" viewBox="0 0 185.64 24" overflow="visible"><path d="M 0 0.143 L 11.023 0.143 L 11.023 11.344 L 0.005 11.344 L 0 0.144 Z M 0.004 12.782 L 11.025 12.782 L 11.025 18.585 C 10.956 20.803 9.971 22.379 7.996 23.375 C 7.31 23.741 6.552 23.951 5.776 23.99 L 0.003 23.99 L 0.003 12.782 Z M 12.444 11.348 C 12.423 7.638 12.467 3.869 12.444 0.146 L 17.967 0.146 C 20.674 0.115 22.991 2.08 23.405 4.755 C 23.444 5.01 23.464 5.267 23.465 5.524 C 23.482 7.353 23.465 11.35 23.465 11.35 L 12.444 11.35 L 12.444 11.349 Z M 23.478 23.985 L 19.509 24 C 16.752 24.02 14.661 22.029 14.155 19.313 C 13.564 16.187 15.392 13.754 18.016 12.988 C 18.444 12.865 18.884 12.794 19.329 12.777 C 20.324 12.741 23.478 12.777 23.478 12.777 C 23.478 12.777 23.455 20.263 23.478 23.984 Z M 46.281 13.257 C 46.157 9.326 42.868 6.238 38.937 6.364 C 37.251 6.417 35.638 7.067 34.386 8.199 L 34.386 7.926 C 34.392 7.055 33.69 6.344 32.818 6.338 L 29.691 6.338 L 29.691 23.834 L 34.393 23.834 L 34.393 12.739 C 35.406 11.345 37.202 10.763 38.84 11.297 C 40.479 11.83 41.587 13.359 41.585 15.082 L 41.585 23.834 L 46.287 23.834 L 46.281 13.256 Z M 93.678 6.338 L 90.555 6.338 L 90.555 23.834 L 95.259 23.834 L 95.259 7.927 C 95.259 7.508 95.094 7.106 94.798 6.81 C 94.502 6.513 94.101 6.346 93.682 6.346 Z M 58.399 6.364 C 53.528 6.36 49.578 10.303 49.572 15.173 C 49.568 20.044 53.512 23.995 58.382 24 C 63.253 24.004 67.203 20.061 67.209 15.19 C 67.215 10.323 63.274 6.371 58.407 6.364 Z M 58.399 19.252 C 56.15 19.252 54.327 17.429 54.327 15.18 C 54.326 12.931 56.148 11.108 58.397 11.106 C 60.645 11.105 62.469 12.927 62.47 15.176 C 62.471 16.255 62.043 17.291 61.28 18.054 C 60.517 18.818 59.482 19.247 58.403 19.247 L 58.401 19.247 Z M 87.625 15.103 C 87.622 10.276 83.705 6.366 78.879 6.369 C 77.48 6.371 76.102 6.707 74.86 7.351 L 74.86 1.59 C 74.86 0.72 74.156 0.013 73.286 0.01 L 70.148 0.01 L 70.148 23.832 L 78.966 23.832 C 83.76 23.793 87.625 19.895 87.625 15.101 L 87.625 15.102 Z M 78.888 19.13 L 74.861 19.13 L 74.861 15.103 C 74.861 12.879 76.664 11.076 78.888 11.076 C 81.112 11.076 82.915 12.879 82.915 15.103 C 82.915 17.327 81.112 19.13 78.888 19.13 Z M 93.678 0 L 90.555 0 L 90.555 4.81 L 95.259 4.81 L 95.259 1.589 C 95.264 0.717 94.562 0.006 93.691 0 Z M 108.753 12.04 L 106.505 12.04 C 106.425 12.04 106.386 12 106.386 11.921 L 106.386 11.413 C 106.386 11.334 106.426 11.295 106.505 11.295 L 107.201 11.295 L 106.555 9.574 L 103.779 9.574 L 103.132 11.295 L 103.828 11.295 C 103.908 11.295 103.947 11.335 103.947 11.413 L 103.947 11.921 C 103.947 12.001 103.908 12.041 103.828 12.041 L 101.59 12.041 C 101.51 12.041 101.471 12 101.471 11.921 L 101.471 11.413 C 101.471 11.334 101.51 11.295 101.59 11.295 L 102.256 11.295 L 104.396 5.644 L 103.858 5.644 C 103.773 5.644 103.729 5.604 103.729 5.525 L 103.729 5.018 C 103.729 4.938 103.773 4.899 103.858 4.899 L 105.212 4.899 C 105.371 4.899 105.492 4.932 105.575 4.998 C 105.658 5.064 105.729 5.174 105.789 5.326 L 108.077 11.295 L 108.754 11.295 C 108.833 11.295 108.873 11.335 108.873 11.414 L 108.873 11.922 C 108.873 12.002 108.832 12.041 108.754 12.041 L 108.753 12.041 Z M 106.286 8.886 L 105.182 5.932 L 105.152 5.932 L 104.038 8.886 Z M 111.05 12.041 L 110.493 12.041 C 110.407 12.041 110.364 12 110.364 11.921 L 110.364 9.594 C 110.364 9.508 110.407 9.465 110.493 9.465 L 111.12 9.465 C 111.2 9.465 111.239 9.508 111.239 9.594 L 111.239 9.803 C 111.239 9.93 111.316 10.096 111.468 10.306 C 111.62 10.515 111.773 10.686 111.926 10.818 C 112.078 10.952 112.282 11.065 112.538 11.162 C 112.804 11.26 113.085 11.309 113.368 11.306 C 113.879 11.306 114.279 11.201 114.567 10.988 C 114.856 10.774 115 10.48 115 10.102 C 115 9.884 114.918 9.697 114.756 9.541 C 114.593 9.385 114.382 9.26 114.123 9.167 C 113.841 9.067 113.554 8.981 113.263 8.909 C 112.945 8.828 112.629 8.737 112.317 8.635 C 112.019 8.54 111.731 8.416 111.456 8.267 C 111.198 8.125 110.981 7.919 110.825 7.67 C 110.662 7.414 110.58 7.114 110.58 6.769 C 110.58 6.213 110.791 5.751 111.212 5.386 C 111.634 5.022 112.198 4.839 112.908 4.839 C 113.803 4.839 114.46 5.1 114.878 5.625 L 114.858 5.008 C 114.858 4.928 114.901 4.889 114.987 4.889 L 115.545 4.889 C 115.624 4.889 115.664 4.93 115.664 5.008 L 115.664 7.176 C 115.664 7.256 115.623 7.296 115.545 7.296 L 114.918 7.296 C 114.838 7.296 114.799 7.255 114.799 7.176 L 114.799 6.898 C 114.799 6.626 114.647 6.351 114.342 6.073 C 114.036 5.794 113.589 5.655 112.999 5.655 C 112.561 5.655 112.208 5.76 111.939 5.968 C 111.67 6.177 111.537 6.444 111.537 6.769 C 111.537 7.002 111.62 7.2 111.786 7.366 C 111.951 7.532 112.167 7.665 112.432 7.764 C 112.697 7.864 112.989 7.954 113.307 8.038 C 113.626 8.121 113.945 8.212 114.262 8.311 C 114.581 8.412 114.872 8.531 115.137 8.669 C 115.397 8.804 115.619 9 115.784 9.241 C 115.949 9.484 116.032 9.77 116.032 10.101 C 116.032 10.684 115.823 11.165 115.405 11.543 C 114.987 11.921 114.363 12.11 113.535 12.11 C 112.924 12.11 112.421 11.988 112.022 11.743 C 111.624 11.497 111.336 11.232 111.157 10.946 L 111.166 11.921 C 111.166 12 111.127 12.04 111.047 12.04 Z M 118.67 12.041 L 118.113 12.041 C 118.028 12.041 117.984 12 117.984 11.921 L 117.984 9.594 C 117.984 9.508 118.028 9.465 118.113 9.465 L 118.74 9.465 C 118.82 9.465 118.859 9.508 118.859 9.594 L 118.859 9.803 C 118.859 9.93 118.936 10.096 119.088 10.306 C 119.24 10.515 119.393 10.686 119.546 10.818 C 119.698 10.952 119.902 11.065 120.158 11.162 C 120.423 11.26 120.705 11.309 120.988 11.306 C 121.5 11.306 121.899 11.201 122.187 10.988 C 122.476 10.774 122.62 10.48 122.62 10.102 C 122.62 9.884 122.538 9.697 122.376 9.541 C 122.213 9.385 122.002 9.26 121.743 9.167 C 121.461 9.067 121.174 8.981 120.883 8.909 C 120.565 8.828 120.249 8.737 119.937 8.635 C 119.64 8.54 119.351 8.417 119.077 8.267 C 118.819 8.125 118.601 7.919 118.444 7.67 C 118.282 7.414 118.2 7.114 118.2 6.769 C 118.2 6.213 118.411 5.751 118.833 5.386 C 119.254 5.022 119.818 4.839 120.528 4.839 C 121.423 4.839 122.08 5.1 122.497 5.625 L 122.478 5.008 C 122.478 4.928 122.521 4.889 122.607 4.889 L 123.165 4.889 C 123.244 4.889 123.284 4.93 123.284 5.008 L 123.284 7.176 C 123.284 7.256 123.243 7.296 123.165 7.296 L 122.538 7.296 C 122.458 7.296 122.419 7.255 122.419 7.176 L 122.419 6.898 C 122.419 6.626 122.267 6.351 121.962 6.073 C 121.657 5.794 121.209 5.655 120.619 5.655 C 120.182 5.655 119.827 5.76 119.56 5.968 C 119.291 6.177 119.157 6.444 119.157 6.769 C 119.157 7.002 119.24 7.2 119.405 7.366 C 119.571 7.532 119.787 7.665 120.052 7.764 C 120.339 7.87 120.631 7.961 120.927 8.038 C 121.246 8.121 121.565 8.212 121.882 8.311 C 122.201 8.412 122.493 8.531 122.757 8.669 C 123.022 8.809 123.238 8.999 123.404 9.241 C 123.569 9.484 123.652 9.77 123.652 10.101 C 123.652 10.684 123.443 11.165 123.025 11.543 C 122.607 11.921 121.984 12.11 121.155 12.11 C 120.544 12.11 120.041 11.988 119.643 11.743 C 119.244 11.497 118.957 11.232 118.777 10.946 L 118.786 11.921 C 118.786 12 118.746 12.04 118.667 12.04 Z M 130.946 12.04 L 125.664 12.04 C 125.578 12.04 125.535 12 125.535 11.921 L 125.535 11.413 C 125.535 11.334 125.578 11.295 125.664 11.295 L 126.421 11.295 L 126.421 5.644 L 125.664 5.644 C 125.578 5.644 125.535 5.603 125.535 5.524 L 125.535 5.018 C 125.535 4.938 125.578 4.899 125.664 4.899 L 130.946 4.899 C 131.032 4.899 131.076 4.939 131.076 5.018 L 131.076 6.619 C 131.076 6.705 131.032 6.748 130.946 6.748 L 130.41 6.748 C 130.33 6.748 130.291 6.706 130.291 6.619 L 130.291 5.644 L 127.286 5.644 L 127.286 8.112 L 129.803 8.112 C 129.889 8.112 129.933 8.152 129.933 8.231 L 129.933 8.739 C 129.933 8.818 129.889 8.858 129.803 8.858 L 127.286 8.858 L 127.286 11.295 L 130.28 11.295 L 130.28 10.32 C 130.28 10.241 130.324 10.201 130.41 10.201 L 130.946 10.201 C 131.032 10.201 131.076 10.242 131.076 10.321 L 131.076 11.922 C 131.076 12.002 131.032 12.041 130.946 12.041 Z M 137.302 12.042 L 134.984 12.042 C 134.898 12.042 134.855 11.998 134.855 11.912 L 134.855 11.425 C 134.855 11.339 134.898 11.296 134.984 11.296 L 135.74 11.296 L 135.74 5.645 L 133.86 5.645 L 133.86 6.7 C 133.86 6.793 133.814 6.839 133.721 6.839 L 133.164 6.839 C 133.071 6.839 133.024 6.793 133.024 6.7 L 133.024 5.027 C 133.024 4.941 133.071 4.898 133.164 4.898 L 139.163 4.898 C 139.256 4.898 139.302 4.941 139.302 5.027 L 139.302 6.699 C 139.302 6.792 139.256 6.839 139.163 6.839 L 138.597 6.839 C 138.511 6.839 138.467 6.792 138.467 6.699 L 138.467 5.645 L 136.607 5.645 L 136.607 11.295 L 137.303 11.295 C 137.397 11.295 137.443 11.338 137.443 11.424 L 137.443 11.912 C 137.443 11.998 137.397 12.041 137.303 12.041 L 137.302 12.041 Z M 109.658 23.93 L 107.36 23.93 C 107.28 23.93 107.241 23.89 107.241 23.811 L 107.241 23.303 C 107.241 23.223 107.28 23.184 107.36 23.184 L 108.026 23.184 L 108.026 18.23 L 108.016 18.23 L 106.125 22.925 C 106.046 23.125 105.9 23.224 105.688 23.224 C 105.476 23.224 105.33 23.125 105.25 22.925 L 103.36 18.23 L 103.341 18.23 L 103.341 23.184 L 104.007 23.184 C 104.093 23.184 104.137 23.224 104.137 23.303 L 104.137 23.811 C 104.137 23.891 104.093 23.93 104.007 23.93 L 101.719 23.93 C 101.633 23.93 101.589 23.89 101.589 23.811 L 101.589 23.303 C 101.589 23.223 101.633 23.184 101.719 23.184 L 102.475 23.184 L 102.475 17.534 L 101.719 17.534 C 101.633 17.534 101.589 17.493 101.589 17.414 L 101.589 16.907 C 101.589 16.827 101.633 16.787 101.719 16.787 L 103.251 16.787 C 103.477 16.787 103.632 16.9 103.718 17.126 L 105.201 20.707 L 105.669 21.961 L 105.709 21.961 C 105.894 21.444 106.047 21.032 106.166 20.727 L 107.658 17.126 C 107.744 16.9 107.903 16.788 108.136 16.788 L 109.658 16.788 C 109.737 16.788 109.777 16.828 109.777 16.907 L 109.777 17.415 C 109.777 17.494 109.737 17.534 109.658 17.534 L 108.892 17.534 L 108.892 23.184 L 109.658 23.184 C 109.737 23.184 109.777 23.224 109.777 23.303 L 109.777 23.811 C 109.777 23.891 109.737 23.93 109.658 23.93 Z M 118.531 23.93 L 116.283 23.93 C 116.203 23.93 116.164 23.89 116.164 23.811 L 116.164 23.303 C 116.164 23.223 116.204 23.184 116.283 23.184 L 116.979 23.184 L 116.332 21.464 L 113.557 21.464 L 112.911 23.184 L 113.606 23.184 C 113.686 23.184 113.725 23.224 113.725 23.303 L 113.725 23.811 C 113.725 23.891 113.686 23.93 113.606 23.93 L 111.368 23.93 C 111.288 23.93 111.249 23.89 111.249 23.811 L 111.249 23.303 C 111.249 23.223 111.288 23.184 111.368 23.184 L 112.034 23.184 L 114.174 17.534 L 113.636 17.534 C 113.551 17.534 113.507 17.493 113.507 17.414 L 113.507 16.907 C 113.507 16.827 113.551 16.787 113.636 16.787 L 114.99 16.787 C 115.149 16.787 115.27 16.821 115.353 16.887 C 115.436 16.953 115.507 17.063 115.567 17.215 L 117.855 23.184 L 118.532 23.184 C 118.611 23.184 118.651 23.224 118.651 23.303 L 118.651 23.811 C 118.651 23.891 118.61 23.93 118.532 23.93 L 118.531 23.93 Z M 116.064 20.776 L 114.96 17.821 L 114.93 17.821 L 113.816 20.776 Z M 126.18 23.929 L 125.643 23.929 C 125.517 23.929 125.418 23.904 125.345 23.855 C 125.272 23.805 125.202 23.726 125.136 23.621 L 122.261 19.124 L 121.764 18.288 L 121.744 18.288 L 121.744 23.182 L 122.51 23.182 C 122.595 23.182 122.639 23.222 122.639 23.301 L 122.639 23.809 C 122.639 23.889 122.595 23.928 122.51 23.928 L 120.122 23.928 C 120.036 23.928 119.993 23.888 119.993 23.809 L 119.993 23.301 C 119.993 23.222 120.036 23.182 120.122 23.182 L 120.878 23.182 L 120.878 17.532 L 120.122 17.532 C 120.036 17.532 119.993 17.491 119.993 17.412 L 119.993 16.905 C 119.993 16.825 120.036 16.786 120.122 16.786 L 121.514 16.786 C 121.707 16.786 121.876 16.899 122.022 17.124 L 124.858 21.561 L 125.425 22.526 L 125.445 22.526 L 125.445 17.532 L 124.679 17.532 C 124.599 17.532 124.56 17.492 124.56 17.414 L 124.56 16.906 C 124.56 16.826 124.601 16.787 124.679 16.787 L 127.077 16.787 C 127.157 16.787 127.196 16.827 127.196 16.906 L 127.196 17.414 C 127.196 17.494 127.157 17.533 127.077 17.533 L 126.311 17.533 L 126.311 23.81 C 126.311 23.89 126.268 23.929 126.182 23.929 Z M 135.593 23.93 L 133.345 23.93 C 133.265 23.93 133.226 23.89 133.226 23.811 L 133.226 23.303 C 133.226 23.223 133.266 23.184 133.345 23.184 L 134.041 23.184 L 133.395 21.464 L 130.619 21.464 L 129.973 23.184 L 130.669 23.184 C 130.748 23.184 130.787 23.224 130.787 23.303 L 130.787 23.811 C 130.787 23.891 130.748 23.93 130.669 23.93 L 128.43 23.93 C 128.35 23.93 128.311 23.89 128.311 23.811 L 128.311 23.303 C 128.311 23.223 128.35 23.184 128.43 23.184 L 129.096 23.184 L 131.236 17.534 L 130.698 17.534 C 130.613 17.534 130.569 17.493 130.569 17.414 L 130.569 16.907 C 130.569 16.827 130.613 16.787 130.698 16.787 L 132.052 16.787 C 132.211 16.787 132.332 16.821 132.415 16.887 C 132.498 16.953 132.569 17.063 132.629 17.215 L 134.917 23.184 L 135.594 23.184 C 135.674 23.184 135.713 23.224 135.713 23.303 L 135.713 23.811 C 135.713 23.891 135.672 23.93 135.594 23.93 L 135.593 23.93 Z M 133.126 20.776 L 132.022 17.821 L 131.992 17.821 L 130.878 20.776 Z M 143.212 23.929 L 142.685 23.929 C 142.599 23.929 142.555 23.889 142.555 23.81 L 142.564 23.125 C 141.981 23.708 141.203 23.999 140.232 23.999 C 139.26 23.999 138.449 23.661 137.8 22.984 C 137.149 22.308 136.825 21.419 136.825 20.319 C 136.825 19.583 136.99 18.935 137.318 18.379 C 137.645 17.821 138.064 17.408 138.572 17.136 C 139.077 16.864 139.643 16.724 140.217 16.728 C 141.232 16.728 141.961 17.043 142.406 17.674 L 142.396 16.907 C 142.382 16.827 142.423 16.788 142.515 16.788 L 143.072 16.788 C 143.158 16.788 143.202 16.828 143.202 16.907 L 143.202 18.956 C 143.202 19.036 143.158 19.075 143.072 19.075 L 142.446 19.075 C 142.366 19.075 142.327 19.035 142.327 18.956 L 142.327 18.837 C 142.327 18.546 142.126 18.257 141.725 17.971 C 141.323 17.686 140.811 17.544 140.187 17.544 C 139.564 17.544 139.002 17.801 138.501 18.315 C 138.001 18.829 137.75 19.516 137.75 20.375 C 137.75 21.233 138.002 21.913 138.506 22.413 C 139.01 22.914 139.574 23.165 140.198 23.165 C 140.822 23.165 141.314 23.065 141.675 22.867 C 142.036 22.668 142.307 22.432 142.486 22.16 L 142.486 21.384 L 140.635 21.384 C 140.556 21.384 140.516 21.342 140.516 21.255 L 140.516 20.798 C 140.516 20.718 140.556 20.679 140.635 20.679 L 143.212 20.679 C 143.292 20.679 143.331 20.719 143.331 20.798 L 143.331 23.812 C 143.331 23.892 143.291 23.931 143.212 23.931 Z M 150.732 23.93 L 145.45 23.93 C 145.364 23.93 145.321 23.89 145.321 23.811 L 145.321 23.303 C 145.321 23.223 145.364 23.184 145.45 23.184 L 146.206 23.184 L 146.206 17.534 L 145.45 17.534 C 145.364 17.534 145.321 17.493 145.321 17.414 L 145.321 16.907 C 145.321 16.827 145.364 16.787 145.45 16.787 L 150.732 16.787 C 150.818 16.787 150.861 16.828 150.861 16.907 L 150.861 18.508 C 150.861 18.594 150.818 18.637 150.732 18.637 L 150.195 18.637 C 150.115 18.637 150.076 18.595 150.076 18.508 L 150.076 17.533 L 147.072 17.533 L 147.072 20.001 L 149.589 20.001 C 149.675 20.001 149.718 20.041 149.718 20.12 L 149.718 20.628 C 149.718 20.707 149.675 20.747 149.589 20.747 L 147.072 20.747 L 147.072 23.184 L 150.066 23.184 L 150.066 22.209 C 150.066 22.13 150.109 22.09 150.195 22.09 L 150.732 22.09 C 150.818 22.09 150.861 22.131 150.861 22.21 L 150.861 23.811 C 150.861 23.891 150.818 23.93 150.732 23.93 Z M 160.88 23.93 L 158.583 23.93 C 158.503 23.93 158.464 23.89 158.464 23.811 L 158.464 23.303 C 158.464 23.223 158.503 23.184 158.583 23.184 L 159.249 23.184 L 159.249 18.23 L 159.238 18.23 L 157.348 22.925 C 157.269 23.125 157.123 23.224 156.911 23.224 C 156.699 23.224 156.553 23.125 156.473 22.925 L 154.583 18.23 L 154.564 18.23 L 154.564 23.184 L 155.23 23.184 C 155.315 23.184 155.359 23.224 155.359 23.303 L 155.359 23.811 C 155.359 23.891 155.315 23.93 155.23 23.93 L 152.941 23.93 C 152.856 23.93 152.812 23.89 152.812 23.811 L 152.812 23.303 C 152.812 23.223 152.856 23.184 152.941 23.184 L 153.698 23.184 L 153.698 17.534 L 152.941 17.534 C 152.856 17.534 152.812 17.493 152.812 17.414 L 152.812 16.907 C 152.812 16.827 152.856 16.787 152.941 16.787 L 154.473 16.787 C 154.699 16.787 154.855 16.9 154.941 17.126 L 156.424 20.707 L 156.891 21.961 L 156.932 21.961 C 157.117 21.444 157.269 21.032 157.388 20.727 L 158.88 17.126 C 158.966 16.9 159.126 16.788 159.358 16.788 L 160.88 16.788 C 160.96 16.788 160.999 16.828 160.999 16.907 L 160.999 17.415 C 160.999 17.494 160.96 17.534 160.88 17.534 L 160.114 17.534 L 160.114 23.184 L 160.88 23.184 C 160.96 23.184 160.999 23.224 160.999 23.303 L 160.999 23.811 C 160.999 23.891 160.96 23.93 160.88 23.93 Z M 168.312 23.93 L 163.029 23.93 C 162.943 23.93 162.9 23.89 162.9 23.811 L 162.9 23.303 C 162.9 23.223 162.943 23.184 163.029 23.184 L 163.785 23.184 L 163.785 17.534 L 163.029 17.534 C 162.943 17.534 162.9 17.493 162.9 17.414 L 162.9 16.907 C 162.9 16.827 162.943 16.787 163.029 16.787 L 168.312 16.787 C 168.397 16.787 168.441 16.828 168.441 16.907 L 168.441 18.508 C 168.441 18.594 168.397 18.637 168.312 18.637 L 167.774 18.637 C 167.695 18.637 167.655 18.595 167.655 18.508 L 167.655 17.533 L 164.651 17.533 L 164.651 20.001 L 167.168 20.001 C 167.254 20.001 167.297 20.041 167.297 20.12 L 167.297 20.628 C 167.297 20.707 167.254 20.747 167.168 20.747 L 164.651 20.747 L 164.651 23.184 L 167.645 23.184 L 167.645 22.209 C 167.645 22.13 167.689 22.09 167.774 22.09 L 168.312 22.09 C 168.397 22.09 168.441 22.131 168.441 22.21 L 168.441 23.811 C 168.441 23.891 168.397 23.93 168.312 23.93 Z M 176.579 23.929 L 176.042 23.929 C 175.915 23.929 175.816 23.904 175.744 23.855 C 175.67 23.805 175.601 23.726 175.535 23.621 L 172.66 19.124 L 172.162 18.288 L 172.143 18.288 L 172.143 23.182 L 172.908 23.182 C 172.994 23.182 173.037 23.222 173.037 23.301 L 173.037 23.809 C 173.037 23.889 172.994 23.928 172.908 23.928 L 170.52 23.928 C 170.435 23.928 170.391 23.888 170.391 23.809 L 170.391 23.301 C 170.391 23.222 170.435 23.182 170.52 23.182 L 171.277 23.182 L 171.277 17.532 L 170.52 17.532 C 170.435 17.532 170.391 17.491 170.391 17.412 L 170.391 16.905 C 170.391 16.825 170.435 16.786 170.52 16.786 L 171.913 16.786 C 172.105 16.786 172.274 16.899 172.421 17.124 L 175.257 21.561 L 175.823 22.526 L 175.843 22.526 L 175.843 17.532 L 175.077 17.532 C 174.998 17.532 174.958 17.492 174.958 17.414 L 174.958 16.906 C 174.958 16.826 174.999 16.787 175.077 16.787 L 177.476 16.787 C 177.555 16.787 177.595 16.827 177.595 16.906 L 177.595 17.414 C 177.595 17.494 177.555 17.533 177.476 17.533 L 176.71 17.533 L 176.71 23.81 C 176.71 23.89 176.666 23.929 176.58 23.929 Z M 183.64 23.929 L 181.322 23.929 C 181.237 23.929 181.193 23.886 181.193 23.8 L 181.193 23.312 C 181.193 23.226 181.237 23.183 181.322 23.183 L 182.079 23.183 L 182.079 17.533 L 180.199 17.533 L 180.199 18.587 C 180.199 18.68 180.152 18.727 180.059 18.727 L 179.502 18.727 C 179.41 18.727 179.363 18.68 179.363 18.587 L 179.363 16.915 C 179.363 16.829 179.41 16.786 179.502 16.786 L 185.502 16.786 C 185.595 16.786 185.64 16.829 185.64 16.915 L 185.64 18.587 C 185.64 18.68 185.593 18.727 185.502 18.727 L 184.934 18.727 C 184.849 18.727 184.805 18.68 184.805 18.587 L 184.805 17.533 L 182.945 17.533 L 182.945 23.183 L 183.642 23.183 C 183.734 23.183 183.781 23.226 183.781 23.312 L 183.781 23.8 C 183.781 23.886 183.734 23.929 183.642 23.929 Z" fill="rgb(179,179,179)"></path></svg>