<svg xmlns="http://www.w3.org/2000/svg" xmlns:xlink="http://www.w3.org/1999/xlink" viewBox="0 0 100 40" overflow="visible"><path d="M 11.773 38.143 C 11.898 38.211 11.898 38.211 12.001 38.245 C 11.983 38.212 11.964 38.18 11.944 38.148 L 11.957 38.156 C 11.919 38.115 11.887 38.067 11.864 38.016 C 11.934 37.983 12.012 37.946 12.328 38.036 L 12.398 38.046 C 12.861 38.153 13.273 38.286 14.032 38.573 L 14.029 38.568 C 15.44 39.098 16.437 39.127 16.451 38.637 L 16.488 38.65 C 16.406 38.106 17.462 37.964 19.055 38.304 L 19.057 38.295 C 20.505 38.611 21.661 38.408 21.869 37.799 L 21.887 37.802 C 22.175 36.438 25.866 36.957 26.526 37.86 C 27.081 38.622 25.041 38.996 23.842 38.851 C 22.682 38.711 21.226 38.993 21.406 39.444 L 21.414 39.472 L 21.408 39.472 C 21.408 39.882 20.295 40.095 18.496 39.718 C 18.48 39.715 16.848 39.43 16.593 39.727 C 16.645 39.83 16.645 39.83 16.69 39.861 L 16.689 39.861 C 16.704 39.886 16.726 39.916 16.741 39.94 C 16.624 40.012 16.619 40.016 16.351 39.968 L 16.346 39.967 L 16.246 39.949 C 15.588 39.809 14.759 39.529 13.783 39.117 C 13.175 38.831 12.363 38.457 11.773 38.143 Z M 5.773 33.385 C 5.401 32.935 4.889 32.348 4.533 31.882 L 4.558 31.912 L 4.616 31.982 C 4.64 32.012 4.674 32.051 4.7 32.08 L 4.77 32.16 C 5.116 32.537 5.41 32.847 5.933 33.396 C 5.932 33.394 5.93 33.391 5.93 33.388 C 7.098 34.593 7.42 34.588 7.575 34.586 C 7.622 34.521 7.647 34.442 7.648 34.362 C 7.658 34.369 7.667 34.377 7.676 34.386 C 7.614 34.042 7.826 33.933 8.309 34.065 L 8.37 34.076 C 8.866 34.208 9.285 34.411 9.973 34.849 L 9.972 34.838 C 11.272 35.676 12.22 35.741 12.452 35.008 L 12.466 35.018 C 12.598 34.345 13.292 34.312 13.502 34.318 C 13.534 34.313 13.575 34.305 13.607 34.302 C 14.24 34.281 14.73 34.386 15.474 34.706 C 15.476 34.702 15.477 34.698 15.478 34.694 C 16.9 35.326 18.157 35.154 18.604 34.266 C 18.612 34.272 18.623 34.276 18.631 34.282 C 18.998 33.314 20.34 32.992 21.822 33.517 L 21.83 33.501 C 23.196 34.017 24.5 33.727 25.072 32.781 C 25.076 32.784 25.081 32.787 25.085 32.789 C 26.038 30.923 29.006 31.524 29.375 33.189 C 29.72 34.744 27.461 35.229 26.267 34.735 C 25.496 34.415 23.793 34.538 23.399 35.555 L 23.387 35.61 L 23.381 35.61 C 22.869 36.64 22.148 36.511 19.761 36.08 C 19.279 35.992 17.68 35.79 17.393 36.84 L 17.39 36.837 C 17.341 36.99 17.226 37.347 16.498 37.424 L 16.492 37.424 C 16.443 37.426 16.394 37.431 16.345 37.439 C 15.644 37.469 14.946 37.325 14.314 37.021 C 13.511 36.623 12.005 36.266 12.107 37.031 L 12.118 37.071 L 12.114 37.068 C 12.098 37.222 12.07 37.481 11.492 37.331 L 11.432 37.323 C 10.19 36.997 9.316 35.981 8.127 35.553 C 8.141 35.6 8.155 35.669 8.191 35.704 L 8.222 35.732 L 8.217 35.728 L 8.295 35.798 C 7.513 35.099 6.473 34.164 5.774 33.385 Z M 1.888 27.394 L 1.626 26.781 L 1.683 26.907 L 1.713 26.823 L 1.691 26.648 C 1.733 26.632 1.774 26.616 1.815 26.599 C 2.005 26.779 2.2 26.962 2.851 28.039 L 2.852 28.029 C 3.482 29.063 4.263 29.862 4.564 29.016 L 4.573 29.03 C 4.618 28.788 4.673 28.682 4.798 28.59 L 4.901 28.535 L 5.025 28.508 L 5.165 28.508 C 5.212 28.514 5.275 28.521 5.321 28.532 L 5.444 28.56 C 5.934 28.703 6.298 28.94 6.884 29.5 L 6.887 29.486 C 8.022 30.592 8.995 30.691 9.424 29.741 L 9.454 29.771 C 9.712 29.014 10.289 28.878 10.727 28.896 L 10.81 28.885 C 11.47 28.889 11.956 29.052 12.662 29.507 C 12.662 29.502 12.665 29.495 12.667 29.49 C 13.997 30.389 15.173 30.264 15.81 29.159 L 15.823 29.169 C 16.301 28.187 17.133 28.054 17.375 28.037 L 17.505 28.004 C 18.267 27.899 18.791 27.995 19.513 28.374 C 19.516 28.369 19.519 28.365 19.522 28.36 C 20.891 29.12 22.338 28.83 23.121 27.636 C 23.129 27.644 23.141 27.651 23.15 27.658 C 23.889 26.341 25.403 25.923 26.75 26.668 C 26.753 26.662 26.76 26.654 26.762 26.648 C 27.994 27.388 29.364 27.102 30.17 25.938 L 30.18 25.948 C 31.307 24.116 33.362 24.586 33.852 26.275 C 34.43 28.269 32.571 29.873 30.882 28.838 C 28.747 27.528 27.682 29.349 27.566 29.561 L 27.531 29.635 L 27.526 29.632 C 25.764 32.293 22.206 28.339 20.709 31.302 C 20.573 31.532 20.259 32.072 19.37 32.255 L 19.362 32.257 L 19.182 32.293 C 17.503 32.531 14.859 30.127 14.13 32.405 L 14.11 32.47 L 14.108 32.467 C 14.014 32.667 13.764 33.202 12.911 33.227 L 12.818 33.237 C 11.312 33.24 8.859 30.429 8.423 32.494 L 8.419 32.55 L 8.414 32.546 C 8.327 32.782 8.194 33.14 7.607 32.966 L 7.522 32.948 L 7.517 32.948 C 7.457 32.931 7.397 32.913 7.337 32.892 L 7.137 32.803 L 7.064 32.765 L 6.974 32.717 L 6.944 32.697 C 6.009 32.097 5.708 30.663 4.306 30.677 C 4.26 30.769 4.24 30.871 4.246 30.974 L 4.258 31.015 L 4.254 31.01 L 4.264 31.156 C 4.223 31.16 4.167 31.166 4.124 31.168 C 3.742 30.802 3.251 30.065 2.659 28.978 C 2.431 28.5 2.099 27.878 1.888 27.394 Z M 0.71 23.232 C 0.614 22.812 0.317 21.388 0.575 20.696 C 0.63 20.677 0.705 20.652 0.759 20.631 C 0.896 20.751 1.104 20.931 1.489 22.018 L 1.493 22.006 C 1.86 23.04 2.476 23.893 3.003 22.894 L 3.017 22.924 C 3.372 21.978 4.185 22.114 5.039 23.266 C 5.041 23.26 5.043 23.255 5.044 23.249 C 5.913 24.444 6.943 24.529 7.55 23.459 C 7.553 23.462 7.556 23.465 7.559 23.468 C 7.727 23.116 7.895 22.892 8.06 22.8 C 8.11 22.765 8.178 22.715 8.231 22.686 C 8.288 22.661 8.361 22.622 8.421 22.601 C 8.48 22.583 8.563 22.564 8.621 22.54 C 8.685 22.531 8.771 22.517 8.835 22.512 L 9.001 22.501 C 9.646 22.493 10.069 22.661 10.681 23.163 L 10.687 23.144 C 11.861 24.169 13.07 24.044 13.842 22.818 L 13.87 22.842 C 14.032 22.542 14.46 21.739 15.607 21.573 L 15.704 21.55 C 16.495 21.446 17.029 21.572 17.741 22.029 C 17.744 22.022 17.751 22.013 17.753 22.007 C 19.113 22.944 20.47 22.695 21.385 21.345 C 21.391 21.349 21.397 21.352 21.403 21.355 C 22.08 20.212 22.946 20.002 23.287 19.964 L 23.427 19.924 C 24.256 19.79 24.774 19.894 25.479 20.34 L 25.489 20.32 C 26.776 21.208 28.273 20.955 29.129 19.704 L 29.154 19.727 C 29.955 18.377 31.372 18.107 32.525 19.087 C 32.528 19.082 32.53 19.073 32.534 19.068 C 33.802 20.229 35.026 19.791 35.579 18.758 C 36.119 17.751 37.623 17.567 38.324 19.255 C 38.808 20.425 38.715 22.697 37.111 22.905 C 36.287 22.827 35.856 22.235 35.709 21.985 C 35.297 21.28 33.932 20.895 33.027 22.402 L 32.987 22.484 L 32.983 22.482 C 31.84 24.158 30.153 23.362 29.699 22.898 C 29.024 22.206 27.179 22.032 26.187 23.82 C 25.991 24.105 25.532 24.77 24.535 25.012 L 24.526 25.015 L 24.326 25.063 C 22.469 25.386 19.993 23.123 18.716 25.455 L 18.678 25.544 L 18.672 25.54 C 18.137 26.389 17.489 26.613 17.039 26.654 L 16.924 26.684 C 15.164 26.885 12.712 24.3 11.664 26.556 L 11.633 26.639 L 11.631 26.635 C 11.165 27.485 10.537 27.528 10.288 27.508 L 10.176 27.523 L 10.169 27.525 C 10.089 27.522 10.009 27.52 9.929 27.518 L 9.679 27.476 L 9.591 27.455 L 9.481 27.419 L 9.445 27.407 C 8.538 27.041 8.01 26.079 7.015 25.855 C 6.814 25.809 6.139 25.729 5.827 26.589 L 5.81 26.66 L 5.807 26.655 C 5.062 28.074 3.828 26.403 3.616 26.015 C 3.276 25.394 2.277 24.219 2.04 25.253 L 2.035 25.31 L 2.032 25.305 C 1.991 25.424 1.917 25.53 1.818 25.608 C 1.382 25.331 1.008 24.53 0.71 23.232 Z M 0.315 13.9 C 0.455 13.282 0.63 12.452 0.798 11.84 C 0.808 11.813 0.818 11.785 0.828 11.758 L 0.88 11.602 C 0.878 11.709 0.878 11.709 0.61 13.24 L 0.614 13.231 C 0.413 14.447 0.496 14.695 0.552 14.86 C 0.654 14.812 0.736 14.732 0.788 14.632 L 0.787 14.647 C 0.857 14.481 0.901 14.381 0.995 14.307 L 1.047 14.287 L 1.097 14.293 L 1.146 14.33 L 1.194 14.39 L 1.231 14.448 C 1.344 14.691 1.421 14.851 1.525 15.655 C 1.528 15.651 1.53 15.647 1.531 15.642 C 1.679 16.767 2.046 17.15 2.487 16.637 C 2.543 16.572 2.597 16.472 2.637 16.399 L 2.644 16.431 C 2.907 15.901 3.204 15.696 3.527 15.826 L 3.574 15.828 C 3.931 15.941 4.164 16.178 4.464 16.735 C 4.467 16.73 4.469 16.724 4.47 16.718 C 5.063 17.855 5.877 17.912 6.543 16.863 L 6.55 16.875 C 7.057 15.975 7.63 15.91 7.853 15.924 L 7.952 15.904 C 8.528 15.886 8.906 16.044 9.399 16.512 C 9.402 16.507 9.405 16.502 9.408 16.497 C 10.4 17.486 11.688 17.306 12.54 16.059 C 12.547 16.068 12.554 16.077 12.56 16.087 C 13.355 14.741 14.81 14.378 16.102 15.203 L 16.116 15.181 C 17.383 16.054 18.96 15.731 19.866 14.414 C 19.871 14.416 19.874 14.421 19.878 14.425 C 21.365 11.975 24.312 13.125 24.813 15.155 C 25.383 17.463 22.841 19.225 20.813 17.929 C 18.498 16.447 17.313 17.759 16.813 18.674 L 16.767 18.764 L 16.761 18.761 C 16.551 19.075 15.995 19.911 14.801 19.979 C 14.484 19.987 14.169 19.935 13.871 19.826 C 13.431 19.62 13.127 19.216 12.696 18.996 C 12.51 18.902 10.856 18.128 9.86 19.979 C 9.697 20.239 9.318 20.849 8.54 20.909 L 8.533 20.911 L 8.379 20.923 C 7.73 20.928 7.128 20.587 6.799 20.028 C 6.303 19.201 5.221 18.803 4.652 20.062 L 4.621 20.132 L 4.621 20.128 C 4.515 20.318 4.195 20.893 3.645 20.727 L 3.585 20.717 C 2.988 20.501 2.718 19.882 2.612 19.533 C 2.383 18.783 1.76 17.795 1.353 18.913 L 1.335 18.969 L 1.335 18.964 C 1.112 19.456 0.934 19.364 0.821 19.199 L 0.787 19.161 L 0.784 19.158 L 0.72 19.055 L 0.658 18.917 L 0.636 18.859 L 0.612 18.789 L 0.605 18.759 C 0.37 17.9 0.516 16.99 0.242 16.139 C 0.17 16.193 0.116 16.267 0.088 16.353 L 0.079 16.396 L 0.079 16.389 C 0.068 16.431 0.051 16.486 0.041 16.528 C -0.011 16.387 -0.021 16.358 0.054 15.66 C 0.134 15.127 0.209 14.421 0.315 13.9 Z M 2.315 7.924 C 2.739 7.069 3.263 6.18 3.505 5.846 C 2.975 6.826 2.975 6.826 2.717 7.356 C 2.718 7.353 2.72 7.35 2.722 7.348 C 2.316 8.204 2.236 8.506 2.177 8.785 C 2.237 8.765 2.32 8.733 2.358 8.683 C 2.414 8.593 2.492 8.473 2.563 8.396 C 2.669 8.522 2.691 8.547 2.526 9.605 C 2.529 9.601 2.531 9.597 2.533 9.593 C 2.419 10.356 2.485 10.587 2.653 10.769 C 2.899 10.73 2.899 10.73 3.132 10.398 L 3.133 10.407 C 3.242 10.221 3.303 10.118 3.458 9.989 L 3.543 9.936 L 3.627 9.908 L 3.709 9.901 L 3.792 9.923 L 3.854 9.946 C 4.106 10.108 4.211 10.243 4.378 10.766 L 4.384 10.754 C 4.684 11.755 5.343 11.829 5.952 10.929 C 5.956 10.936 5.959 10.943 5.962 10.951 C 6.105 10.711 6.44 10.151 7.097 10.117 L 7.155 10.107 C 7.625 10.089 7.926 10.224 8.309 10.623 C 8.312 10.618 8.316 10.612 8.319 10.607 C 9.084 11.456 10.076 11.301 10.848 10.21 L 10.859 10.219 C 11.428 9.305 12.104 9.125 12.369 9.089 L 12.479 9.055 C 13.149 8.927 13.572 8.998 14.159 9.338 C 14.163 9.332 14.165 9.326 14.167 9.32 C 15.317 10.047 16.727 9.739 17.522 8.584 C 17.531 8.589 17.539 8.595 17.547 8.602 C 18.267 7.392 19.671 7.023 21.044 7.687 C 21.047 7.681 21.049 7.675 21.05 7.669 C 22.419 8.39 23.873 8.13 24.583 7.035 L 24.596 7.045 C 25.696 5.012 28.624 6.109 29.293 7.845 C 30.029 9.755 28.136 11.192 26.129 10.247 C 24.382 9.426 23.12 8.832 22.039 10.692 L 21.994 10.78 L 21.993 10.776 C 20.968 12.31 20.548 12.162 17.827 11.192 C 17.502 11.075 15.823 10.594 14.708 12.469 C 14.528 12.725 14.051 13.404 13.141 13.607 L 13.133 13.608 L 12.953 13.648 C 11.889 13.804 11.355 13.368 11.13 13.094 C 10.68 12.547 9.408 12.132 8.505 13.647 L 8.466 13.727 L 8.464 13.724 C 7.939 14.51 7.438 14.607 7.187 14.594 L 7.106 14.609 C 6.344 14.594 6.011 14.094 5.882 13.797 C 5.637 13.237 4.85 12.452 4.112 13.769 L 4.079 13.837 L 4.079 13.833 C 3.639 14.536 3.32 14.421 3.232 14.371 L 3.177 14.361 L 3.173 14.361 L 3.065 14.31 L 2.964 14.224 L 2.929 14.187 L 2.889 14.133 L 2.876 14.116 C 2.55 13.496 2.833 12.672 2.223 12.147 C 1.995 12.174 1.949 12.179 1.751 12.56 L 1.726 12.616 L 1.726 12.611 C 1.583 12.861 1.583 12.861 1.392 12.931 C 0.872 11.901 1.588 10.974 1.632 9.991 C 1.56 10.046 1.501 10.116 1.458 10.196 L 1.438 10.24 L 1.439 10.234 L 1.369 10.368 C 1.369 10.313 1.372 10.239 1.373 10.183 C 1.463 9.922 1.713 9.139 2.315 7.924 Z M 6.842 1.74 L 6.799 1.782 C 6.812 1.767 6.827 1.753 6.842 1.74 L 6.812 1.77 C 6.782 1.796 6.755 1.824 6.725 1.85 L 6.655 1.92 C 6.305 2.261 5.971 2.618 5.654 2.99 C 5.656 2.99 5.656 2.987 5.659 2.985 C 4.991 3.775 4.795 4.112 4.751 4.197 C 4.789 4.162 4.836 4.112 4.869 4.072 L 4.851 4.097 C 4.901 4.032 4.951 3.967 5.008 3.909 C 4.991 3.976 4.991 3.976 4.949 4.06 L 4.941 4.08 C 4.671 4.645 4.671 4.645 4.526 4.979 L 4.531 4.97 C 4.341 5.422 4.28 5.662 4.3 5.86 L 4.353 5.899 C 4.455 5.861 4.487 5.849 4.645 5.627 C 4.645 5.631 4.644 5.634 4.642 5.637 C 4.912 5.235 5.042 5.24 5.102 5.315 L 5.125 5.323 C 5.252 5.417 5.319 5.58 5.383 5.947 C 5.384 5.944 5.386 5.941 5.388 5.939 C 5.542 6.809 6.147 6.691 6.613 6.035 L 6.621 6.054 C 7.336 4.919 8.185 5.497 8.428 5.701 C 8.431 5.697 8.433 5.692 8.437 5.688 C 9.183 6.352 10.179 5.964 10.711 5.203 L 10.721 5.209 C 11.691 3.645 13.876 4.209 14.287 5.418 C 14.784 6.881 12.951 8.358 11.485 7.677 C 11.228 7.557 11.065 7.3 10.793 7.2 C 10.524 7.098 10.234 7.066 9.949 7.108 C 9.396 7.182 8.896 7.538 8.606 8.061 L 8.569 8.125 L 8.566 8.122 C 7.685 9.385 6.723 8.897 6.476 8.292 C 6.21 7.64 5.441 7.389 4.929 8.378 L 4.928 8.378 C 4.833 8.518 4.545 8.944 4.245 8.849 L 4.243 8.848 L 4.186 8.828 C 3.43 8.394 4.22 7.56 3.819 7.009 C 3.727 7.012 3.661 7.013 3.457 7.348 L 3.431 7.391 L 3.433 7.387 C 3.263 7.639 3.237 7.641 3.151 7.653 C 3.139 7.62 3.121 7.576 3.121 7.541 L 3.119 7.516 C 3.179 6.603 3.8 5.92 4.097 5.107 C 4.039 5.159 4.039 5.159 3.942 5.295 L 3.919 5.329 L 3.922 5.324 L 3.838 5.437 C 3.861 5.353 3.861 5.353 3.926 5.247 L 3.955 5.2 L 3.957 5.196 L 4.029 5.08 L 4.123 4.938 L 4.161 4.881 L 4.207 4.813 L 4.227 4.785 C 4.784 3.984 5.401 3.226 6.072 2.518 L 6.048 2.544 L 6.05 2.541 L 5.97 2.627 C 6.321 2.258 6.452 2.121 6.842 1.74 C 6.841 1.74 6.841 1.74 6.842 1.74 Z M 6.846 1.735 C 6.676 1.9 6.483 2.087 6.31 2.312 C 6.327 2.294 6.354 2.272 6.372 2.254 L 6.362 2.267 L 6.425 2.195 L 6.421 2.239 L 6.416 2.249 C 6.352 2.387 6.299 2.531 6.26 2.679 C 6.262 2.679 6.263 2.676 6.264 2.673 C 6.163 3.072 6.316 3.116 6.444 3.049 C 6.534 2.992 6.611 2.916 6.669 2.827 C 6.669 2.828 6.669 2.831 6.671 2.832 C 6.724 2.752 6.886 2.507 7.126 2.496 L 7.159 2.486 C 7.375 2.456 7.529 2.49 7.743 2.614 L 7.746 2.607 C 8.299 2.945 8.966 2.667 9.268 2.217 L 9.283 2.223 C 9.634 1.592 10.551 1.477 11.227 1.569 L 11.228 1.562 C 12.414 1.753 13.261 1.333 13.545 0.862 C 13.549 0.862 13.553 0.862 13.556 0.864 C 14.191 -0.493 17.462 -0.088 17.676 0.955 C 17.872 1.911 16.009 2.629 14.656 2.12 C 14.066 1.898 12.691 1.969 12.169 2.898 L 12.149 2.948 L 12.145 2.946 C 11.506 3.912 11.015 3.782 9.558 3.396 C 9.17 3.292 8.445 3.243 7.936 4.066 C 7.851 4.187 7.588 4.556 7.176 4.616 L 7.172 4.617 L 7.093 4.629 C 6.648 4.644 6.511 4.359 6.468 4.189 C 6.466 4.181 6.243 3.369 5.718 4.143 L 5.695 4.178 L 5.697 4.176 C 5.503 4.44 5.429 4.466 5.322 4.432 L 5.315 4.417 L 5.302 4.407 C 5.242 4.173 5.242 4.173 5.814 2.93 C 5.738 2.995 5.738 2.995 5.681 3.065 L 5.659 3.092 L 5.661 3.088 C 5.63 3.126 5.597 3.162 5.564 3.198 C 5.589 3.134 5.589 3.134 5.642 3.061 L 5.664 3.03 L 5.664 3.027 C 5.684 3.003 5.708 2.97 5.727 2.945 C 5.751 2.913 5.784 2.874 5.807 2.842 L 5.841 2.802 L 5.885 2.749 L 5.899 2.733 C 6.199 2.378 6.473 2.088 6.843 1.734 C 6.843 1.738 6.844 1.737 6.846 1.735 Z M 31.55 32.916 C 30.426 31.854 31.526 30.126 32.943 30.121 C 34.44 30.115 35.063 32.007 34.19 32.931 C 33.918 33.218 33.62 33.309 33.422 33.369 C 32.394 33.588 31.771 33.124 31.55 32.916 Z M 27.798 15.698 C 26.474 13.742 27.741 11.374 29.882 11.801 C 32.162 12.254 33.046 15.401 31.236 16.611 C 30.906 16.832 30.647 16.884 30.372 16.941 C 28.951 17.07 28.148 16.218 27.798 15.698 Z M 16.1 5.7 C 14.941 4.534 15.69 2.764 17.848 2.833 C 19.781 2.896 20.854 4.531 19.731 5.703 C 19.329 6.121 18.858 6.257 18.579 6.338 C 17.237 6.602 16.449 6.05 16.1 5.7 Z M 47.867 23.174 C 46.466 21.49 45.766 19.232 45.766 16.402 C 45.766 14.113 46.155 12.255 46.934 10.832 C 47.712 9.408 48.746 8.384 50.034 7.759 C 51.322 7.136 52.774 6.824 54.388 6.824 C 55.519 6.824 56.558 6.96 57.504 7.229 C 58.449 7.499 59.394 7.913 60.34 8.471 L 58.859 11.403 C 57.535 10.546 56.101 10.118 54.553 10.118 C 51.403 10.118 49.827 12.138 49.827 16.178 C 49.827 18.188 50.266 19.714 51.142 20.758 C 52.018 21.801 53.258 22.321 54.859 22.321 C 55.679 22.321 56.398 22.214 57.013 22 C 57.684 21.76 58.33 21.456 58.943 21.092 L 60.481 23.884 C 59.479 24.481 58.501 24.931 57.545 25.238 C 56.56 25.549 55.533 25.705 54.5 25.698 C 51.478 25.7 49.266 24.858 47.867 23.174 Z M 61.343 23.523 L 63.123 20.759 C 64.848 21.858 66.534 22.406 68.185 22.406 C 69.242 22.406 70.072 22.238 70.675 21.903 C 71.277 21.568 71.578 21.066 71.578 20.396 C 71.578 19.986 71.481 19.646 71.286 19.376 C 71.091 19.106 70.748 18.846 70.257 18.596 C 69.765 18.344 69.028 18.023 68.047 17.632 L 67.407 17.381 C 66.22 16.916 65.265 16.468 64.542 16.041 C 63.844 15.637 63.253 15.072 62.817 14.394 C 62.391 13.724 62.177 12.876 62.177 11.852 C 62.177 10.716 62.501 9.772 63.15 9.018 C 63.799 8.264 64.633 7.711 65.653 7.358 C 66.7 7 67.8 6.82 68.907 6.827 C 69.945 6.827 71.015 6.999 72.12 7.343 C 73.24 7.696 74.303 8.209 75.277 8.865 L 73.479 11.602 C 72.594 11.062 71.811 10.672 71.129 10.429 C 70.419 10.182 69.671 10.059 68.919 10.066 C 68.034 10.066 67.365 10.216 66.914 10.513 C 66.462 10.811 66.237 11.211 66.237 11.713 C 66.237 12.031 66.33 12.313 66.514 12.565 C 66.699 12.816 67.03 13.068 67.509 13.319 C 67.988 13.57 68.679 13.863 69.582 14.199 L 70.19 14.422 C 71.37 14.868 72.324 15.287 73.052 15.678 C 73.792 16.079 74.423 16.654 74.892 17.353 C 75.389 18.079 75.638 19.019 75.638 20.173 C 75.638 21.383 75.323 22.402 74.693 23.231 C 74.062 24.059 73.203 24.678 72.12 25.087 C 71.036 25.497 69.807 25.701 68.434 25.701 C 65.654 25.7 63.289 24.974 61.343 23.523 Z M 81.383 24.5 C 80.056 23.719 78.994 22.556 78.338 21.163 C 77.652 19.74 77.309 18.087 77.309 16.207 C 77.309 14.122 77.726 12.377 78.561 10.971 C 79.395 9.565 80.502 8.523 81.885 7.843 C 83.265 7.164 84.801 6.824 86.488 6.824 C 88.417 6.824 90.052 7.225 91.398 8.024 C 92.723 8.804 93.781 9.968 94.43 11.362 C 95.106 12.786 95.445 14.438 95.445 16.319 C 95.445 18.404 95.032 20.149 94.207 21.554 C 93.382 22.96 92.278 24.002 90.897 24.682 C 89.515 25.362 87.981 25.702 86.294 25.702 C 84.364 25.7 82.727 25.3 81.384 24.5 Z M 89.088 21.722 C 89.858 21.228 90.433 20.522 90.813 19.6 C 91.193 18.679 91.383 17.594 91.383 16.348 C 91.383 14.375 90.966 12.834 90.132 11.726 C 89.298 10.62 88.082 10.066 86.488 10.066 C 84.819 10.066 83.548 10.609 82.678 11.698 C 81.805 12.788 81.371 14.281 81.371 16.18 C 81.371 18.154 81.788 19.694 82.622 20.802 C 83.456 21.91 84.68 22.462 86.294 22.462 C 87.386 22.462 88.319 22.214 89.088 21.722 Z M 68.26 28.5 L 68.26 35.986 L 67.517 35.986 L 63.573 30.14 C 63.543 30.094 63.476 29.995 63.373 29.846 C 63.275 29.703 63.186 29.555 63.106 29.401 L 63.106 35.986 L 62.461 35.986 L 62.461 28.5 L 63.159 28.5 L 67.079 34.277 C 67.179 34.415 67.276 34.559 67.372 34.709 C 67.468 34.859 67.549 35.004 67.618 35.142 L 67.618 28.5 Z M 74.107 33.548 L 70.447 33.548 C 70.455 34.257 70.603 34.775 70.891 35.103 C 71.179 35.43 71.58 35.593 72.093 35.593 C 72.338 35.593 72.557 35.569 72.749 35.519 C 72.941 35.469 73.109 35.407 73.249 35.334 C 73.391 35.26 73.554 35.162 73.739 35.039 L 73.98 35.479 C 73.696 35.679 73.403 35.835 73.1 35.947 C 72.773 36.062 72.429 36.119 72.082 36.114 C 71.399 36.114 70.856 35.902 70.454 35.478 C 70.05 35.055 69.849 34.4 69.849 33.514 C 69.849 33.075 69.934 32.658 70.102 32.26 C 70.265 31.87 70.532 31.533 70.873 31.285 C 71.218 31.031 71.648 30.904 72.163 30.904 C 72.6 30.904 72.967 30.997 73.263 31.182 C 73.558 31.367 73.777 31.615 73.918 31.927 C 74.06 32.239 74.131 32.595 74.131 32.995 C 74.132 33.18 74.124 33.364 74.107 33.548 Z M 71.28 31.62 C 71.046 31.778 70.856 31.993 70.727 32.244 C 70.592 32.503 70.505 32.785 70.47 33.075 L 73.532 33.075 L 73.532 32.982 C 73.532 32.474 73.417 32.079 73.189 31.799 C 72.96 31.518 72.614 31.377 72.15 31.377 C 71.806 31.376 71.517 31.457 71.28 31.62 Z M 78.238 35.836 C 77.897 36.015 77.518 36.11 77.133 36.114 C 76.658 36.114 76.295 35.97 76.046 35.68 C 75.796 35.39 75.672 34.989 75.672 34.474 L 75.672 31.504 L 74.612 31.504 L 74.612 31.019 L 75.672 31.019 L 75.672 29.852 L 76.27 29.759 L 76.27 31.019 L 78.1 31.019 L 78.03 31.503 L 76.27 31.503 L 76.27 34.38 C 76.27 34.78 76.343 35.083 76.488 35.287 C 76.634 35.491 76.864 35.593 77.178 35.593 C 77.455 35.593 77.75 35.523 78.065 35.385 Z M 85.741 31.018 L 85.741 31.076 L 84.096 35.986 L 83.498 35.986 L 82.358 32.358 C 82.286 32.142 82.224 31.922 82.174 31.7 C 82.144 31.885 82.086 32.104 82.001 32.358 L 80.862 35.986 L 80.287 35.986 L 78.595 31.076 L 78.595 31.018 L 79.229 31.018 L 80.403 34.658 C 80.488 34.918 80.548 35.131 80.588 35.293 C 80.633 35.1 80.691 34.888 80.761 34.657 L 81.877 31.018 L 82.522 31.018 L 83.661 34.726 C 83.723 34.911 83.776 35.106 83.823 35.315 C 83.845 35.161 83.896 34.965 83.972 34.726 L 85.157 31.018 Z M 87.227 35.766 C 86.881 35.534 86.609 35.207 86.444 34.825 C 86.263 34.404 86.173 33.949 86.18 33.49 C 86.18 32.897 86.291 32.406 86.514 32.017 C 86.715 31.649 87.024 31.352 87.4 31.167 C 87.789 30.986 88.213 30.895 88.642 30.903 C 89.142 30.903 89.565 31.014 89.914 31.238 C 90.263 31.461 90.524 31.769 90.696 32.161 C 90.87 32.555 90.956 33.001 90.956 33.501 C 90.956 34.101 90.848 34.597 90.633 34.986 C 90.418 35.376 90.126 35.66 89.759 35.841 C 89.391 36.021 88.969 36.113 88.493 36.113 C 87.993 36.113 87.572 35.998 87.227 35.767 Z M 89.91 35.033 C 90.207 34.66 90.356 34.145 90.356 33.491 C 90.356 32.859 90.212 32.356 89.922 31.977 C 89.632 31.6 89.19 31.411 88.596 31.411 C 87.978 31.411 87.52 31.598 87.223 31.972 C 86.926 32.345 86.777 32.852 86.777 33.492 C 86.777 34.131 86.923 34.641 87.217 35.022 C 87.51 35.402 87.957 35.594 88.56 35.594 C 89.163 35.594 89.613 35.406 89.91 35.034 Z M 94.695 30.92 C 94.795 30.932 94.905 30.953 95.029 30.984 L 94.879 31.597 C 94.69 31.533 94.493 31.498 94.293 31.493 C 94.025 31.493 93.773 31.571 93.539 31.73 C 93.305 31.889 93.103 32.147 92.935 32.51 L 92.935 35.987 L 92.337 35.987 L 92.337 31.02 L 92.935 30.95 L 92.935 31.77 C 93.127 31.477 93.347 31.26 93.597 31.118 C 93.847 30.976 94.11 30.905 94.387 30.905 C 94.491 30.904 94.595 30.91 94.695 30.921 Z M 97.526 33.317 L 100 35.93 L 100 35.988 L 99.287 35.988 L 96.801 33.365 L 96.801 35.988 L 96.203 35.988 L 96.203 28.039 L 96.801 27.969 L 96.801 33.296 L 99.137 31.019 L 99.804 31.019 L 99.804 31.077 L 97.526 33.318 Z" fill="rgb(179,179,179)"></path></svg>