<svg width="311" height="101" viewBox="0 0 311 101" fill="none" xmlns="http://www.w3.org/2000/svg">
<path d="M185.012 58.7037C181.559 57.4392 179.127 53.9376 179.127 49.8037V35.3595C179.127 32.7333 177.182 30.6421 174.75 30.6421C172.319 30.6421 170.373 32.7333 170.373 35.3595V49.8037C170.373 58.1687 175.48 65.2693 182.532 67.7496C185.207 68.6736 187.93 66.5824 187.93 63.5671V62.9348C187.93 60.9895 186.763 59.3846 185.061 58.7523L185.012 58.7037Z" fill="#B3B3B3"/>
<path d="M292.638 29.9612C282.96 29.9612 275.082 38.4235 275.082 48.8311C275.082 59.2387 282.96 67.7009 292.638 67.7009C302.316 67.7009 310.195 59.2387 310.195 48.8311C310.195 38.4235 302.316 29.9612 292.638 29.9612ZM292.638 58.2174C287.775 58.2174 283.884 53.9862 283.884 48.7824C283.884 43.5786 287.824 39.3475 292.638 39.3475C297.453 39.3475 301.392 43.5786 301.392 48.7824C301.392 53.9862 297.453 58.2174 292.638 58.2174Z" fill="#B3B3B3"/>
<path d="M228.442 30.6421C226.01 30.6421 224.065 32.7333 224.065 35.3595V48.7824C224.065 54.1321 219.882 58.4605 214.873 58.2174C210.156 57.9742 206.508 53.5972 206.508 48.5393V35.3595C206.508 32.7333 204.563 30.6421 202.131 30.6421C199.699 30.6421 197.754 32.7333 197.754 35.3595V48.7824C197.754 59.19 205.633 67.6523 215.311 67.6523C224.989 67.6523 232.868 59.19 232.868 48.7824V35.3595C232.868 32.7333 230.922 30.6421 228.491 30.6421H228.442Z" fill="#B3B3B3"/>
<path d="M142.02 30.0098C131.807 29.329 123.344 38.0344 123.344 48.8311V72.3698C123.344 74.996 125.29 77.0872 127.722 77.0872C130.153 77.0872 132.099 74.996 132.099 72.3698V49.0742C132.099 44.0163 135.746 39.6393 140.464 39.3961C145.521 39.153 149.655 43.4327 149.655 48.8311C149.655 54.2294 145.716 58.266 140.901 58.266C138.47 58.266 136.524 60.3572 136.524 62.9835C136.524 65.6097 138.47 67.7009 140.901 67.7009C150.968 67.7009 159.042 58.6064 158.409 47.6639C157.874 38.2775 150.774 30.6421 142.02 30.0585V30.0098Z" fill="#B3B3B3"/>
<path d="M255.093 47.8098H263.41C265.793 47.8098 267.787 45.7185 267.787 43.1409C267.787 40.5633 265.841 38.4721 263.41 38.4721H255.093V35.6513C255.093 33.171 253.44 30.9825 251.154 30.7393C248.528 30.4475 246.339 32.6847 246.339 35.4082V49.8524C246.339 59.0928 252.516 66.7769 260.686 68.3818C261.075 68.4791 262.048 68.5763 263.264 68.5763C265.744 68.5763 267.787 66.5824 267.787 63.9075C267.787 61.2327 265.938 59.3846 263.604 59.2387C262.972 59.2387 262.534 59.19 262.388 59.1414C258.546 58.3146 255.531 55.3966 255.142 50.825C255.142 50.6305 255.142 49.9983 255.142 49.3174V47.8098H255.093Z" fill="#B3B3B3"/>
<path d="M85.9451 86.279C91.9757 80.2484 96.1096 73.002 98.3467 65.2693C96.3527 70.2785 94.3587 73.3424 94.3587 73.3424C92.6566 76.1632 90.614 78.7894 88.2309 81.1725C75.4402 93.9631 56.084 96.5894 39.2081 89.4888C39.1109 89.4888 39.0136 89.3916 38.8677 89.3429C38.6245 89.2457 38.43 89.1484 38.1868 89.0511C33.7612 87.2517 25.7852 83.1664 15.2804 86.279L15.864 85.8413C20.8732 82.7774 30.6 78.6435 45.1414 80.3457C50.3452 80.9779 55.5004 81.902 60.4611 82.3883C60.4611 82.3883 60.5097 82.3883 60.5583 82.3883C71.8413 83.8473 82.9785 80.7834 90.9058 72.8561C97.374 66.3878 100.632 57.731 100.778 48.6365C100.292 51.6518 99.5139 54.1321 98.7844 56.0289C98.4926 56.8556 98.1035 57.6824 97.7145 58.5092C97.5686 58.801 97.4713 59.0441 97.3254 59.2387C97.3254 59.3359 97.2281 59.3846 97.2281 59.4818C96.9363 60.0168 96.7418 60.3086 96.7418 60.3086C95.7691 61.8649 94.6505 63.2753 93.3374 64.637C81.4708 76.5036 59.0507 73.2938 43.2447 57.5365C27.4388 41.7305 24.2776 19.3104 36.1442 7.44379C38.8677 4.72031 42.1262 2.82359 45.725 1.65639C45.725 1.65639 46.26 1.46185 47.2327 1.21868C47.3786 1.21868 47.5245 1.12141 47.6704 1.12141C48.0108 1.02414 48.4485 0.926878 48.8862 0.82961C48.9349 0.82961 49.0321 0.82961 49.0808 0.82961C50.5884 0.537808 52.5338 0.246005 54.8195 0.148738C44.7037 -0.337599 34.977 2.82359 27.8278 9.97275C19.9006 17.9 16.8366 29.0372 18.2956 40.3202C18.2956 40.3202 18.2956 40.3202 18.2956 40.3688C18.782 45.3294 19.706 50.436 20.2896 55.6398C21.9918 70.1813 17.8579 79.9566 14.794 84.9659L14.3563 85.5495C17.4689 75.0446 13.3836 67.0201 11.5842 62.5944C11.4869 62.3512 11.3897 62.1567 11.2924 61.9135C11.2438 61.8163 11.1951 61.6704 11.1465 61.5731C4.04597 44.6972 6.72083 25.341 19.4629 12.5503C21.8459 10.1673 24.5208 8.12466 27.2929 6.42249C27.2929 6.42249 30.3082 4.42851 35.3661 2.43452C27.6333 4.67167 20.3869 8.7569 14.3563 14.8361C-1.79007 30.9825 -3.29772 56.7097 8.03393 76.2118C8.03393 76.2118 8.08257 76.2605 8.1312 76.3577C8.22847 76.5523 8.37437 76.7468 8.52027 76.99C9.63885 78.9353 12.2164 84.1878 11.341 89.4402C16.5935 88.5648 21.8459 91.191 23.7912 92.261C23.9858 92.4069 24.1803 92.5041 24.4235 92.65C24.5208 92.6987 24.618 92.7473 24.618 92.7473C44.1201 104.079 69.7987 102.571 85.9937 86.4249L85.9451 86.279Z" fill="#B3B3B3"/>
<path d="M52.9715 47.7125C66.7349 61.4758 85.1184 65.4152 94.0184 56.5152C102.918 47.6152 98.979 29.2317 85.2157 15.4683C71.4523 1.70501 53.0688 -2.23432 44.1688 6.66565C35.2689 15.5656 39.2082 33.9492 52.9715 47.7125ZM83.5621 17.1219C94.2615 27.8213 98.444 40.9038 92.997 46.3994C87.5014 51.895 74.419 47.6639 63.7196 36.9644C53.0202 26.265 48.8377 13.1826 54.2846 7.68696C59.7802 2.19135 72.8627 6.42248 83.5621 17.1219Z" fill="#B3B3B3"/>
</svg>
`,withExternalLayout:!0})}),p(S.div,{className:`framer-1158gbx`,"data-framer-name":`Appreal`,children:_(J,{className:`framer-1tt76za`,requiresOverflowVisible:!1,svg:`<svg xmlns="http://www.w3.org/2000/svg" xmlns:xlink="http://www.w3.org/1999/xlink" viewBox="0 0 135.789 31.814" overflow="visible"><path d="M 19.02 0 L 12.68 0 L 12.68 9.56 C 12.653 11.291 11.242 12.681 9.51 12.68 L 0 12.68 L 0 19.02 L 6.884 19.02 C 8.565 19.021 10.178 18.353 11.367 17.164 L 17.164 11.367 C 18.353 10.178 19.021 8.565 19.02 6.884 Z M 12.68 31.698 L 19.02 31.698 L 19.02 22.14 C 19.048 20.409 20.459 19.02 22.19 19.02 L 31.701 19.02 L 31.701 12.679 L 24.816 12.679 C 23.135 12.68 21.523 13.348 20.334 14.536 L 14.537 20.333 C 13.348 21.522 12.68 23.134 12.68 24.815 L 12.68 31.7 Z M 46.442 26.154 L 41.877 26.154 L 48.771 5.978 L 54.185 5.978 L 61.254 26.154 L 56.665 26.154 L 53.432 16.415 C 53.041 15.162 52.645 13.788 52.243 12.294 C 51.807 10.665 51.384 9.032 50.975 7.396 L 51.87 7.396 C 51.481 9.039 51.082 10.679 50.673 12.317 C 50.334 13.692 49.961 15.058 49.556 16.415 Z M 56.95 21.471 L 46.18 21.471 L 46.18 18.229 L 56.95 18.229 Z M 65.913 31.813 L 61.848 31.813 L 61.848 11.01 L 65.842 11.01 L 65.842 13.562 L 66.033 13.562 C 66.223 13.161 66.492 12.749 66.841 12.326 C 67.19 11.903 67.649 11.547 68.22 11.257 C 68.785 10.966 69.498 10.82 70.359 10.82 C 71.474 10.82 72.496 11.111 73.426 11.693 C 74.356 12.268 75.101 13.135 75.661 14.292 C 76.217 15.449 76.493 16.889 76.493 18.611 C 76.493 20.29 76.222 21.713 75.677 22.875 C 75.138 24.032 74.404 24.911 73.474 25.514 C 72.544 26.11 71.495 26.409 70.328 26.409 C 69.509 26.409 68.814 26.269 68.243 25.989 C 67.673 25.715 67.211 25.371 66.857 24.958 C 66.526 24.589 66.249 24.176 66.032 23.731 L 65.913 23.731 L 65.913 31.814 Z M 69.083 23.151 C 69.787 23.151 70.38 22.955 70.866 22.565 C 71.348 22.179 71.712 21.642 71.96 20.956 C 72.209 20.269 72.332 19.482 72.332 18.594 C 72.332 17.711 72.209 16.932 71.96 16.256 C 71.712 15.58 71.348 15.047 70.866 14.655 C 70.391 14.27 69.797 14.077 69.083 14.077 C 68.386 14.077 67.795 14.265 67.308 14.639 C 66.822 15.009 66.452 15.532 66.198 16.209 C 65.945 16.879 65.819 17.675 65.819 18.594 C 65.819 19.508 65.947 20.306 66.207 20.988 C 66.46 21.669 66.833 22.2 67.324 22.58 C 67.81 22.961 68.396 23.151 69.083 23.151 Z M 81.598 31.813 L 77.531 31.813 L 77.531 11.01 L 81.526 11.01 L 81.526 13.562 L 81.716 13.562 C 81.934 13.119 82.205 12.703 82.524 12.326 C 82.873 11.903 83.33 11.547 83.896 11.257 C 84.466 10.966 85.179 10.82 86.035 10.82 C 87.156 10.82 88.18 11.111 89.11 11.693 C 90.04 12.268 90.783 13.135 91.337 14.292 C 91.892 15.449 92.169 16.889 92.169 18.611 C 92.169 20.29 91.9 21.713 91.361 22.875 C 90.817 24.032 90.08 24.911 89.15 25.514 C 88.22 26.11 87.174 26.409 86.012 26.409 C 85.187 26.409 84.492 26.269 83.927 25.989 C 83.356 25.715 82.894 25.371 82.54 24.958 C 82.21 24.589 81.932 24.176 81.716 23.731 L 81.598 23.731 L 81.598 31.814 Z M 84.768 23.151 C 85.47 23.151 86.062 22.955 86.542 22.565 C 87.028 22.179 87.396 21.642 87.644 20.956 C 87.893 20.269 88.017 19.482 88.017 18.594 C 88.017 17.711 87.893 16.932 87.644 16.256 C 87.396 15.58 87.031 15.047 86.55 14.655 C 86.075 14.27 85.481 14.077 84.768 14.077 C 84.07 14.077 83.478 14.265 82.992 14.639 C 82.506 15.009 82.136 15.532 81.883 16.209 C 81.629 16.879 81.502 17.675 81.502 18.594 C 81.502 19.508 81.632 20.306 81.89 20.988 C 82.144 21.669 82.517 22.2 83.008 22.58 C 83.494 22.961 84.08 23.151 84.768 23.151 Z M 97.281 26.154 L 93.216 26.154 L 93.216 11.01 L 97.139 11.01 L 97.139 13.657 L 97.305 13.657 C 97.585 12.716 98.052 12.005 98.707 11.525 C 99.363 11.05 100.113 10.812 100.958 10.812 C 101.17 10.812 101.394 10.822 101.632 10.843 C 101.87 10.864 102.083 10.899 102.274 10.946 L 102.274 14.576 C 102.094 14.513 101.832 14.462 101.489 14.426 C 101.165 14.39 100.84 14.371 100.514 14.37 C 99.934 14.362 99.362 14.501 98.85 14.774 C 98.367 15.026 97.965 15.411 97.693 15.884 C 97.418 16.354 97.281 16.906 97.281 17.54 Z M 109.549 26.456 C 108.001 26.456 106.67 26.139 105.555 25.504 C 104.435 24.871 103.574 23.973 102.971 22.811 C 102.369 21.643 102.068 20.261 102.068 18.666 C 102.068 17.101 102.366 15.733 102.964 14.56 C 103.56 13.388 104.406 12.471 105.499 11.81 C 106.593 11.15 107.874 10.819 109.343 10.819 C 110.336 10.819 111.261 10.978 112.116 11.295 C 112.966 11.604 113.739 12.094 114.383 12.729 C 115.033 13.364 115.541 14.159 115.905 15.115 C 116.27 16.071 116.452 17.199 116.452 18.499 L 116.452 19.641 L 103.74 19.641 L 103.74 17.096 L 114.463 17.096 L 112.569 17.77 C 112.569 16.982 112.45 16.298 112.212 15.717 C 111.968 15.136 111.612 14.684 111.142 14.362 C 110.667 14.045 110.075 13.886 109.367 13.886 C 108.674 13.886 108.083 14.048 107.591 14.37 C 107.101 14.696 106.714 15.155 106.474 15.693 C 106.221 16.249 106.094 16.882 106.094 17.596 L 106.094 19.394 C 106.094 20.271 106.239 21.009 106.529 21.605 C 106.825 22.203 107.237 22.649 107.766 22.945 C 108.294 23.241 108.91 23.389 109.612 23.389 C 110.093 23.389 110.526 23.323 110.912 23.19 C 111.285 23.064 111.625 22.859 111.911 22.589 C 112.19 22.312 112.404 21.976 112.537 21.605 L 116.222 22.295 C 115.984 23.116 115.548 23.867 114.954 24.482 C 114.346 25.111 113.588 25.598 112.679 25.941 C 111.776 26.284 110.732 26.456 109.549 26.456 Z M 121.651 26.456 C 120.694 26.456 119.835 26.287 119.075 25.949 C 118.309 25.605 117.707 25.098 117.268 24.427 C 116.835 23.756 116.618 22.919 116.618 21.915 C 116.618 21.075 116.774 20.369 117.086 19.798 C 117.387 19.245 117.823 18.776 118.353 18.435 C 118.919 18.08 119.537 17.816 120.185 17.651 C 120.866 17.471 121.582 17.345 122.332 17.271 C 123.039 17.202 123.745 17.117 124.448 17.017 C 124.987 16.943 125.381 16.821 125.629 16.652 C 125.877 16.489 126.002 16.243 126.002 15.915 L 126.002 15.845 C 126.002 15.411 125.912 15.047 125.732 14.751 C 125.552 14.455 125.285 14.227 124.931 14.069 C 124.577 13.91 124.144 13.831 123.632 13.831 C 123.109 13.831 122.652 13.91 122.261 14.069 C 121.905 14.208 121.583 14.421 121.317 14.695 C 121.07 14.959 120.887 15.252 120.771 15.574 L 117.046 14.957 C 117.31 14.079 117.743 13.334 118.346 12.721 C 118.954 12.103 119.707 11.633 120.604 11.311 C 121.503 10.983 122.512 10.819 123.632 10.819 C 124.451 10.819 125.246 10.917 126.018 11.113 C 126.751 11.294 127.448 11.6 128.078 12.016 C 128.685 12.417 129.183 12.961 129.529 13.601 C 129.888 14.251 130.067 15.036 130.067 15.955 L 130.067 26.154 L 126.215 26.154 L 126.215 24.055 L 126.081 24.055 C 125.838 24.525 125.507 24.945 125.106 25.291 C 124.675 25.664 124.178 25.952 123.64 26.139 C 123.064 26.351 122.401 26.456 121.651 26.456 Z M 122.808 23.595 C 123.447 23.595 124.007 23.468 124.487 23.215 C 124.952 22.981 125.344 22.624 125.621 22.184 C 125.891 21.749 126.031 21.246 126.025 20.734 L 126.025 19.101 C 125.909 19.191 125.729 19.271 125.487 19.339 C 125.219 19.419 124.946 19.483 124.67 19.53 C 124.378 19.587 124.085 19.637 123.79 19.68 C 123.505 19.728 123.249 19.764 123.021 19.791 C 122.569 19.848 122.127 19.965 121.706 20.14 C 121.326 20.303 121.032 20.517 120.826 20.782 C 120.62 21.051 120.517 21.392 120.517 21.804 C 120.517 22.195 120.615 22.522 120.81 22.786 C 121.012 23.056 121.281 23.257 121.619 23.389 C 121.957 23.526 122.353 23.595 122.808 23.595 Z M 131.731 5.978 L 135.789 5.978 L 135.789 26.154 L 131.731 26.154 Z" fill="rgb(179,179,179)"></path></svg>