<svg xmlns="http://www.w3.org/2000/svg" xmlns:xlink="http://www.w3.org/1999/xlink" viewBox="0 0 94.635 40" overflow="visible"><g><path d="M 0 0 L 94.634 0 L 94.634 40 L 0 40 Z" fill="transparent"></path><path d="M 13 30.194 C 12.693 30.428 12.105 30.077 11.885 29.738 C 11.518 29.15 11.68 28.431 11.651 27.801 C 11.567 27.646 11.4 27.554 11.224 27.567 C 9.773 28.3 8.555 29.782 6.737 29.136 C 5.014 28.626 3.483 27.615 2.337 26.232 C 0.18 23.827 -0.509 19.661 0.532 16.258 C 0.977 15.015 1.723 13.901 2.702 13.016 C 4.521 11.403 6.927 10.098 7.19 7.325 C 7.263 6.518 7.278 5.315 8.07 4.818 C 8.35 4.67 8.685 4.67 8.965 4.818 C 9.258 5.071 9.382 5.468 9.288 5.845 C 9.243 6.021 8.408 6.872 8.408 7.077 C 7.807 8.051 7.725 9.258 8.188 10.305 C 8.664 11.525 9.441 12.604 10.446 13.444 C 12.102 14.809 14.582 15.747 16.152 17.142 C 17.971 18.797 19.688 21.13 22.416 21.438 C 23.208 20.837 24.102 20.133 25.187 20.411 C 25.366 20.423 25.52 20.538 25.583 20.704 C 25.585 20.748 25.58 20.793 25.569 20.836 L 24.454 21.145 C 24.351 21.247 24.454 21.307 24.556 21.349 C 24.924 21.262 25.348 21.187 25.73 21.086 C 26.317 21.07 27.051 20.983 27.447 21.437 C 27.519 21.613 27.652 21.876 27.504 21.921 C 26.946 22.127 26.02 21.819 25.391 22.289 C 25.362 22.289 25.346 22.332 25.346 22.361 C 26.3 22.247 27.59 22.273 28.295 23.022 C 28.442 23.241 28.691 23.798 28.397 23.814 C 27.488 23.87 26.388 23.197 25.392 23.711 C 25.364 23.738 25.348 23.775 25.348 23.814 C 25.348 23.853 25.364 23.89 25.392 23.916 C 26.14 24.121 26.828 24.43 27.047 25.207 C 27.076 25.369 27.12 25.47 27.047 25.587 C 27.018 25.632 26.886 25.632 26.813 25.691 C 26.225 25.47 25.859 24.811 25.157 24.767 C 24.883 24.743 24.612 24.689 24.35 24.606 C 20.011 23.402 15.095 22.772 12.205 19.81 C 11.105 18.901 9.712 17.976 8.128 17.976 C 8.049 17.979 7.977 18.022 7.937 18.09 C 7.864 18.223 7.952 18.721 8.201 18.721 C 9.736 18.742 11.198 19.383 12.253 20.499 C 12.985 21.261 13.206 22.389 13.836 23.227 C 14.555 23.741 15.508 23.284 16.343 23.402 C 16.949 23.376 17.531 23.637 17.914 24.107 C 18.281 24.563 18.236 25.339 18.764 25.631 C 20.861 25.544 23.252 25.133 25.027 26.395 C 25.619 26.862 25.823 27.667 25.525 28.36 C 25.408 28.526 25.237 28.645 25.041 28.698 C 24.573 28.375 24.221 27.847 23.56 27.787 C 23.674 28.139 24.161 28.375 23.956 28.843 C 23.914 28.968 23.795 29.051 23.663 29.049 C 23.092 28.257 22.02 28.14 21.094 28.067 C 21.094 28.067 14.274 29.268 12.998 30.193" fill="rgb(179,179,179)"></path><path d="M 24.257 13.739 C 23.996 13.817 23.75 13.934 23.527 14.087 C 22.78 14.528 21.838 15.028 21.414 15.818 C 21.372 15.919 21.357 16.274 21.471 16.274 C 22.073 16.351 22.455 15.589 22.939 15.589 C 23.201 15.589 22.336 16.251 22.319 16.251 C 21.857 16.66 21.246 16.859 20.631 16.803 C 20.403 16.794 20.445 17.185 20.504 17.277 C 20.911 17.922 22.201 17.482 22.718 17.32 C 22.54 17.6 21.114 17.948 21.132 17.948 C 21.106 17.966 20.953 18.067 20.953 18.11 C 20.94 18.229 21.006 18.342 21.115 18.39 C 22.057 18.907 23.185 18.246 24.093 18.009 C 24.144 18.008 24.193 18.031 24.226 18.07 C 24.259 18.11 24.273 18.162 24.263 18.213 C 24.238 18.302 24.176 18.376 24.093 18.417 C 23.877 18.517 23.644 18.576 23.407 18.592 C 23.206 18.592 23.026 18.718 22.958 18.907 L 22.958 19.01 C 22.984 19.103 23.065 19.171 23.161 19.181 L 23.891 19.181 C 24.287 19.145 24.673 19.032 25.027 18.85 C 26.35 18.257 27.902 17.383 28.081 15.653 C 28.06 14.961 27.71 14.322 27.14 13.931 C 26.317 13.387 25.044 13.567 24.256 13.745" fill="rgb(179,179,179)"></path><path d="M 24.765 14.816 C 24.765 14.799 25.307 14.594 25.307 14.579 C 25.286 14.21 25.369 13.843 25.545 13.518 C 25.97 13.594 26.63 12.619 26.853 12.39 C 27.072 12.534 27.819 11.448 28.165 10.872 C 28.921 9.659 29.446 8.174 30.226 7.104 C 30.269 6.857 30.006 7.047 29.946 7.138 C 28.437 8.469 26.756 10.906 26.673 11.99 C 26.647 12.276 26.231 12.652 25.968 13.019 L 25.527 13.256 C 25.562 12.609 25.793 11.987 26.189 11.474 C 26.435 11.365 26.63 10.762 26.809 10.32 C 27.494 7.895 28.275 5.291 28.343 2.984 C 28.327 3.042 28.259 2.984 28.242 3.061 C 27.572 5.622 25.57 9.235 25.909 11.331 C 25.6 11.82 25.4 12.369 25.324 12.943 C 25.308 13.063 25.3 13.185 25.299 13.307 L 25.087 14.546 C 25.056 14.556 25.023 14.556 24.992 14.546 C 24.424 13.579 24.22 13.043 23.059 12.772 C 22.796 11.525 18.639 13.408 16.146 12.636 C 15.62 12.943 14.873 13.12 14.526 13.467 C 14.526 13.467 14.992 13.696 15.034 13.696 C 17.502 14.061 19.98 14.238 22.38 13.467 C 22.695 13.358 22.957 13.315 23.041 13.035 C 23.355 13.093 23.924 13.348 24.025 13.613 C 23.515 13.616 23.028 13.827 22.677 14.198 C 21.947 13.798 19.318 17.659 18.028 18.159 C 18.028 18.185 17.927 18.277 18.028 18.286 L 18.173 18.286 C 19.3 18.015 23.075 15.385 22.863 14.478 C 22.813 14.224 23.864 13.833 24.246 13.951 C 24.654 14.062 24.654 14.523 24.763 14.817 M 14.677 12.161 C 14.286 12.18 13.909 12.01 13.664 11.705 C 13.02 10.795 13.356 9.548 13.664 8.522 C 13.732 8.184 13.971 7.906 14.296 7.788 C 14.721 7.715 15.293 7.788 15.454 8.185 C 15.969 9.245 16.022 10.472 15.601 11.573 C 15.427 11.926 15.071 12.152 14.677 12.161 Z" fill="rgb(179,179,179)"></path><path d="M 18.995 9.553 C 18.937 8.747 17.981 8.219 18.231 7.368 C 18.288 7.147 18.334 7.074 18.7 6.972 C 19.068 6.884 19.478 6.869 19.874 6.811 C 19.965 6.774 20.034 6.699 20.064 6.606 C 20.095 6.438 20.019 6.269 19.874 6.18 C 19.171 6.033 18.436 5.871 18.158 5.227 C 18.049 4.7 18.223 4.155 18.616 3.788 C 19.012 3.363 19.788 3.202 20.125 2.938 C 20.194 2.857 20.244 2.762 20.272 2.66 C 20.301 2.603 20.14 2.426 20.023 2.41 C 18.629 2.19 17.5 3.613 16.166 3.319 C 15.945 3.276 15.917 2.894 16.034 2.763 C 16.943 1.648 18.439 1.032 19.98 0.695 C 20.786 0.533 21.696 0.269 22.444 0.68 C 22.54 0.786 22.552 0.943 22.473 1.062 C 22.121 1.559 21.343 1.559 21.226 2.203 C 21.08 2.424 21.402 2.541 21.548 2.555 C 22.898 2.57 24.497 2.247 25.582 3.143 C 25.676 3.362 25.629 3.616 25.463 3.787 C 24.364 4.565 22.604 3.919 21.696 4.77 C 21.638 4.827 21.71 4.99 21.752 5.02 C 22.515 5.43 23.908 5.064 24.481 5.914 C 24.58 6.136 24.513 6.396 24.32 6.543 C 23.572 6.968 22.515 6.763 21.708 6.909 C 21.518 6.939 21.474 7.187 21.503 7.29 C 21.664 7.672 22.324 7.686 22.692 7.995 C 22.851 8.217 22.839 8.519 22.662 8.728 C 21.692 9.653 20.081 8.757 19.039 9.594 L 18.994 9.553 Z" fill="rgb(179,179,179)"></path><path d="M 17.334 9.052 C 16.849 9.097 16.511 8.466 16.233 8.362 C 16.101 8.248 16.6 7.556 16.981 7.483 C 17.408 7.401 17.844 7.565 18.111 7.908 C 18.199 8.04 18.375 8.26 18.375 8.392 C 18.1 8.709 17.738 8.939 17.334 9.052 Z M 11.129 8.826 C 10.778 8.87 10.456 8.459 10.19 8.151 C 10.268 7.775 10.511 7.452 10.851 7.271 C 11.111 7.155 11.414 7.189 11.642 7.359 C 11.892 7.593 12.522 7.976 12.317 8.093 C 12.083 8.225 11.804 8.68 11.583 8.723 C 11.437 8.752 11.335 8.797 11.127 8.827 M 2.137 8.613 C 2.254 8.073 2.554 7.591 2.987 7.249 C 3.073 7.195 3.156 7.137 3.236 7.073 C 3.496 6.824 3.644 6.48 3.647 6.119 C 3.654 6.029 3.615 5.941 3.544 5.885 C 3.26 5.75 2.929 5.756 2.649 5.9 C 2.341 6.119 1.783 6.237 1.52 5.987 C 1.358 5.827 1.446 5.373 1.592 5.181 C 2.194 4.419 3.339 4.258 4.292 4.33 C 4.719 4.32 5.125 4.51 5.392 4.844 C 5.426 4.891 5.446 4.947 5.449 5.005 C 5.361 5.695 4.275 5.622 4.231 6.325 C 4.231 6.382 4.349 6.53 4.436 6.53 C 4.774 6.545 5.184 6.237 5.521 6.457 C 5.635 6.53 5.771 7.072 5.55 7.161 C 4.457 7.639 3.448 8.288 2.559 9.083 C 2.325 9.288 2.101 8.716 2.134 8.613 M 5.572 3.701 C 4.253 3.788 2.61 3.54 1.714 2.616 C 1.592 2.441 1.554 2.221 1.613 2.016 C 1.631 1.961 1.661 1.911 1.7 1.868 C 2.433 1.267 3.607 2.22 4.428 1.781 C 4.484 1.692 4.489 1.581 4.443 1.487 C 4.135 1.091 3.27 1.165 3.049 0.636 C 2.977 0.445 2.889 0.18 3.079 0.137 C 5.135 -0.361 7.729 0.593 9.562 1.487 C 10.248 1.962 11.077 2.185 11.908 2.117 C 12.861 2 14.064 1.854 14.769 2.528 C 14.771 2.563 14.754 2.597 14.724 2.616 C 13.624 2.279 12.641 3.041 11.583 3.263 C 9.443 3.777 8.035 1.838 6.26 1.778 C 6.055 1.778 6.099 1.909 6.099 1.969 C 6.128 2.365 6.641 2.776 6.377 3.261 C 6.172 3.503 5.885 3.661 5.57 3.7 M 35.403 1.681 L 39.627 1.681 L 39.627 2.961 L 36.79 2.961 L 36.79 4.24 L 39.417 4.24 L 39.417 5.522 L 36.79 5.522 L 36.79 7.978 L 35.402 7.978 L 35.402 1.681 Z M 41.389 5.817 C 41.376 6.107 41.477 6.391 41.669 6.608 C 42.116 7.012 42.797 7.012 43.244 6.608 C 43.618 6.147 43.618 5.487 43.244 5.026 C 42.796 4.623 42.117 4.623 41.669 5.026 C 41.477 5.243 41.377 5.527 41.389 5.817 Z M 40.055 5.817 C 40.05 5.497 40.113 5.179 40.24 4.885 C 40.361 4.614 40.536 4.37 40.755 4.169 C 40.977 3.968 41.237 3.813 41.52 3.712 C 42.127 3.499 42.789 3.499 43.396 3.712 C 43.679 3.813 43.94 3.968 44.163 4.169 C 44.381 4.37 44.556 4.614 44.677 4.885 C 44.925 5.483 44.925 6.155 44.677 6.753 C 44.557 7.025 44.382 7.269 44.163 7.469 C 43.94 7.671 43.68 7.826 43.396 7.926 C 42.789 8.141 42.128 8.141 41.52 7.926 C 41.237 7.826 40.977 7.671 40.755 7.469 C 40.536 7.269 40.361 7.025 40.241 6.753 C 40.113 6.459 40.049 6.141 40.054 5.82 M 49.556 7.979 L 48.275 7.979 L 48.275 7.39 L 48.258 7.39 C 48.205 7.48 48.144 7.564 48.075 7.641 C 47.996 7.728 47.905 7.802 47.804 7.863 C 47.559 8.009 47.279 8.086 46.994 8.086 C 46.712 8.097 46.431 8.043 46.172 7.93 C 45.971 7.834 45.802 7.685 45.682 7.498 C 45.562 7.299 45.484 7.078 45.454 6.848 C 45.414 6.58 45.394 6.31 45.396 6.039 L 45.396 3.655 L 46.732 3.655 L 46.732 5.772 C 46.732 5.897 46.736 6.026 46.744 6.158 C 46.752 6.285 46.779 6.41 46.824 6.528 C 46.865 6.637 46.937 6.733 47.029 6.804 C 47.146 6.882 47.285 6.919 47.424 6.91 C 47.57 6.917 47.715 6.884 47.844 6.817 C 47.947 6.758 48.031 6.672 48.088 6.568 C 48.145 6.459 48.182 6.34 48.198 6.217 C 48.217 6.081 48.225 5.944 48.225 5.807 L 48.225 3.655 L 49.56 3.655 Z M 50.261 3.657 L 51.541 3.657 L 51.541 4.243 L 51.561 4.243 C 51.608 4.152 51.668 4.068 51.739 3.994 C 51.82 3.908 51.912 3.834 52.014 3.773 C 52.128 3.705 52.251 3.651 52.379 3.613 C 52.523 3.57 52.673 3.548 52.823 3.549 C 53.104 3.539 53.384 3.591 53.641 3.706 C 53.84 3.801 54.009 3.95 54.127 4.137 C 54.248 4.336 54.328 4.556 54.363 4.787 C 54.405 5.055 54.425 5.325 54.424 5.596 L 54.424 7.98 L 53.09 7.98 L 53.09 5.864 C 53.09 5.739 53.085 5.61 53.076 5.476 C 53.069 5.35 53.042 5.225 52.997 5.107 C 52.91 4.855 52.661 4.696 52.396 4.725 C 52.251 4.719 52.106 4.751 51.978 4.818 C 51.875 4.876 51.79 4.963 51.734 5.067 C 51.675 5.176 51.638 5.295 51.622 5.418 C 51.604 5.553 51.596 5.69 51.596 5.827 L 51.596 7.979 L 50.261 7.979 Z M 58.429 5.819 C 58.442 5.528 58.342 5.244 58.149 5.026 C 57.702 4.623 57.022 4.623 56.575 5.026 C 56.2 5.487 56.2 6.148 56.575 6.61 C 57.022 7.012 57.702 7.012 58.149 6.61 C 58.341 6.392 58.442 6.108 58.429 5.819 Z M 59.657 7.98 L 58.429 7.98 L 58.429 7.409 L 58.412 7.409 C 58.277 7.596 58.103 7.751 57.9 7.863 C 57.78 7.931 57.651 7.985 57.517 8.024 C 57.377 8.065 57.232 8.086 57.086 8.086 C 56.787 8.09 56.49 8.034 56.214 7.921 C 55.96 7.816 55.732 7.659 55.543 7.459 C 55.353 7.255 55.206 7.014 55.111 6.751 C 55.008 6.463 54.957 6.159 54.96 5.853 C 54.959 5.558 55.006 5.265 55.099 4.985 C 55.184 4.719 55.317 4.471 55.489 4.251 C 55.657 4.038 55.867 3.863 56.108 3.737 C 56.364 3.606 56.648 3.542 56.935 3.546 C 57.2 3.544 57.463 3.587 57.714 3.675 C 57.951 3.759 58.157 3.912 58.305 4.116 L 58.323 4.116 L 58.323 1.254 L 59.658 1.254 L 59.658 7.981 Z M 62.866 6.086 C 62.74 6.087 62.614 6.091 62.488 6.099 C 62.34 6.107 62.194 6.133 62.052 6.175 C 61.922 6.211 61.801 6.275 61.697 6.361 C 61.596 6.448 61.542 6.577 61.549 6.709 C 61.543 6.858 61.623 6.996 61.754 7.065 C 61.884 7.139 62.031 7.179 62.181 7.179 C 62.308 7.179 62.436 7.161 62.559 7.126 C 62.674 7.093 62.783 7.041 62.884 6.975 C 62.978 6.911 63.056 6.825 63.112 6.726 C 63.171 6.616 63.2 6.493 63.197 6.369 L 63.197 6.086 L 62.865 6.086 Z M 63.195 7.438 L 63.177 7.438 C 63.037 7.662 62.83 7.837 62.585 7.936 C 62.338 8.037 62.074 8.089 61.807 8.088 C 61.61 8.088 61.414 8.06 61.224 8.003 C 61.045 7.951 60.877 7.865 60.73 7.749 C 60.428 7.509 60.256 7.14 60.267 6.754 C 60.26 6.535 60.308 6.318 60.406 6.122 C 60.495 5.953 60.623 5.807 60.78 5.696 C 60.943 5.579 61.125 5.491 61.317 5.432 C 61.522 5.369 61.733 5.323 61.945 5.295 C 62.16 5.265 62.378 5.246 62.594 5.241 C 62.812 5.235 63.011 5.232 63.195 5.232 C 63.204 5.014 63.11 4.805 62.941 4.667 C 62.772 4.528 62.559 4.454 62.34 4.459 C 62.132 4.456 61.927 4.503 61.74 4.596 C 61.557 4.691 61.392 4.819 61.256 4.974 L 60.543 4.245 C 60.794 4.012 61.092 3.835 61.415 3.724 C 61.746 3.61 62.096 3.552 62.448 3.553 C 62.776 3.544 63.101 3.592 63.413 3.7 C 63.649 3.787 63.858 3.937 64.018 4.132 C 64.176 4.337 64.284 4.576 64.334 4.83 C 64.396 5.146 64.426 5.466 64.421 5.787 L 64.421 7.984 L 63.194 7.984 L 63.194 7.438 Z M 68.015 4.722 L 66.84 4.722 L 66.84 6.164 C 66.84 6.271 66.846 6.381 66.859 6.488 C 66.866 6.578 66.894 6.664 66.937 6.742 C 66.981 6.816 67.048 6.875 67.129 6.907 C 67.238 6.95 67.354 6.969 67.471 6.964 C 67.565 6.962 67.659 6.954 67.751 6.941 C 67.847 6.934 67.939 6.899 68.015 6.839 L 68.015 7.951 C 67.865 8.004 67.709 8.04 67.551 8.057 C 67.395 8.074 67.237 8.083 67.08 8.083 C 66.87 8.085 66.661 8.061 66.457 8.013 C 66.278 7.97 66.109 7.892 65.959 7.785 C 65.816 7.68 65.701 7.541 65.625 7.38 C 65.54 7.19 65.498 6.983 65.504 6.775 L 65.504 4.721 L 64.652 4.721 L 64.652 3.652 L 65.504 3.652 L 65.504 2.374 L 66.84 2.374 L 66.84 3.655 L 68.015 3.655 L 68.015 4.723 Z M 68.588 3.656 L 69.925 3.656 L 69.925 7.979 L 68.588 7.979 Z M 68.481 2.294 C 68.48 1.924 68.74 1.606 69.103 1.533 C 69.465 1.46 69.828 1.653 69.971 1.994 C 70.113 2.335 69.994 2.729 69.688 2.935 C 69.381 3.141 68.971 3.102 68.709 2.841 C 68.561 2.699 68.478 2.501 68.481 2.295 Z M 71.84 5.82 C 71.827 6.109 71.928 6.393 72.12 6.61 C 72.567 7.014 73.247 7.014 73.695 6.61 C 74.068 6.149 74.068 5.489 73.695 5.027 C 73.247 4.625 72.568 4.625 72.12 5.027 C 71.927 5.245 71.827 5.529 71.84 5.82 Z M 70.505 5.82 C 70.5 5.498 70.564 5.18 70.693 4.885 C 70.813 4.614 70.987 4.37 71.207 4.169 C 71.429 3.968 71.689 3.813 71.971 3.712 C 72.578 3.499 73.24 3.499 73.848 3.712 C 74.419 3.907 74.883 4.333 75.127 4.885 C 75.375 5.483 75.375 6.155 75.127 6.753 C 75.007 7.025 74.832 7.269 74.614 7.469 C 74.391 7.671 74.131 7.826 73.848 7.926 C 73.241 8.141 72.579 8.141 71.971 7.926 C 71.688 7.826 71.429 7.671 71.207 7.469 C 70.987 7.269 70.812 7.025 70.693 6.753 C 70.564 6.459 70.501 6.141 70.505 5.82 Z" fill="rgb(179,179,179)"></path><path d="M 75.136 3.657 L 76.416 3.657 L 76.416 4.243 L 76.435 4.243 C 76.482 4.152 76.542 4.068 76.613 3.994 C 76.694 3.908 76.786 3.834 76.888 3.773 C 77.002 3.705 77.125 3.651 77.253 3.613 C 77.397 3.57 77.547 3.548 77.698 3.549 C 77.979 3.539 78.259 3.591 78.515 3.706 C 78.714 3.801 78.883 3.95 79.001 4.137 C 79.122 4.336 79.202 4.556 79.237 4.787 C 79.279 5.055 79.3 5.325 79.299 5.596 L 79.299 7.98 L 77.964 7.98 L 77.964 5.864 C 77.964 5.739 77.959 5.61 77.951 5.476 C 77.944 5.35 77.917 5.225 77.871 5.107 C 77.784 4.855 77.535 4.696 77.27 4.725 C 77.125 4.719 76.981 4.751 76.853 4.818 C 76.75 4.876 76.665 4.962 76.608 5.067 C 76.549 5.176 76.512 5.296 76.497 5.418 C 76.479 5.553 76.47 5.69 76.471 5.827 L 76.471 7.979 L 75.135 7.979 L 75.135 3.657 Z M 83.34 4.725 L 82.458 4.725 L 82.458 3.657 L 83.34 3.657 L 83.34 2.892 C 83.338 2.667 83.359 2.442 83.401 2.221 C 83.438 2.02 83.521 1.83 83.641 1.665 C 83.774 1.494 83.952 1.362 84.155 1.286 C 84.435 1.185 84.733 1.139 85.03 1.149 C 85.167 1.149 85.3 1.154 85.43 1.166 C 85.559 1.178 85.686 1.198 85.812 1.228 L 85.75 2.358 C 85.681 2.33 85.609 2.308 85.537 2.291 C 85.464 2.275 85.389 2.268 85.314 2.268 C 85.143 2.256 84.973 2.305 84.834 2.407 C 84.706 2.565 84.648 2.769 84.674 2.971 L 84.674 3.657 L 85.661 3.657 L 85.661 4.724 L 84.673 4.724 L 84.673 7.979 L 83.339 7.979 L 83.339 4.725 Z M 87.343 5.82 C 87.33 6.109 87.431 6.393 87.623 6.61 C 88.07 7.014 88.751 7.014 89.198 6.61 C 89.572 6.149 89.572 5.489 89.198 5.027 C 88.751 4.625 88.071 4.625 87.623 5.027 C 87.43 5.245 87.331 5.529 87.343 5.82 Z M 86.009 5.82 C 85.992 5.194 86.248 4.592 86.709 4.169 C 86.932 3.968 87.192 3.813 87.474 3.712 C 88.082 3.498 88.744 3.498 89.352 3.712 C 89.635 3.813 89.894 3.968 90.116 4.169 C 90.335 4.37 90.51 4.613 90.63 4.885 C 90.878 5.483 90.878 6.155 90.63 6.753 C 90.51 7.025 90.335 7.269 90.116 7.469 C 89.894 7.671 89.635 7.826 89.352 7.926 C 88.745 8.141 88.082 8.141 87.474 7.926 C 87.191 7.826 86.931 7.671 86.709 7.469 C 86.49 7.269 86.315 7.025 86.195 6.753 C 86.067 6.459 86.004 6.141 86.009 5.82 Z M 91.595 3.657 L 92.93 3.657 L 92.93 4.349 L 92.948 4.349 C 93.066 4.111 93.24 3.905 93.456 3.749 C 93.675 3.609 93.933 3.54 94.193 3.549 C 94.27 3.549 94.347 3.552 94.421 3.557 C 94.494 3.563 94.565 3.575 94.635 3.594 L 94.635 4.813 C 94.451 4.755 94.259 4.725 94.065 4.725 C 93.858 4.716 93.652 4.752 93.46 4.83 C 93.32 4.895 93.201 4.998 93.118 5.128 C 93.034 5.267 92.981 5.424 92.963 5.586 C 92.939 5.781 92.927 5.976 92.928 6.173 L 92.928 7.978 L 91.593 7.978 L 91.595 3.656 Z M 35.319 11.589 L 37.202 11.589 L 39.881 15.966 L 39.899 15.966 L 39.899 11.59 L 41.29 11.59 L 41.29 17.889 L 39.475 17.889 L 36.722 13.405 L 36.704 13.405 L 36.704 17.889 L 35.316 17.889 L 35.319 11.59 Z M 44.498 15.93 C 44.397 15.93 44.27 15.935 44.12 15.943 C 43.972 15.951 43.826 15.977 43.684 16.02 C 43.554 16.056 43.433 16.119 43.329 16.205 C 43.229 16.292 43.175 16.42 43.181 16.552 C 43.175 16.701 43.255 16.84 43.386 16.908 C 43.516 16.983 43.664 17.023 43.814 17.023 C 43.94 17.023 44.067 17.005 44.19 16.97 C 44.306 16.937 44.415 16.886 44.515 16.819 C 44.609 16.754 44.688 16.669 44.743 16.569 C 44.802 16.459 44.831 16.337 44.828 16.213 L 44.828 15.928 L 44.499 15.93 Z M 44.827 17.282 L 44.81 17.282 C 44.669 17.507 44.462 17.681 44.218 17.78 C 43.971 17.881 43.707 17.933 43.44 17.932 C 43.242 17.932 43.046 17.903 42.858 17.847 C 42.678 17.795 42.51 17.709 42.363 17.593 C 42.06 17.353 41.889 16.984 41.9 16.597 C 41.894 16.379 41.941 16.162 42.039 15.966 C 42.128 15.796 42.256 15.65 42.413 15.54 C 42.576 15.423 42.758 15.334 42.95 15.276 C 43.155 15.213 43.366 15.167 43.579 15.139 C 43.793 15.108 44.01 15.09 44.227 15.085 C 44.445 15.079 44.644 15.077 44.828 15.077 C 44.837 14.859 44.743 14.65 44.575 14.511 C 44.406 14.372 44.193 14.298 43.975 14.302 C 43.766 14.299 43.56 14.347 43.374 14.44 C 43.19 14.535 43.026 14.663 42.89 14.818 L 42.178 14.088 C 42.428 13.855 42.725 13.678 43.049 13.568 C 43.381 13.453 43.73 13.396 44.082 13.397 C 44.41 13.387 44.737 13.436 45.048 13.544 C 45.284 13.631 45.493 13.781 45.651 13.976 C 45.81 14.181 45.918 14.42 45.968 14.674 C 46.03 14.989 46.06 15.309 46.056 15.63 L 46.056 17.827 L 44.829 17.827 Z M 49.64 14.602 L 48.465 14.602 L 48.465 16.043 C 48.465 16.151 48.471 16.26 48.484 16.368 C 48.492 16.457 48.52 16.544 48.564 16.622 C 48.608 16.696 48.675 16.754 48.755 16.787 C 48.864 16.829 48.98 16.848 49.097 16.843 C 49.191 16.841 49.284 16.833 49.377 16.821 C 49.473 16.814 49.565 16.779 49.64 16.719 L 49.64 17.831 C 49.49 17.885 49.335 17.921 49.177 17.938 C 49.02 17.955 48.863 17.964 48.705 17.964 C 48.495 17.966 48.286 17.942 48.082 17.894 C 47.903 17.85 47.734 17.772 47.584 17.665 C 47.441 17.56 47.326 17.42 47.251 17.26 C 47.166 17.07 47.124 16.863 47.131 16.655 L 47.131 14.602 L 46.277 14.602 L 46.277 13.537 L 47.131 13.537 L 47.131 12.256 L 48.465 12.256 L 48.465 13.537 L 49.64 13.537 Z M 50.197 13.572 L 51.532 13.572 L 51.532 17.896 L 50.197 17.896 L 50.197 13.571 Z M 50.09 12.21 C 50.089 11.84 50.349 11.522 50.711 11.449 C 51.074 11.376 51.437 11.569 51.579 11.91 C 51.722 12.251 51.603 12.645 51.296 12.851 C 50.99 13.057 50.58 13.018 50.318 12.757 C 50.169 12.615 50.087 12.417 50.09 12.211 Z M 53.477 15.664 C 53.463 15.953 53.565 16.237 53.757 16.454 C 54.204 16.858 54.885 16.858 55.332 16.454 C 55.704 15.993 55.704 15.334 55.332 14.872 C 54.884 14.47 54.205 14.47 53.757 14.872 C 53.565 15.089 53.464 15.373 53.477 15.663 Z M 52.142 15.664 C 52.138 15.342 52.202 15.024 52.33 14.729 C 52.574 14.177 53.037 13.751 53.609 13.556 C 54.216 13.342 54.879 13.342 55.486 13.556 C 56.057 13.751 56.521 14.177 56.765 14.729 C 57.013 15.327 57.013 15.999 56.765 16.597 C 56.645 16.869 56.47 17.113 56.252 17.313 C 56.029 17.515 55.769 17.67 55.486 17.77 C 54.878 17.985 54.216 17.985 53.609 17.77 C 53.326 17.67 53.065 17.515 52.843 17.313 C 52.624 17.113 52.45 16.869 52.33 16.597 C 52.202 16.303 52.138 15.985 52.142 15.664 Z M 57.487 13.504 L 58.768 13.504 L 58.768 14.091 L 58.785 14.091 C 58.832 14 58.893 13.915 58.963 13.842 C 59.044 13.756 59.137 13.681 59.238 13.621 C 59.482 13.472 59.762 13.394 60.048 13.397 C 60.329 13.386 60.609 13.439 60.866 13.553 C 61.065 13.649 61.233 13.798 61.352 13.985 C 61.473 14.184 61.553 14.404 61.588 14.634 C 61.63 14.902 61.652 15.173 61.65 15.444 L 61.65 17.827 L 60.315 17.827 L 60.315 15.71 C 60.315 15.586 60.31 15.457 60.301 15.323 C 60.295 15.196 60.268 15.072 60.222 14.953 C 60.18 14.845 60.109 14.75 60.018 14.678 C 59.901 14.6 59.762 14.562 59.621 14.571 C 59.476 14.565 59.332 14.597 59.203 14.665 C 59.1 14.723 59.016 14.81 58.959 14.913 C 58.901 15.023 58.863 15.142 58.848 15.265 C 58.83 15.4 58.82 15.537 58.82 15.674 L 58.82 17.827 L 57.487 17.827 L 57.487 13.505 Z M 64.749 15.93 C 64.649 15.93 64.522 15.934 64.371 15.943 C 64.223 15.951 64.076 15.977 63.935 16.02 C 63.805 16.056 63.684 16.119 63.58 16.205 C 63.48 16.292 63.426 16.42 63.433 16.552 C 63.426 16.701 63.506 16.84 63.638 16.908 C 63.768 16.983 63.915 17.023 64.064 17.023 C 64.192 17.023 64.319 17.005 64.442 16.97 C 64.557 16.937 64.667 16.886 64.767 16.819 C 64.861 16.754 64.939 16.669 64.995 16.569 C 65.053 16.459 65.083 16.337 65.08 16.213 L 65.08 15.928 Z M 65.078 17.282 L 65.06 17.282 C 64.921 17.507 64.714 17.681 64.469 17.78 C 64.222 17.881 63.958 17.933 63.691 17.932 C 63.494 17.932 63.298 17.903 63.108 17.847 C 62.929 17.795 62.761 17.709 62.615 17.593 C 62.31 17.354 62.139 16.984 62.152 16.597 C 62.144 16.379 62.191 16.161 62.289 15.966 C 62.379 15.796 62.507 15.65 62.663 15.54 C 62.826 15.423 63.009 15.334 63.2 15.276 C 63.406 15.213 63.616 15.167 63.829 15.139 C 64.044 15.108 64.26 15.09 64.478 15.085 C 64.695 15.079 64.896 15.077 65.079 15.077 C 65.088 14.859 64.994 14.65 64.825 14.511 C 64.656 14.372 64.443 14.298 64.224 14.302 C 64.016 14.299 63.81 14.347 63.624 14.44 C 63.441 14.534 63.276 14.663 63.14 14.818 L 62.427 14.088 C 62.679 13.856 62.976 13.678 63.3 13.568 C 63.632 13.453 63.98 13.396 64.332 13.397 C 64.66 13.387 64.987 13.436 65.298 13.544 C 65.534 13.631 65.742 13.781 65.902 13.976 C 66.06 14.181 66.168 14.421 66.218 14.674 C 66.281 14.989 66.31 15.309 66.306 15.63 L 66.306 17.827 L 65.079 17.827 L 65.079 17.282 Z M 67.018 11.178 L 68.353 11.178 L 68.353 17.904 L 67.018 17.904 Z M 73.151 14.258 L 74.076 14.258 C 74.197 14.258 74.317 14.247 74.436 14.223 C 74.546 14.202 74.652 14.161 74.748 14.104 C 74.84 14.046 74.916 13.967 74.97 13.872 C 75.03 13.759 75.059 13.631 75.055 13.503 C 75.061 13.365 75.023 13.229 74.944 13.115 C 74.87 13.016 74.771 12.938 74.659 12.887 C 74.536 12.832 74.406 12.797 74.272 12.785 C 74.136 12.77 73.999 12.763 73.862 12.762 L 73.15 12.762 L 73.15 14.258 Z M 71.763 11.589 L 74.104 11.589 C 74.415 11.588 74.724 11.619 75.029 11.677 C 75.3 11.73 75.559 11.834 75.79 11.986 C 76.008 12.135 76.184 12.337 76.303 12.573 C 76.44 12.863 76.506 13.182 76.495 13.502 C 76.504 13.82 76.444 14.136 76.317 14.427 C 76.208 14.665 76.039 14.87 75.826 15.024 C 75.605 15.178 75.354 15.286 75.089 15.34 C 74.784 15.404 74.474 15.435 74.164 15.433 L 73.15 15.433 L 73.15 17.888 L 71.763 17.888 L 71.763 11.59 Z" fill="rgb(179,179,179)"></path><path d="M 78.686 15.93 C 78.585 15.93 78.458 15.935 78.307 15.943 C 78.159 15.951 78.013 15.977 77.871 16.02 C 77.741 16.056 77.62 16.119 77.516 16.205 C 77.417 16.292 77.363 16.42 77.37 16.552 C 77.363 16.701 77.443 16.84 77.575 16.908 C 77.704 16.983 77.851 17.023 78.001 17.023 C 78.128 17.023 78.256 17.005 78.379 16.97 C 78.494 16.937 78.604 16.886 78.703 16.819 C 78.798 16.754 78.876 16.669 78.932 16.569 C 78.99 16.459 79.019 16.337 79.017 16.213 L 79.017 15.928 Z M 79.015 17.282 L 78.997 17.282 C 78.858 17.507 78.651 17.681 78.406 17.78 C 78.159 17.881 77.894 17.933 77.627 17.932 C 77.43 17.932 77.234 17.903 77.045 17.847 C 76.866 17.795 76.698 17.709 76.551 17.593 C 76.247 17.354 76.075 16.984 76.089 16.597 C 76.082 16.379 76.129 16.162 76.226 15.966 C 76.316 15.797 76.444 15.65 76.6 15.54 C 76.764 15.423 76.945 15.334 77.139 15.276 C 77.343 15.213 77.553 15.167 77.766 15.139 C 77.98 15.108 78.198 15.09 78.415 15.085 C 78.632 15.079 78.832 15.077 79.016 15.077 C 79.025 14.859 78.931 14.65 78.762 14.511 C 78.593 14.372 78.38 14.298 78.161 14.302 C 77.953 14.299 77.747 14.347 77.561 14.44 C 77.377 14.535 77.213 14.663 77.076 14.818 L 76.364 14.088 C 76.615 13.855 76.912 13.678 77.236 13.568 C 77.568 13.453 77.917 13.396 78.268 13.397 C 78.596 13.387 78.923 13.436 79.233 13.544 C 79.47 13.631 79.679 13.781 79.838 13.976 C 79.996 14.181 80.104 14.42 80.154 14.674 C 80.217 14.989 80.247 15.309 80.242 15.63 L 80.242 17.827 L 79.015 17.827 Z M 81.079 13.504 L 82.414 13.504 L 82.414 14.198 L 82.431 14.198 C 82.549 13.959 82.724 13.753 82.939 13.597 C 83.158 13.457 83.417 13.387 83.677 13.396 C 83.754 13.396 83.831 13.4 83.905 13.406 C 83.978 13.411 84.049 13.424 84.119 13.442 L 84.119 14.662 C 83.935 14.603 83.743 14.573 83.549 14.572 C 83.342 14.563 83.136 14.599 82.944 14.678 C 82.804 14.743 82.685 14.846 82.602 14.976 C 82.518 15.115 82.465 15.271 82.447 15.432 C 82.422 15.628 82.411 15.824 82.412 16.021 L 82.412 17.826 L 81.077 17.826 Z M 84.7 11.178 L 86.034 11.178 L 86.034 15.289 L 87.511 13.58 L 89.148 13.58 L 87.431 15.529 L 89.192 17.904 L 87.51 17.904 L 86.052 15.714 L 86.034 15.714 L 86.034 17.904 L 84.699 17.904 Z M 92.093 14.773 C 91.908 14.535 91.62 14.399 91.319 14.408 C 91.204 14.409 91.091 14.437 90.989 14.489 C 90.885 14.54 90.822 14.648 90.829 14.764 C 90.829 14.869 90.895 14.964 90.993 14.999 C 91.128 15.058 91.268 15.103 91.412 15.134 L 91.954 15.258 C 92.144 15.301 92.327 15.372 92.498 15.467 C 92.665 15.561 92.809 15.694 92.915 15.854 C 93.033 16.05 93.091 16.278 93.079 16.507 C 93.089 16.749 93.026 16.99 92.898 17.196 C 92.777 17.376 92.617 17.525 92.429 17.632 C 92.231 17.746 92.015 17.824 91.79 17.865 C 91.559 17.909 91.324 17.931 91.088 17.932 C 90.779 17.93 90.471 17.887 90.174 17.802 C 89.876 17.723 89.606 17.565 89.39 17.346 L 90.2 16.447 C 90.313 16.591 90.454 16.71 90.615 16.798 C 90.779 16.881 90.96 16.923 91.143 16.918 C 91.285 16.92 91.426 16.899 91.562 16.852 C 91.674 16.824 91.751 16.723 91.749 16.608 C 91.751 16.497 91.685 16.397 91.583 16.354 C 91.451 16.29 91.31 16.241 91.166 16.211 L 90.623 16.087 C 90.435 16.044 90.252 15.976 90.08 15.887 C 89.911 15.798 89.768 15.668 89.662 15.508 C 89.544 15.312 89.486 15.084 89.498 14.855 C 89.492 14.626 89.546 14.398 89.654 14.196 C 89.754 14.017 89.894 13.862 90.062 13.743 C 90.239 13.621 90.437 13.532 90.645 13.479 C 90.863 13.424 91.088 13.395 91.312 13.395 C 91.605 13.397 91.895 13.439 92.175 13.521 C 92.458 13.598 92.713 13.752 92.914 13.966 Z M 37.647 22.668 C 37.486 22.664 37.33 22.722 37.211 22.829 C 37.091 22.938 37.026 23.094 37.032 23.256 C 37.032 23.336 37.052 23.414 37.087 23.484 C 37.159 23.638 37.261 23.775 37.386 23.889 C 37.448 23.946 37.505 24.003 37.558 24.049 C 37.637 24.003 37.714 23.954 37.789 23.903 C 37.87 23.846 37.946 23.784 38.018 23.715 C 38.086 23.65 38.146 23.575 38.195 23.493 C 38.242 23.417 38.267 23.329 38.267 23.239 C 38.277 23.077 38.209 22.92 38.084 22.817 C 37.959 22.718 37.803 22.666 37.643 22.67 Z M 37.217 25.375 C 37.128 25.427 37.04 25.482 36.954 25.54 C 36.871 25.593 36.793 25.655 36.723 25.725 C 36.574 25.867 36.492 26.066 36.497 26.271 C 36.492 26.488 36.587 26.695 36.754 26.833 C 36.92 26.97 37.128 27.045 37.341 27.047 C 37.53 27.052 37.716 27.005 37.88 26.913 C 38.04 26.818 38.19 26.708 38.329 26.585 Z M 39.975 26.574 L 41.38 28.058 L 39.664 28.058 L 39.138 27.463 C 38.902 27.712 38.616 27.909 38.299 28.04 C 37.977 28.163 37.633 28.224 37.288 28.219 C 37.008 28.22 36.73 28.181 36.461 28.105 C 36.203 28.032 35.961 27.913 35.745 27.753 C 35.534 27.597 35.362 27.394 35.242 27.161 C 35.113 26.905 35.05 26.621 35.057 26.335 C 35.055 26.139 35.089 25.945 35.157 25.76 C 35.225 25.582 35.321 25.414 35.443 25.267 C 35.565 25.118 35.706 24.988 35.864 24.88 C 36.027 24.769 36.204 24.68 36.391 24.617 C 36.297 24.511 36.203 24.404 36.11 24.297 C 36.026 24.198 35.951 24.09 35.888 23.977 C 35.757 23.74 35.692 23.473 35.698 23.202 C 35.69 22.948 35.746 22.699 35.861 22.472 C 35.969 22.275 36.119 22.105 36.302 21.975 C 36.493 21.841 36.708 21.744 36.935 21.689 C 37.173 21.63 37.418 21.6 37.663 21.601 C 37.898 21.6 38.132 21.63 38.357 21.694 C 38.568 21.752 38.766 21.849 38.94 21.98 C 39.109 22.107 39.248 22.271 39.344 22.46 C 39.451 22.674 39.502 22.91 39.496 23.149 C 39.498 23.329 39.467 23.507 39.403 23.674 C 39.34 23.836 39.255 23.987 39.149 24.124 C 39.042 24.264 38.919 24.389 38.78 24.498 C 38.64 24.608 38.49 24.705 38.332 24.787 L 39.14 25.65 L 39.755 24.814 L 41.303 24.814 L 39.975 26.573 Z M 43.559 21.765 L 45.071 21.765 L 46.077 25.803 L 46.096 25.803 L 47.412 21.764 L 48.701 21.764 L 50.009 25.91 L 50.026 25.91 L 51.086 21.764 L 52.491 21.764 L 50.65 28.064 L 49.414 28.064 L 48.025 23.705 L 48.008 23.705 L 46.62 28.064 L 45.426 28.064 Z M 52.71 23.743 L 54.045 23.743 L 54.045 28.066 L 52.71 28.066 Z M 52.603 22.381 C 52.602 22.011 52.862 21.692 53.225 21.619 C 53.587 21.546 53.95 21.74 54.092 22.081 C 54.235 22.422 54.116 22.816 53.81 23.022 C 53.503 23.228 53.093 23.189 52.831 22.928 C 52.683 22.785 52.6 22.588 52.603 22.382 Z M 54.918 21.346 L 56.253 21.346 L 56.253 28.071 L 54.918 28.071 Z M 60.33 25.906 C 60.342 25.615 60.242 25.331 60.05 25.113 C 59.602 24.711 58.923 24.711 58.475 25.113 C 58.102 25.575 58.102 26.235 58.475 26.697 C 58.923 27.099 59.602 27.099 60.05 26.697 C 60.242 26.479 60.342 26.195 60.33 25.906 Z M 61.557 28.067 L 60.33 28.067 L 60.33 27.496 L 60.314 27.496 C 60.18 27.683 60.005 27.838 59.803 27.949 C 59.682 28.017 59.553 28.071 59.42 28.11 C 59.28 28.153 59.134 28.174 58.988 28.174 C 58.689 28.178 58.393 28.121 58.116 28.008 C 57.862 27.903 57.633 27.745 57.445 27.546 C 57.254 27.342 57.107 27.101 57.013 26.838 C 56.909 26.55 56.858 26.246 56.861 25.941 C 56.86 25.646 56.907 25.352 57 25.072 C 57.086 24.806 57.219 24.558 57.39 24.338 C 57.558 24.125 57.77 23.949 58.01 23.825 C 58.265 23.694 58.549 23.628 58.836 23.633 C 59.101 23.63 59.365 23.674 59.615 23.763 C 59.852 23.846 60.059 23.999 60.206 24.202 L 60.223 24.202 L 60.223 21.338 L 61.559 21.338 Z M 62.478 21.346 L 63.812 21.346 L 63.812 28.071 L 62.478 28.071 Z M 64.681 23.743 L 66.017 23.743 L 66.017 28.066 L 64.681 28.066 Z M 64.575 22.381 C 64.573 22.011 64.833 21.692 65.195 21.619 C 65.557 21.545 65.921 21.738 66.064 22.079 C 66.207 22.419 66.089 22.814 65.782 23.02 C 65.476 23.227 65.066 23.188 64.804 22.928 C 64.655 22.786 64.572 22.588 64.575 22.382 Z M 67.291 24.82 L 66.41 24.82 L 66.41 23.752 L 67.291 23.752 L 67.291 22.987 C 67.29 22.762 67.311 22.537 67.353 22.315 C 67.391 22.114 67.473 21.924 67.593 21.759 C 67.726 21.588 67.904 21.458 68.107 21.382 C 68.387 21.28 68.685 21.233 68.983 21.244 C 69.12 21.244 69.253 21.249 69.383 21.262 C 69.512 21.273 69.639 21.294 69.765 21.324 L 69.702 22.454 C 69.633 22.426 69.562 22.403 69.49 22.387 C 69.416 22.371 69.341 22.363 69.266 22.364 C 69.095 22.351 68.925 22.401 68.786 22.503 C 68.658 22.661 68.601 22.865 68.627 23.067 L 68.627 23.752 L 69.615 23.752 L 69.615 24.82 L 68.627 24.82 L 68.627 28.074 L 67.291 28.074 Z M 72.877 25.375 C 72.885 25.155 72.802 24.942 72.647 24.787 C 72.492 24.631 72.279 24.548 72.06 24.555 C 71.809 24.551 71.565 24.642 71.379 24.809 C 71.221 24.957 71.127 25.159 71.115 25.375 L 72.878 25.375 Z M 74.007 27.278 C 73.792 27.551 73.515 27.768 73.197 27.909 C 72.879 28.056 72.534 28.132 72.182 28.133 C 71.863 28.135 71.545 28.08 71.244 27.972 C 70.961 27.872 70.702 27.717 70.48 27.515 C 70.26 27.315 70.085 27.071 69.966 26.799 C 69.717 26.201 69.717 25.529 69.966 24.931 C 70.086 24.66 70.26 24.416 70.48 24.215 C 70.702 24.014 70.962 23.858 71.244 23.758 C 71.545 23.65 71.863 23.596 72.182 23.598 C 72.471 23.594 72.758 23.649 73.023 23.758 C 73.269 23.86 73.488 24.017 73.663 24.215 C 73.845 24.425 73.982 24.667 74.068 24.931 C 74.166 25.233 74.215 25.548 74.212 25.866 L 74.212 26.284 L 71.116 26.284 C 71.158 26.52 71.281 26.736 71.462 26.893 C 71.647 27.047 71.882 27.129 72.121 27.121 C 72.316 27.128 72.509 27.077 72.677 26.975 C 72.831 26.874 72.965 26.747 73.073 26.597 Z M 2.862 37.128 L 0.721 37.128 L 0.721 39.122 L 3.119 39.122 L 3.119 39.721 L 0 39.721 L 0 34.193 L 2.993 34.193 L 2.993 34.791 L 0.722 34.791 L 0.722 36.538 L 2.863 36.538 L 2.863 37.129 Z M 5.749 38.993 C 6.041 39.165 6.371 39.261 6.709 39.272 C 7.222 39.272 7.471 39.019 7.471 38.682 C 7.471 38.341 7.266 38.157 6.741 37.96 C 6.02 37.698 5.683 37.312 5.683 36.836 C 5.699 36.496 5.855 36.177 6.115 35.956 C 6.374 35.735 6.714 35.632 7.053 35.671 C 7.393 35.662 7.729 35.747 8.023 35.917 L 7.853 36.442 C 7.61 36.288 7.329 36.206 7.041 36.204 C 6.615 36.204 6.385 36.451 6.385 36.746 C 6.385 37.073 6.614 37.222 7.132 37.427 C 7.812 37.68 8.173 38.026 8.173 38.616 C 8.173 39.32 7.623 39.815 6.697 39.815 C 6.306 39.82 5.923 39.723 5.581 39.536 Z M 11.795 34.802 L 11.795 35.753 L 12.829 35.753 L 12.829 36.304 L 11.795 36.304 L 11.795 38.444 C 11.795 38.937 11.934 39.215 12.337 39.215 C 12.477 39.221 12.619 39.205 12.754 39.166 L 12.787 39.716 C 12.58 39.785 12.365 39.817 12.147 39.814 C 11.856 39.828 11.573 39.718 11.368 39.511 C 11.153 39.208 11.054 38.838 11.089 38.468 L 11.089 36.304 L 10.472 36.304 L 10.472 35.753 L 11.089 35.753 L 11.089 35.016 L 11.795 34.801 Z M 17.559 37.697 C 16.773 37.679 15.878 37.82 15.878 38.59 C 15.861 38.775 15.926 38.958 16.056 39.09 C 16.185 39.223 16.366 39.292 16.551 39.279 C 16.985 39.293 17.38 39.026 17.527 38.615 C 17.549 38.541 17.559 38.464 17.559 38.387 Z M 18.257 38.77 C 18.253 39.089 18.272 39.407 18.314 39.722 L 17.666 39.722 L 17.609 39.222 L 17.584 39.222 C 17.298 39.602 16.846 39.822 16.37 39.813 C 16.054 39.836 15.743 39.726 15.512 39.509 C 15.281 39.292 15.152 38.988 15.156 38.671 C 15.156 37.71 16.009 37.186 17.543 37.194 L 17.543 37.112 C 17.576 36.864 17.492 36.614 17.315 36.435 C 17.139 36.257 16.89 36.17 16.641 36.199 C 16.272 36.195 15.91 36.298 15.598 36.494 L 15.434 36.01 C 15.834 35.781 16.287 35.662 16.747 35.667 C 17.962 35.667 18.257 36.495 18.257 37.283 Z M 20.977 38.131 C 20.977 38.426 21.095 38.709 21.304 38.917 C 21.514 39.125 21.798 39.241 22.094 39.238 C 22.857 39.238 23.3 38.624 23.3 37.713 C 23.3 36.917 22.89 36.237 22.11 36.237 C 21.478 36.271 20.981 36.793 20.979 37.427 Z M 20.263 33.899 L 20.977 33.899 L 20.977 36.392 L 20.993 36.392 C 21.274 35.917 21.796 35.639 22.346 35.67 C 23.34 35.67 24.028 36.491 24.028 37.688 C 24.028 39.107 23.126 39.813 22.24 39.813 C 21.69 39.842 21.171 39.556 20.903 39.074 L 20.886 39.074 L 20.846 39.722 L 20.231 39.722 C 20.247 39.452 20.263 39.05 20.263 38.695 Z M 26.496 33.899 L 27.218 33.899 L 27.218 39.723 L 26.496 39.723 Z M 30.092 35.751 L 30.814 35.751 L 30.814 39.722 L 30.092 39.722 Z M 30.897 34.636 C 30.9 34.757 30.853 34.874 30.765 34.959 C 30.678 35.043 30.56 35.087 30.439 35.079 C 30.321 35.082 30.208 35.036 30.125 34.952 C 30.043 34.868 29.999 34.754 30.004 34.636 C 30 34.515 30.047 34.398 30.132 34.313 C 30.218 34.227 30.335 34.181 30.456 34.185 C 30.575 34.182 30.691 34.229 30.775 34.314 C 30.859 34.4 30.904 34.516 30.899 34.636 M 33.551 38.993 C 33.844 39.165 34.174 39.261 34.511 39.272 C 35.025 39.272 35.274 39.019 35.274 38.682 C 35.274 38.341 35.069 38.157 34.544 37.96 C 33.822 37.698 33.486 37.312 33.486 36.836 C 33.501 36.496 33.658 36.177 33.917 35.956 C 34.177 35.735 34.517 35.632 34.856 35.671 C 35.196 35.662 35.532 35.747 35.826 35.917 L 35.656 36.442 C 35.413 36.288 35.131 36.206 34.844 36.204 C 34.418 36.204 34.188 36.451 34.188 36.746 C 34.188 37.073 34.417 37.222 34.935 37.427 C 35.615 37.68 35.976 38.026 35.976 38.616 C 35.976 39.32 35.426 39.815 34.5 39.815 C 34.109 39.82 33.726 39.723 33.384 39.536 L 33.552 38.993 Z M 38.466 33.899 L 39.187 33.899 L 39.187 36.385 L 39.204 36.385 C 39.325 36.169 39.503 35.99 39.718 35.867 C 39.942 35.739 40.197 35.67 40.457 35.67 C 40.99 35.67 41.842 35.998 41.842 37.36 L 41.842 39.723 L 41.121 39.723 L 41.121 37.442 C 41.121 36.802 40.883 36.269 40.202 36.269 C 39.76 36.279 39.373 36.565 39.231 36.984 C 39.193 37.093 39.176 37.209 39.181 37.325 L 39.181 39.72 L 38.466 39.72 Z M 47.081 37.354 C 47.12 37.064 47.033 36.77 46.842 36.547 C 46.651 36.325 46.373 36.195 46.08 36.189 C 45.463 36.228 44.98 36.736 44.972 37.354 Z M 44.964 37.868 C 44.93 38.24 45.062 38.608 45.325 38.874 C 45.587 39.139 45.953 39.276 46.325 39.247 C 46.702 39.259 47.078 39.188 47.425 39.041 L 47.556 39.554 C 47.137 39.733 46.683 39.82 46.227 39.809 C 45.691 39.841 45.167 39.637 44.792 39.251 C 44.417 38.865 44.229 38.336 44.276 37.8 C 44.276 36.601 44.98 35.667 46.138 35.667 C 47.441 35.667 47.778 36.799 47.778 37.529 C 47.78 37.642 47.772 37.754 47.752 37.866 Z M 52.926 37.369 C 52.927 37.267 52.916 37.164 52.893 37.065 C 52.782 36.578 52.349 36.234 51.85 36.236 C 51.103 36.236 50.66 36.892 50.66 37.761 C 50.66 38.565 51.06 39.23 51.834 39.23 C 52.345 39.225 52.784 38.867 52.892 38.368 C 52.916 38.266 52.927 38.161 52.925 38.056 L 52.925 37.369 Z M 53.639 33.899 L 53.639 38.695 C 53.639 39.048 53.656 39.45 53.672 39.722 L 53.032 39.722 L 52.999 39.034 L 52.975 39.034 C 52.719 39.532 52.197 39.836 51.638 39.813 C 50.678 39.813 49.931 39.001 49.931 37.795 C 49.923 36.475 50.751 35.67 51.711 35.67 C 52.189 35.639 52.648 35.868 52.91 36.269 L 52.928 36.269 L 52.928 33.899 L 53.64 33.899 Z M 59.85 35.751 L 60.572 35.751 L 60.572 39.722 L 59.85 39.722 Z M 60.654 34.636 C 60.657 34.757 60.61 34.874 60.523 34.959 C 60.436 35.043 60.318 35.087 60.197 35.079 C 60.079 35.082 59.966 35.036 59.884 34.952 C 59.801 34.868 59.757 34.754 59.762 34.636 C 59.758 34.515 59.805 34.398 59.89 34.313 C 59.976 34.227 60.093 34.181 60.214 34.185 C 60.334 34.182 60.449 34.229 60.533 34.314 C 60.617 34.4 60.662 34.516 60.657 34.636 M 63.348 36.824 C 63.348 36.406 63.34 36.077 63.315 35.75 L 63.956 35.75 L 63.997 36.406 L 64.013 36.406 C 64.282 35.938 64.786 35.655 65.326 35.667 C 65.876 35.667 66.729 35.995 66.729 37.357 L 66.729 39.72 L 66.007 39.72 L 66.007 37.431 C 66.007 36.791 65.769 36.258 65.089 36.258 C 64.64 36.269 64.248 36.567 64.118 36.997 C 64.083 37.106 64.066 37.219 64.068 37.333 L 64.068 39.72 L 63.346 39.72 Z M 74.22 35.064 L 74.203 35.064 L 73.276 35.563 L 73.137 35.014 L 74.301 34.39 L 74.916 34.39 L 74.916 39.722 L 74.219 39.722 L 74.219 35.063 Z M 78.427 36.155 C 78.398 36.446 78.493 36.735 78.689 36.951 C 78.885 37.166 79.164 37.289 79.456 37.287 C 79.879 37.301 80.279 37.089 80.505 36.729 C 80.552 36.646 80.575 36.552 80.571 36.458 C 80.571 35.548 80.234 34.85 79.471 34.85 C 78.865 34.85 78.43 35.391 78.43 36.155 Z M 78.167 39.214 C 78.362 39.225 78.557 39.217 78.749 39.189 C 79.167 39.143 79.558 38.962 79.865 38.675 C 80.257 38.301 80.506 37.802 80.571 37.265 L 80.546 37.265 C 80.236 37.639 79.769 37.848 79.283 37.83 C 78.853 37.838 78.44 37.667 78.143 37.357 C 77.845 37.047 77.691 36.627 77.716 36.198 C 77.698 35.703 77.881 35.222 78.224 34.864 C 78.567 34.507 79.041 34.304 79.537 34.303 C 80.629 34.303 81.301 35.181 81.301 36.559 C 81.35 37.481 81.017 38.383 80.381 39.052 C 79.957 39.453 79.413 39.704 78.832 39.766 C 78.612 39.802 78.389 39.815 78.167 39.807 Z M 87.244 34.388 L 87.244 34.866 L 84.923 39.718 L 84.178 39.718 L 86.49 35.001 L 86.49 34.985 L 83.881 34.985 L 83.881 34.387 Z M 90.475 37.081 C 90.475 38.467 90.901 39.255 91.56 39.255 C 92.289 39.255 92.642 38.393 92.642 37.032 C 92.642 35.719 92.314 34.858 91.56 34.858 C 90.936 34.858 90.475 35.628 90.475 37.081 Z M 93.371 36.999 C 93.371 38.812 92.69 39.812 91.517 39.812 C 90.475 39.812 89.762 38.836 89.746 37.071 C 89.746 35.275 90.526 34.299 91.609 34.299 C 92.724 34.299 93.373 35.3 93.373 36.998" fill="rgb(179,179,179)"></path></g></svg>