<svg xmlns="http://www.w3.org/2000/svg" width="100" height="100" fill="none"><rect width="100" height="100" fill="url(#a)" rx="20"/><path fill="url(#b)" d="M71.041 28.955a7.541 7.541 0 0 0-10.665 0l-3.786 3.786 10.665 10.665 3.786-3.786a7.542 7.542 0 0 0 0-10.665Z"/><path fill="url(#c)" d="M64.073 46.59 53.408 35.923l-30.45 30.449a7.541 7.541 0 1 0 10.666 10.665l30.45-30.449Z"/><path fill="url(#d)" d="M65.717 58.614c.508-2.485 4.058-2.485 4.566 0a9.112 9.112 0 0 0 7.103 7.103c2.485.508 2.485 4.058 0 4.566a9.112 9.112 0 0 0-7.103 7.103c-.508 2.485-4.058 2.485-4.566 0a9.112 9.112 0 0 0-7.103-7.103c-2.485-.508-2.485-4.058 0-4.566a9.112 9.112 0 0 0 7.103-7.103Z"/><path fill="url(#e)" d="M38.362 21.679c.253-1.239 2.023-1.239 2.276 0a6.97 6.97 0 0 0 5.433 5.433c1.239.253 1.239 2.023 0 2.276a6.97 6.97 0 0 0-5.433 5.433c-.253 1.239-2.023 1.239-2.276 0a6.97 6.97 0 0 0-5.433-5.433c-1.239-.253-1.239-2.023 0-2.276a6.97 6.97 0 0 0 5.433-5.433Z"/><defs><linearGradient id="a" x1="50" x2="50" y1="0" y2="100" gradientUnits="userSpaceOnUse"><stop stop-color="#242424"/><stop offset="1"/></linearGradient><linearGradient id="b" x1="64.92" x2="64.92" y1="26.746" y2="43.406" gradientUnits="userSpaceOnUse"><stop stop-color="#fff"/><stop offset="1" stop-color="#999"/></linearGradient><linearGradient id="c" x1="42.412" x2="42.412" y1="35.924" y2="79.247" gradientUnits="userSpaceOnUse"><stop stop-color="#fff"/><stop offset="1" stop-color="#999"/></linearGradient><linearGradient id="d" x1="68" x2="68" y1="56.75" y2="79.25" gradientUnits="userSpaceOnUse"><stop stop-color="#fff"/><stop offset="1" stop-color="#999"/></linearGradient><linearGradient id="e" x1="39.5" x2="39.5" y1="20.75" y2="35.75" gradientUnits="userSpaceOnUse"><stop stop-color="#fff"/><stop offset="1" stop-color="#999"/></linearGradient></defs></svg>